<?xml version="1.0" encoding="utf-8"?>
<!-- Generator: Adobe Illustrator 19.1.0, SVG Export Plug-In . SVG Version: 6.00 Build 0)  -->
<svg version="1.1" id="Layer_1" xmlns="http://www.w3.org/2000/svg" xmlns:xlink="http://www.w3.org/1999/xlink" x="0px" y="0px"
	 viewBox="0 0 32 32" style="enable-background:new 0 0 32 32;" xml:space="preserve">
<style type="text/css">
	.st0{fill:#FFFFFF;}
	.st1{fill:#F1F2F2;}
</style>
<g>
	<path class="st0" d="M30.1,16.7h-8h0v1.2c0,1.7-0.7,3.2-1.8,4.3c-0.1,0.1-0.3,0.3-0.4,0.4C18.8,23.5,17.5,24,16,24
		c-3.4,0-6.1-2.7-6.1-6.1v-1.2h-8v1.2C1.9,25.7,8.2,32,16,32c0,0,0,0,0,0h0c1.7,0,3.3-0.3,4.8-0.9c5.4-2,9.3-7.2,9.3-13.3L30.1,16.7
		L30.1,16.7z"/>
	<path class="st1" d="M22.1,17.9c0,3.4-2.7,6.1-6.1,6.1v8c7.8,0,14.1-6.3,14.1-14.1v-1.2h-8V17.9z"/>
	<circle class="st0" cx="7.2" cy="5.3" r="5.3"/>
	<circle class="st1" cx="24.8" cy="5.3" r="5.3"/>
</g>
</svg>
