<?xml version="1.0" encoding="utf-8"?>
<!-- Generator: Adobe Illustrator 19.2.0, SVG Export Plug-In . SVG Version: 6.00 Build 0)  -->
<svg version="1.1" xmlns="http://www.w3.org/2000/svg" xmlns:xlink="http://www.w3.org/1999/xlink" x="0px" y="0px"
	 viewBox="0 0 71.9 72" style="enable-background:new 0 0 71.9 72;" xml:space="preserve">
<style type="text/css">
	.st0{display:none;}
	.st1{display:inline;opacity:0.15;fill:#F71C1C;}
	.st2{fill:none;stroke:#666666;stroke-width:3;stroke-miterlimit:10;}
	.st3{fill:none;stroke:#666666;stroke-width:3;stroke-linecap:round;stroke-linejoin:round;stroke-miterlimit:10;}
	.st4{fill:none;stroke:#666666;stroke-width:3;stroke-linejoin:round;stroke-miterlimit:10;}
	.st5{fill:none;stroke:#666666;stroke-width:2;stroke-miterlimit:10;}
	.st6{fill:#666666;}
	.st7{fill:none;stroke:#666666;stroke-width:3;stroke-linecap:round;stroke-miterlimit:10;}
	.st8{fill:none;stroke:#666666;stroke-width:6;stroke-linecap:round;stroke-linejoin:round;stroke-miterlimit:10;}
	.st9{fill-rule:evenodd;clip-rule:evenodd;fill:#0F6193;}
	.st10{fill:#0F6193;}
	.st11{fill:#0E94F7;}
	.st12{fill-rule:evenodd;clip-rule:evenodd;fill:#0E94F7;}
	.st13{opacity:0.25;fill:none;stroke:#666666;stroke-linecap:round;stroke-linejoin:round;stroke-miterlimit:10;}
	.st14{fill:none;stroke:#666666;stroke-width:6;stroke-miterlimit:10;}
	.st15{fill:none;stroke:#676767;stroke-width:3;stroke-linecap:round;stroke-linejoin:round;stroke-miterlimit:10;}
	.st16{fill:none;stroke:#686867;stroke-width:3;stroke-miterlimit:10;}
	.st17{fill:none;stroke:#686867;stroke-width:3;stroke-linecap:round;stroke-linejoin:round;stroke-miterlimit:10;}
	.st18{fill:#676767;}
	.st19{fill:none;stroke:#676767;stroke-width:3;stroke-miterlimit:10;}
	.st20{fill:none;stroke:#666666;stroke-width:4;stroke-miterlimit:10;}
	.st21{fill:#FFFFFF;stroke:#666666;stroke-width:4;stroke-miterlimit:10;}
	.st22{fill:#686867;}
	.st23{fill:none;stroke:#D625C9;stroke-width:0.1;stroke-miterlimit:10;}
	.st24{fill:none;stroke:#0064C8;stroke-width:5;stroke-linecap:round;stroke-linejoin:round;stroke-miterlimit:10;}
	.st25{fill:none;stroke:#FFFFFF;stroke-width:5;stroke-linecap:round;stroke-linejoin:round;stroke-miterlimit:10;}
</style>
<g id="Layer_2" class="st0">
	<rect x="-1008.1" y="-719.9" class="st1" width="71.9" height="72"/>
	<rect x="-864.1" y="-719.9" class="st1" width="71.9" height="72"/>
	<rect x="-720.1" y="-719.9" class="st1" width="71.9" height="72"/>
	<rect x="-647.8" y="-791.9" class="st1" width="71.9" height="72"/>
	<rect x="-576" y="-719.9" class="st1" width="71.9" height="72"/>
	<rect x="-432" y="-719.9" class="st1" width="71.9" height="72"/>
	<rect x="-288" y="-719.9" class="st1" width="71.9" height="72"/>
	<rect x="-144" y="-719.9" class="st1" width="71.9" height="72"/>
	<rect x="0" y="-719.9" class="st1" width="71.9" height="72"/>
	<rect x="144" y="-719.9" class="st1" width="71.9" height="72"/>
	<rect x="-1008.1" y="-575.9" class="st1" width="71.9" height="72"/>
	<rect x="-864.1" y="-575.9" class="st1" width="71.9" height="72"/>
	<rect x="-720.1" y="-575.9" class="st1" width="71.9" height="72"/>
	<rect x="-576" y="-575.9" class="st1" width="71.9" height="72"/>
	<rect x="-432" y="-575.9" class="st1" width="71.9" height="72"/>
	<rect x="-288" y="-575.9" class="st1" width="71.9" height="72"/>
	<rect x="-144" y="-575.9" class="st1" width="71.9" height="72"/>
	<rect x="0" y="-575.9" class="st1" width="71.9" height="72"/>
	<rect x="-1008.1" y="-359.4" class="st1" width="71.9" height="72"/>
	<rect x="-864.1" y="-359.4" class="st1" width="71.9" height="72"/>
	<rect x="-720.1" y="-359.4" class="st1" width="71.9" height="72"/>
	<rect x="-576" y="-359.4" class="st1" width="71.9" height="72"/>
	<rect x="-432" y="-359.4" class="st1" width="71.9" height="72"/>
	<rect x="-288" y="-359.4" class="st1" width="71.9" height="72"/>
	<rect x="-144" y="-359.4" class="st1" width="71.9" height="72"/>
	<rect x="0" y="-359.4" class="st1" width="71.9" height="72"/>
	<rect x="144" y="-359.4" class="st1" width="71.9" height="72"/>
	<rect x="-1008.1" y="-215.4" class="st1" width="71.9" height="72"/>
	<rect x="-864.1" y="-215.4" class="st1" width="71.9" height="72"/>
	<rect x="-719.9" y="-215.8" class="st1" width="71.9" height="72"/>
	<rect x="-576" y="-215.4" class="st1" width="71.9" height="72"/>
	<rect x="-432" y="-215.4" class="st1" width="71.9" height="72"/>
	<rect x="-288" y="-215.4" class="st1" width="71.9" height="72"/>
	<rect x="-144" y="-215.4" class="st1" width="71.9" height="72"/>
	<rect x="-1008.1" class="st1" width="71.9" height="72"/>
	<rect x="-864.1" class="st1" width="71.9" height="72"/>
	<rect x="-720.1" class="st1" width="71.9" height="72"/>
	<rect x="-576" class="st1" width="71.9" height="72"/>
	<rect x="-432" class="st1" width="71.9" height="72"/>
	<rect x="-288" class="st1" width="71.9" height="72"/>
	<rect x="-144" class="st1" width="71.9" height="72"/>
	<rect x="0" y="0" class="st1" width="71.9" height="72"/>
	<rect x="-1008.1" y="217.2" class="st1" width="71.9" height="72"/>
	<rect x="-864.1" y="217.2" class="st1" width="71.9" height="72"/>
	<rect x="-1008.1" y="431.8" class="st1" width="71.9" height="72"/>
	<rect x="-864.1" y="431.8" class="st1" width="71.9" height="72"/>
	<rect x="-720.1" y="217.2" class="st1" width="71.9" height="72"/>
	<rect x="-576" y="217.2" class="st1" width="71.9" height="72"/>
	<rect x="-432" y="217.2" class="st1" width="71.9" height="72"/>
	<rect x="-288" y="217.2" class="st1" width="71.9" height="72"/>
	<rect x="647.5" y="-719.9" class="st1" width="71.9" height="72"/>
	<rect x="791.5" y="-719.9" class="st1" width="71.9" height="72"/>
	<rect x="935.5" y="-719.9" class="st1" width="71.9" height="72"/>
	<rect x="1079.5" y="-719.9" class="st1" width="71.9" height="72"/>
	<rect x="1223.5" y="-719.9" class="st1" width="71.9" height="72"/>
	<rect x="1367.5" y="-719.9" class="st1" width="71.9" height="72"/>
	<rect x="1511.5" y="-719.9" class="st1" width="71.9" height="72"/>
	<rect x="1655.6" y="-719.9" class="st1" width="71.9" height="72"/>
	<rect x="647.5" y="-503.9" class="st1" width="71.9" height="72"/>
	<rect x="648.1" y="-359.9" class="st1" width="71.9" height="72"/>
	<rect x="792" y="-359.9" class="st1" width="71.9" height="72"/>
	<rect x="648.4" y="-215.2" class="st1" width="71.9" height="72"/>
	<rect x="648.1" y="-72" class="st1" width="71.9" height="72"/>
	<rect x="791.9" y="-71.8" class="st1" width="71.9" height="72"/>
	<rect x="792" y="-215.2" class="st1" width="71.9" height="72"/>
	<rect x="935.9" y="-215.2" class="st1" width="71.9" height="72"/>
	<rect x="1080.3" y="-215.7" class="st1" width="71.9" height="72"/>
	<rect x="792" y="-504.5" class="st1" width="71.9" height="72"/>
	<rect x="936" y="-359.9" class="st1" width="71.9" height="72"/>
	<rect x="1079.9" y="-359.9" class="st1" width="71.9" height="72"/>
	<rect x="1224.4" y="-359.9" class="st1" width="71.9" height="72"/>
	<rect x="1368.2" y="-359.9" class="st1" width="71.9" height="72"/>
	<rect x="1512.3" y="-360.2" class="st1" width="71.9" height="72"/>
	<rect x="936.2" y="-503.9" class="st1" width="71.9" height="72"/>
	<rect x="1079.9" y="-503.8" class="st1" width="71.9" height="72"/>
	<rect x="1223.9" y="-503.9" class="st1" width="71.9" height="72"/>
	<rect x="1368.2" y="-503.9" class="st1" width="71.9" height="72"/>
	<rect x="1511.9" y="-503.9" class="st1" width="71.9" height="72"/>
	<rect x="1656.2" y="-503.9" class="st1" width="71.9" height="72"/>
	<rect x="1800" y="-503.9" class="st1" width="71.9" height="72"/>
	<rect x="1800" y="-431.9" class="st1" width="71.9" height="72"/>
	<rect x="1800" y="-359.9" class="st1" width="71.9" height="72"/>
	<rect x="1800" y="-287.9" class="st1" width="71.9" height="72"/>
	<rect x="144" y="-575.9" class="st1" width="71.9" height="72"/>
	<rect x="216" y="-575.9" class="st1" width="71.9" height="72"/>
	<rect x="216" y="-503.9" class="st1" width="71.9" height="72"/>
	<rect x="144" y="-503.9" class="st1" width="71.9" height="72"/>
	<rect x="1224.3" y="-215.7" class="st1" width="71.9" height="72"/>
	<rect x="1368" y="-215.7" class="st1" width="71.9" height="72"/>
	<rect x="1512.3" y="-216.5" class="st1" width="71.9" height="72"/>
	<rect x="1656.2" y="-216" class="st1" width="71.9" height="72"/>
	<rect x="144" y="0" transform="matrix(-1 -8.978430e-011 8.978430e-011 -1 359.8812 72)" class="st1" width="71.9" height="72"/>
</g>
<g id="Layer_1">
	<g>
		<path class="st2" d="M-992.1-306.4v4c0,0.6-0.4,1-1,1h-6c-0.6,0-1-0.4-1-1v-12"/>
		<path class="st2" d="M-944.1-314.4v12c0,0.6-0.4,1-1,1h-6c-0.6,0-1-0.4-1-1v-4"/>
		<path class="st3" d="M-1000.1-319v11.6c0,1.1,0.9,2,2,2h52c1.1,0,2-0.9,2-2V-319c0-0.4-0.1-0.7-0.2-1.1l-3.1-8.7l-3.2-12.4
			c-0.4-1.4-1.5-2.4-2.8-2.8c-3.3-0.9-11.1-2.4-18.8-2.4c-7.7,0-15.5,1.5-18.8,2.4c-1.4,0.4-2.4,1.4-2.8,2.8l-3.2,12.4l-3.1,8.7
			C-1000.1-319.8-1000.1-319.4-1000.1-319z"/>
		<path class="st3" d="M-946.7-331.5c2.3-0.7,4.4-0.6,5,1.4c0.7,2.1-0.9,3.4-3.2,4.1"/>
		<path class="st3" d="M-997.6-331.5c-2.3-0.7-4.4-0.6-5,1.4c-0.7,2.1,0.9,3.4,3.2,4.1"/>
		<path class="st3" d="M-987.1-315h-6c-0.6,0-1-0.4-1-1v-3c0-0.6,0.4-1,1-1l6,1c0.6,0,1,0.4,1,1v2C-986.1-315.4-986.6-315-987.1-315
			z"/>
		<path class="st3" d="M-957.1-315h6c0.6,0,1-0.4,1-1v-3c0-0.6-0.4-1-1-1l-6,1c-0.6,0-1,0.4-1,1v2C-958.1-315.4-957.7-315-957.1-315
			z"/>
		<line class="st3" x1="-980.2" y1="-315.6" x2="-964.1" y2="-315.6"/>
		<line class="st3" x1="-976.4" y1="-340.4" x2="-968.3" y2="-340.4"/>
		<line class="st2" x1="-996.9" y1="-328.4" x2="-947" y2="-328.4"/>
	</g>
	<g>
		<path class="st2" d="M-844.1-299.4v3c0,0.6-0.4,1-1,1h-6c-0.6,0-1-0.4-1-1v-12"/>
		<path class="st2" d="M-804.1-306.4v10c0,0.6-0.4,1-1,1h-6c-0.6,0-1-0.4-1-1v-3"/>
		<path class="st3" d="M-845.1-309h-6c-0.6,0-1-0.4-1-1v-3c0-0.6,0.4-1,1-1l6,1c0.6,0,1,0.4,1,1v2C-844.1-309.4-844.6-309-845.1-309
			z"/>
		<path class="st3" d="M-811.1-309h6c0.6,0,1-0.4,1-1v-3c0-0.6-0.4-1-1-1l-6,1c-0.6,0-1,0.4-1,1v2C-812.1-309.4-811.7-309-811.1-309
			z"/>
		<line class="st3" x1="-836.2" y1="-309.6" x2="-820.1" y2="-309.6"/>
		<line class="st3" x1="-832.4" y1="-347.4" x2="-824.3" y2="-347.4"/>
		<line class="st2" x1="-851.9" y1="-320.4" x2="-804" y2="-320.4"/>
		<line class="st2" x1="-851.9" y1="-343.4" x2="-804" y2="-343.4"/>
		<polyline class="st3" points="-803.1,-333.4 -800.1,-333.4 -800.1,-320.4 -803.1,-320.4 		"/>
		<polyline class="st3" points="-852.1,-320.5 -856.1,-320.5 -856.1,-333.5 -852.1,-333.5 		"/>
		<path class="st3" d="M-808.1-299.5h-40c-2.2,0-4-1.9-4-4.3v-43.2c0-2.4,1.8-4.3,4-4.3h40c2.2,0,4,1.9,4,4.3v43.2
			C-804.1-301.5-805.9-299.5-808.1-299.5z"/>
	</g>
	<g>
		<path class="st3" d="M-950.1,56h-44c-3.3,0-6-2.7-6-6V22c0-3.3,2.7-6,6-6h44c3.3,0,6,2.7,6,6v28C-944.1,53.3-946.8,56-950.1,56z"
			/>
		<line class="st4" x1="-999.1" y1="54.9" x2="-980.7" y2="36.5"/>
		<line class="st4" x1="-946" y1="54.2" x2="-963.9" y2="36.3"/>
		<path class="st4" d="M-945.2,17.1L-968,39.9c-2.3,2.3-6.1,2.3-8.5,0l-22.6-22.6"/>
	</g>
	<g>
		<line class="st3" x1="-844.3" y1="16" x2="-812.4" y2="16"/>
		<line class="st3" x1="-844.3" y1="24" x2="-812.4" y2="24"/>
		<line class="st3" x1="-844.3" y1="32" x2="-812.4" y2="32"/>
		<line class="st3" x1="-832.3" y1="40" x2="-824.4" y2="40"/>
		<path class="st3" d="M-856.1,32v28c0,2.2,1.8,4,4,4h48c2.2,0,4-1.8,4-4V31.9l-28,16.1L-856.1,32z"/>
		<path class="st3" d="M-852.2,33.3V12c0-2.2,1.8-4,4-4h39.9c2.2,0,4,1.8,4,4v21.3"/>
	</g>
	<g>
		<circle class="st5" cx="-666.1" cy="44.4" r="4"/>
		<path class="st2" d="M-656.1,15.9v44c0,3.3-2.7,6-6,6h-44c-3.3,0-6-2.7-6-6v-44c0-3.3,2.7-6,6-6h44
			C-658.8,9.9-656.1,12.6-656.1,15.9z"/>
		<path class="st6" d="M-689.6,33.9h-1c-0.6,0-1-0.4-1-1v-1c0-0.6,0.4-1,1-1h1c0.6,0,1,0.4,1,1v1C-688.6,33.5-689.1,33.9-689.6,33.9
			z"/>
		<path class="st6" d="M-677.6,33.9h-1c-0.6,0-1-0.4-1-1v-1c0-0.6,0.4-1,1-1h1c0.6,0,1,0.4,1,1v1C-676.6,33.5-677.1,33.9-677.6,33.9
			z"/>
		<path class="st6" d="M-665.6,33.9h-1c-0.6,0-1-0.4-1-1v-1c0-0.6,0.4-1,1-1h1c0.6,0,1,0.4,1,1v1C-664.6,33.5-665.1,33.9-665.6,33.9
			z"/>
		<path class="st6" d="M-701.6,45.9h-1c-0.6,0-1-0.4-1-1v-1c0-0.6,0.4-1,1-1h1c0.6,0,1,0.4,1,1v1C-700.6,45.5-701.1,45.9-701.6,45.9
			z"/>
		<path class="st6" d="M-689.6,45.9h-1c-0.6,0-1-0.4-1-1v-1c0-0.6,0.4-1,1-1h1c0.6,0,1,0.4,1,1v1C-688.6,45.5-689.1,45.9-689.6,45.9
			z"/>
		<path class="st6" d="M-677.7,45.7h-1c-0.6,0-1-0.4-1-1v-1c0-0.6,0.4-1,1-1h1c0.6,0,1,0.4,1,1v1C-676.7,45.2-677.2,45.7-677.7,45.7
			z"/>
		<path class="st6" d="M-701.6,57.9h-1c-0.6,0-1-0.4-1-1v-1c0-0.6,0.4-1,1-1h1c0.6,0,1,0.4,1,1v1C-700.6,57.5-701.1,57.9-701.6,57.9
			z"/>
		<path class="st6" d="M-689.6,57.9h-1c-0.6,0-1-0.4-1-1v-1c0-0.6,0.4-1,1-1h1c0.6,0,1,0.4,1,1v1C-688.6,57.5-689.1,57.9-689.6,57.9
			z"/>
		<path class="st6" d="M-677.6,57.9h-1c-0.6,0-1-0.4-1-1v-1c0-0.6,0.4-1,1-1h1c0.6,0,1,0.4,1,1v1C-676.6,57.5-677.1,57.9-677.6,57.9
			z"/>
		<path class="st6" d="M-665.6,57.9h-1c-0.6,0-1-0.4-1-1v-1c0-0.6,0.4-1,1-1h1c0.6,0,1,0.4,1,1v1C-664.6,57.5-665.1,57.9-665.6,57.9
			z"/>
		<line class="st2" x1="-656.4" y1="22.4" x2="-711.4" y2="22.4"/>
		<line class="st7" x1="-694.1" y1="16.3" x2="-674.1" y2="16.3"/>
		<g>
			<path class="st6" d="M-703.1,9.1c0-1.7,1.3-3,3-3s3,1.3,3,3"/>
		</g>
		<g>
			<path class="st6" d="M-671.1,9.1c0-1.7,1.3-3,3-3s3,1.3,3,3"/>
		</g>
		<circle class="st5" cx="-666.1" cy="44.4" r="4"/>
		<path class="st2" d="M-656.1,15.9v44c0,3.3-2.7,6-6,6h-44c-3.3,0-6-2.7-6-6v-44c0-3.3,2.7-6,6-6h44
			C-658.8,9.9-656.1,12.6-656.1,15.9z"/>
		<path class="st6" d="M-689.6,33.9h-1c-0.6,0-1-0.4-1-1v-1c0-0.6,0.4-1,1-1h1c0.6,0,1,0.4,1,1v1C-688.6,33.5-689.1,33.9-689.6,33.9
			z"/>
		<path class="st6" d="M-677.6,33.9h-1c-0.6,0-1-0.4-1-1v-1c0-0.6,0.4-1,1-1h1c0.6,0,1,0.4,1,1v1C-676.6,33.5-677.1,33.9-677.6,33.9
			z"/>
		<path class="st6" d="M-665.6,33.9h-1c-0.6,0-1-0.4-1-1v-1c0-0.6,0.4-1,1-1h1c0.6,0,1,0.4,1,1v1C-664.6,33.5-665.1,33.9-665.6,33.9
			z"/>
		<path class="st6" d="M-701.6,45.9h-1c-0.6,0-1-0.4-1-1v-1c0-0.6,0.4-1,1-1h1c0.6,0,1,0.4,1,1v1C-700.6,45.5-701.1,45.9-701.6,45.9
			z"/>
		<path class="st6" d="M-689.6,45.9h-1c-0.6,0-1-0.4-1-1v-1c0-0.6,0.4-1,1-1h1c0.6,0,1,0.4,1,1v1C-688.6,45.5-689.1,45.9-689.6,45.9
			z"/>
		<path class="st6" d="M-677.7,45.7h-1c-0.6,0-1-0.4-1-1v-1c0-0.6,0.4-1,1-1h1c0.6,0,1,0.4,1,1v1C-676.7,45.2-677.2,45.7-677.7,45.7
			z"/>
		<path class="st6" d="M-701.6,57.9h-1c-0.6,0-1-0.4-1-1v-1c0-0.6,0.4-1,1-1h1c0.6,0,1,0.4,1,1v1C-700.6,57.5-701.1,57.9-701.6,57.9
			z"/>
		<path class="st6" d="M-689.6,57.9h-1c-0.6,0-1-0.4-1-1v-1c0-0.6,0.4-1,1-1h1c0.6,0,1,0.4,1,1v1C-688.6,57.5-689.1,57.9-689.6,57.9
			z"/>
		<path class="st6" d="M-677.6,57.9h-1c-0.6,0-1-0.4-1-1v-1c0-0.6,0.4-1,1-1h1c0.6,0,1,0.4,1,1v1C-676.6,57.5-677.1,57.9-677.6,57.9
			z"/>
		<path class="st6" d="M-665.6,57.9h-1c-0.6,0-1-0.4-1-1v-1c0-0.6,0.4-1,1-1h1c0.6,0,1,0.4,1,1v1C-664.6,57.5-665.1,57.9-665.6,57.9
			z"/>
		<line class="st2" x1="-656.4" y1="22.4" x2="-711.4" y2="22.4"/>
		<line class="st7" x1="-694.1" y1="16.3" x2="-674.1" y2="16.3"/>
		<g>
			<path class="st6" d="M-703.1,9.1c0-1.7,1.3-3,3-3s3,1.3,3,3"/>
		</g>
		<g>
			<path class="st6" d="M-671.1,9.1c0-1.7,1.3-3,3-3s3,1.3,3,3"/>
		</g>
	</g>
	<g>
		<path class="st3" d="M-245-351.4h-31c-2.2,0-4,1.8-4,4v48c0,2.2,1.8,4,4,4h48c2.2,0,4-1.8,4-4v-31.1L-245-351.4z"/>
		<line class="st3" x1="-224.1" y1="-323.5" x2="-280.1" y2="-323.5"/>
		<line class="st3" x1="-272.1" y1="-317" x2="-264.9" y2="-317"/>
	</g>
	<g>
		<path class="st7" d="M-688.5-333.5l-0.2-13.4c0-2.5,2.1-4.6,4.6-4.6l0,0"/>
		<line class="st7" x1="-687.7" y1="-303.8" x2="-688" y2="-315.3"/>
		<polyline class="st3" points="-688,-315.3 -711.7,-306.1 -711,-313.5 -688.5,-333.5 		"/>
		<polyline class="st3" points="-683.7,-295.3 -693.7,-295.3 -693.7,-298.8 -687.7,-303.8 		"/>
		<path class="st7" d="M-679.8-333.6l0.3-13.3c0-2.5-2.1-4.6-4.6-4.6l0,0"/>
		<line class="st7" x1="-680.4" y1="-303.8" x2="-680.2" y2="-315.3"/>
		<polyline class="st3" points="-680.2,-315.4 -656.5,-306.1 -657.2,-313.5 -679.7,-333.5 		"/>
		<polyline class="st3" points="-684.5,-295.3 -674.5,-295.3 -674.5,-298.8 -680.4,-303.8 		"/>
	</g>
	<g>
		<path class="st7" d="M-818.1,248.9l13.4-0.2c2.5,0,4.6,2.1,4.6,4.6l0,0"/>
		<line class="st7" x1="-847.7" y1="249.6" x2="-836.3" y2="249.3"/>
		<polyline class="st3" points="-836.3,249.3 -845.4,225.6 -838.1,226.3 -818.1,248.9 		"/>
		<polyline class="st3" points="-856.2,253.6 -856.2,243.6 -852.7,243.6 -847.7,249.6 		"/>
		<path class="st7" d="M-817.9,257.5l13.3,0.3c2.5,0,4.6-2.1,4.6-4.6l0,0"/>
		<line class="st7" x1="-847.8" y1="256.9" x2="-836.3" y2="257.1"/>
		<polyline class="st3" points="-836.2,257.1 -845.4,280.8 -838.1,280.2 -818.1,257.6 		"/>
		<polyline class="st3" points="-856.2,252.8 -856.2,262.8 -852.7,262.8 -847.8,256.9 		"/>
	</g>
	<g>
		<path class="st3" d="M-521.4-332.7c0,10.3-18.7,37.3-18.7,37.3s-18.7-27-18.7-37.3s8.4-18.7,18.7-18.7S-521.4-343.1-521.4-332.7z"
			/>
		<circle class="st3" cx="-540.1" cy="-332.7" r="5.6"/>
	</g>
	<g>
		<polyline class="st3" points="-384.1,-339.5 -368.1,-343.5 -368.1,-299.5 -386.1,-295.5 		"/>
		<line class="st3" x1="-386.1" y1="-295.5" x2="-406.1" y2="-299.5"/>
		<line class="st3" x1="-386.1" y1="-331.5" x2="-386.1" y2="-295.5"/>
		<line class="st3" x1="-406.1" y1="-331.5" x2="-406.1" y2="-300.5"/>
		<path class="st3" d="M-406.1-343.5"/>
		<polyline class="st3" points="-406.1,-299.5 -424.1,-295.5 -424.1,-338.5 -408.1,-343.5 		"/>
		<path class="st3" d="M-384.1-338.7c0,7-12,25.3-12,25.3s-12-18.3-12-25.3c0-7,5.4-12.6,12-12.6
			C-389.5-351.4-384.1-345.7-384.1-338.7z"/>
		<ellipse class="st3" cx="-396.1" cy="-338.7" rx="3.6" ry="3.8"/>
	</g>
	<g>
		<path class="st3" d="M-665.5,243.9c0,10.3-18.7,37.3-18.7,37.3s-18.7-27-18.7-37.3c0-10.3,8.4-18.7,18.7-18.7
			S-665.5,233.6-665.5,243.9z"/>
		<circle class="st3" cx="-684.1" cy="243.9" r="5.6"/>
	</g>
	<g>
		<polyline class="st3" points="-528.1,237.2 -512.1,233.2 -512.1,277.2 -530.1,281.2 		"/>
		<line class="st3" x1="-530.1" y1="281.2" x2="-550.1" y2="277.2"/>
		<line class="st3" x1="-530.1" y1="245.2" x2="-530.1" y2="281.2"/>
		<line class="st3" x1="-550.1" y1="245.2" x2="-550.1" y2="276.2"/>
		<path class="st3" d="M-550.1,233.2"/>
		<polyline class="st3" points="-550.1,277.2 -568.1,281.2 -568.1,238.2 -552.1,233.2 		"/>
		<path class="st3" d="M-528.1,237.9c0,7-12,25.3-12,25.3s-12-18.3-12-25.3c0-7,5.4-12.6,12-12.6
			C-533.5,225.3-528.1,230.9-528.1,237.9z"/>
		<ellipse class="st3" cx="-540.1" cy="237.9" rx="3.6" ry="3.8"/>
	</g>
	<g>
		<polygon class="st3" points="-962.1,281.2 -982.1,281.2 -982.1,233.2 -962.1,225.2 		"/>
		<rect x="-962.1" y="244.2" class="st3" width="18" height="37"/>
		<rect x="-1000.1" y="255.2" class="st3" width="18" height="26"/>
		<line class="st3" x1="-977.1" y1="237.4" x2="-977.1" y2="281.2"/>
		<line class="st3" x1="-972.1" y1="237.4" x2="-972.1" y2="281.2"/>
		<line class="st3" x1="-967.1" y1="237.4" x2="-967.1" y2="281.2"/>
		<line class="st3" x1="-949.1" y1="265" x2="-957.1" y2="265"/>
		<line class="st3" x1="-949.1" y1="270" x2="-957.1" y2="270"/>
		<line class="st3" x1="-949.1" y1="275" x2="-957.1" y2="275"/>
		<line class="st3" x1="-949.1" y1="250" x2="-957.1" y2="250"/>
		<line class="st3" x1="-949.1" y1="255" x2="-957.1" y2="255"/>
		<line class="st3" x1="-949.1" y1="260" x2="-957.1" y2="260"/>
		<rect x="-994.1" y="264.2" class="st3" width="6" height="6"/>
	</g>
	<g>
		<g>
			<g>
				<path class="st6" d="M42.9-323.1H29c-1,0-1.8-0.8-1.8-1.8v-32.9c0-1,0.8-1.8,1.8-1.8h13.9c1,0,1.8,0.8,1.8,1.8v32.9
					C44.7-323.9,43.9-323.1,42.9-323.1z M30.8-326.7h10.4V-356H30.8V-326.7z"/>
			</g>
			<g>
				<path class="st6" d="M42-350H30.2c-1,0-1.8-0.8-1.8-1.8s0.8-1.8,1.8-1.8H42c1,0,1.8,0.8,1.8,1.8S43-350,42-350z"/>
			</g>
		</g>
		<g>
			<g>
				<path class="st6" d="M26.5-287.3c-1.8,0-3.2-1.5-3.2-3.2v-0.6c0-1,0.8-1.8,1.8-1.8c0.6,0,1.2,0.3,1.5,0.8
					c0.3-0.5,0.9-0.8,1.5-0.8c1,0,1.8,0.8,1.8,1.8v0.6C29.7-288.7,28.3-287.3,26.5-287.3z"/>
			</g>
			<g>
				<path class="st6" d="M45.4-287.3c-1.8,0-3.2-1.5-3.2-3.2v-0.6c0-1,0.8-1.8,1.8-1.8c0.6,0,1.2,0.3,1.5,0.8
					c0.3-0.5,0.9-0.8,1.5-0.8c1,0,1.8,0.8,1.8,1.8v0.6C48.6-288.7,47.2-287.3,45.4-287.3z"/>
			</g>
			<g>
				<path class="st6" d="M45.4-289.9H26.5c-3.6,0-6.6-2.9-6.6-6.6v-23.6c0-3.6,2.9-6.6,6.6-6.6h18.8c3.6,0,6.6,2.9,6.6,6.6v23.6
					C51.9-292.9,49-289.9,45.4-289.9z M26.5-323.1c-1.7,0-3,1.4-3,3v23.6c0,1.7,1.4,3,3,3h18.8c1.7,0,3-1.4,3-3v-23.6
					c0-1.7-1.4-3-3-3H26.5z"/>
			</g>
			<g>
				<path class="st6" d="M31.1-299.4c-1,0-1.8-0.8-1.8-1.8v-14.2c0-1,0.8-1.8,1.8-1.8s1.8,0.8,1.8,1.8v14.2
					C32.9-300.2,32.1-299.4,31.1-299.4z"/>
			</g>
			<g>
				<path class="st6" d="M40.7-299.4c-1,0-1.8-0.8-1.8-1.8v-14.2c0-1,0.8-1.8,1.8-1.8s1.8,0.8,1.8,1.8v14.2
					C42.5-300.2,41.7-299.4,40.7-299.4z"/>
			</g>
		</g>
	</g>
	<g>
		<g>
			<path class="st6" d="M192.3-339.6c-0.6,0-1.3-0.4-1.5-1c-1.8-4.4-6-7.3-10.8-7.3c-4.8,0-9,2.9-10.7,7.3c-0.3,0.8-1.3,1.2-2.1,0.9
				c-0.8-0.3-1.2-1.3-0.9-2.1c2.3-5.7,7.7-9.3,13.8-9.3c6.1,0,11.5,3.7,13.8,9.4c0.3,0.8-0.1,1.8-0.9,2.1
				C192.7-339.6,192.5-339.6,192.3-339.6z"/>
		</g>
		<g>
			<path class="st6" d="M187.3-329.4c-0.8,0-1.5-0.6-1.6-1.4l-1.6-9.6c-0.1-0.9,0.5-1.7,1.3-1.9c0.9-0.1,1.7,0.5,1.9,1.3l1.6,9.6
				c0.1,0.9-0.5,1.7-1.3,1.9C187.4-329.5,187.4-329.4,187.3-329.4z"/>
		</g>
		<g>
			<path class="st6" d="M185.7-317.8c-1.3,0-2.5-1-2.7-2.3l-1.2-7.6c-0.1-0.4,0-0.9,0.3-1.2l3.6-5c0.5-0.7,1.5-0.9,2.3-0.4l5,3.6
				c0.4,0.3,0.6,0.6,0.7,1.1l1.2,7.6c0.2,1.5-0.8,2.9-2.2,3.1l-6.4,1C186-317.8,185.9-317.8,185.7-317.8z M185.1-327.5l1,6.4
				l5.3-0.9l-1-6.4l-3.1-2.2L185.1-327.5z"/>
		</g>
		<g>
			<path class="st3" d="M197.4-327.4"/>
		</g>
		<g>
			<path class="st6" d="M162.6-296.5c-0.9,0-1.6-0.7-1.6-1.6v-42.3c0-0.9,0.7-1.6,1.6-1.6s1.6,0.7,1.6,1.6v42.3
				C164.2-297.2,163.5-296.5,162.6-296.5z"/>
		</g>
		<g>
			<path class="st6" d="M197.4-296.5c-0.9,0-1.6-0.7-1.6-1.6v-42.3c0-0.9,0.7-1.6,1.6-1.6s1.6,0.7,1.6,1.6v42.3
				C199-297.2,198.3-296.5,197.4-296.5z"/>
		</g>
		<g>
			<path class="st6" d="M206.1-295.7h-52.2c-3.3,0-6-2.7-6-6v-34.8c0-3.3,2.7-6,6-6h52.2c3.3,0,6,2.7,6,6v34.8
				C212.1-298.4,209.4-295.7,206.1-295.7z M153.9-339.2c-1.5,0-2.7,1.2-2.7,2.7v34.8c0,1.5,1.2,2.7,2.7,2.7h52.2
				c1.5,0,2.7-1.2,2.7-2.7v-34.8c0-1.5-1.2-2.7-2.7-2.7H153.9z"/>
		</g>
	</g>
	<g>
		<path class="st3" d="M-546,38.8"/>
		<path class="st3" d="M-546,39c0,0,1.6,4.5-2,4.9c-11,1.3-20.2,6.1-20.2,19.2h56.1c0-13.1-9.2-17.9-20.2-19.2c-3.6-0.4-2-4.9-2-4.9
			"/>
		<path class="st3" d="M-546,38.9c-4.9-3.2-8.3-10-8.3-15.8c0-7.8,6.4-14.2,14.2-14.2c7.8,0,14.2,6.4,14.2,14.2
			c0,5.7-3.4,12.5-8.3,15.7"/>
	</g>
	<g>
		<circle class="st3" cx="-972.1" cy="-539.9" r="28"/>
		<g>
			<path class="st6" d="M-972.3-524.7h-5.9l4.6-21.8h5.9L-972.3-524.7z M-972.6-551.7c0-1.1,0.3-2,0.9-2.6c0.6-0.6,1.5-0.9,2.6-0.9
				c1,0,1.7,0.2,2.2,0.6c0.5,0.4,0.7,1,0.7,1.7c0,1-0.3,1.9-0.9,2.5c-0.6,0.6-1.5,1-2.7,1C-971.6-549.3-972.6-550.1-972.6-551.7z"/>
		</g>
	</g>
	<g>
		<circle class="st3" cx="-828.1" cy="-539.9" r="28"/>
		<g>
			<path class="st6" d="M-832-535v-1.5c0-1.3,0.3-2.4,0.8-3.3c0.5-0.9,1.5-2,3-3c1.4-1,2.3-1.8,2.8-2.4c0.4-0.6,0.7-1.3,0.7-2.1
				c0-0.9-0.3-1.5-1-2c-0.6-0.5-1.5-0.7-2.7-0.7c-2,0-4.3,0.7-6.8,2l-2.2-4.4c3-1.7,6.1-2.5,9.5-2.5c2.7,0,4.9,0.7,6.6,2
				c1.6,1.3,2.4,3.1,2.4,5.3c0,1.5-0.3,2.7-1,3.8c-0.7,1.1-1.9,2.3-3.8,3.6c-1.3,0.9-2.1,1.7-2.4,2.2c-0.3,0.5-0.5,1.1-0.5,1.9v1.2
				H-832z M-832.6-528.2c0-1.1,0.3-2,0.9-2.5c0.6-0.6,1.5-0.9,2.6-0.9c1.1,0,2,0.3,2.6,0.9c0.6,0.6,0.9,1.4,0.9,2.5
				c0,1.1-0.3,1.9-0.9,2.5c-0.6,0.6-1.5,0.9-2.6,0.9c-1.1,0-2-0.3-2.6-0.9C-832.3-526.3-832.6-527.1-832.6-528.2z"/>
		</g>
	</g>
	<g>
		<path class="st3" d="M-806.1-151.4h-44c-3.3,0-6-2.7-6-6v0c0-3.3,2.7-6,6-6h44c3.3,0,6,2.7,6,6v0
			C-800.1-154.1-802.8-151.4-806.1-151.4z"/>
		<path class="st3" d="M-814.1-195.6h-28c-3.3,0-6,2.7-6,6v26.2h40v-26.2C-808.1-192.9-810.8-195.6-814.1-195.6z"/>
		<path class="st3" d="M-820-207.4h-16.1c-2.2,0-4,1.8-4,4v7.8h24.1v-7.8C-816-205.6-817.8-207.4-820-207.4z"/>
		<line class="st8" x1="-845.3" y1="-165.1" x2="-810.9" y2="-192.8"/>
	</g>
	<g>
		<line class="st3" x1="-398.4" y1="20.3" x2="-398.4" y2="22.3"/>
		<line class="st3" x1="-393.7" y1="20.3" x2="-393.7" y2="22.3"/>
		<path class="st3" d="M-390.6,14.1c0,2.2-1.3,4.7-3.1,6c-0.7,0.5-1.5,0.8-2.4,0.8c-0.8,0-1.6-0.3-2.3-0.7c-1.9-1.2-3.2-3.9-3.2-6.1
			c0-3,2.5-5.5,5.5-5.5C-393.1,8.6-390.6,11.1-390.6,14.1z"/>
		<path class="st3" d="M-385.3,29.1c0-0.1,0-0.2,0-0.3l0,0c-0.4-3.5-3.9-5.1-7.7-5.7c-1-0.2-3.1,2.5-3.1,2.5s-2.1-2.6-3.1-2.5
			c-3.8,0.6-7.4,2.4-7.7,5.9c0,0,0,0,0,0.1l-1,15.5c0,1.3,1,2.3,2.3,2.3s2.3-1,2.3-2.3l0.6-8.2l-0.4,8.7c0,0.1,0,0.2,0,0.3
			c0,0.1,0,0.2,0,0.3v15.5c0,1.3,1,2.3,2.3,2.3s2.3-1,2.3-2.3l2-15.4h1.4l2,15.4c0,1.3,1,2.3,2.3,2.3s2.3-1,2.3-2.3V45.6
			c0-0.1,0-0.2,0-0.3c0-0.1,0-0.2,0-0.3l-1-9l0.9,8.5c0,1.3,0.7,2.3,2,2.3s2.3-1,2.3-2.3L-385.3,29.1z"/>
	</g>
	<g>
		<line class="st3" x1="-974.4" y1="452.1" x2="-974.4" y2="454.1"/>
		<line class="st3" x1="-969.8" y1="452.1" x2="-969.8" y2="454.1"/>
		<path class="st3" d="M-966.7,445.9c0,2.2-1.3,4.7-3.1,6c-0.7,0.5-1.5,0.8-2.4,0.8c-0.8,0-1.6-0.3-2.3-0.7
			c-1.9-1.2-3.2-3.9-3.2-6.1c0-3,2.5-5.5,5.5-5.5S-966.7,442.9-966.7,445.9z"/>
		<path class="st3" d="M-961.3,460.9c0-0.1,0-0.2,0-0.3l0,0c-0.4-3.5-3.9-5.1-7.7-5.7c-1-0.2-3.1,2.5-3.1,2.5s-2.1-2.6-3.1-2.5
			c-3.8,0.6-7.4,2.4-7.7,5.9c0,0,0,0,0,0.1l-1,15.5c0,1.3,1,2.3,2.3,2.3s2.3-1,2.3-2.3l0.6-8.2l-0.4,8.7c0,0.1,0,0.2,0,0.3
			c0,0.1,0,0.2,0,0.3v15.5c0,1.3,1,2.3,2.3,2.3s2.3-1,2.3-2.3l2-15.4h1.4l2,15.4c0,1.3,1,2.3,2.3,2.3s2.3-1,2.3-2.3v-15.5
			c0-0.1,0-0.2,0-0.3c0-0.1,0-0.2,0-0.3l-1-9l0.9,8.5c0,1.3,0.7,2.3,2,2.3s2.3-1,2.3-2.3L-961.3,460.9z"/>
	</g>
	<g>
		<g>
			<path class="st6" d="M-80.1-293.8h-56c-0.8,0-1.5-0.7-1.5-1.5s0.7-1.5,1.5-1.5h56c0.8,0,1.5,0.7,1.5,1.5S-79.2-293.8-80.1-293.8z
				"/>
		</g>
		<g>
			<rect x="-91.6" y="-324.7" class="st6" width="3" height="14.3"/>
		</g>
		<g>
			<rect x="-81.6" y="-341.7" class="st6" width="3" height="31.3"/>
		</g>
		<g>
			<path class="st6" d="M-83.4-335.6c-1.6,0-3.2-0.6-4.4-1.8c-2.4-2.4-2.4-6.3,0-8.7c0.6-0.6,1.5-0.6,2.1,0c0.6,0.6,0.6,1.5,0,2.1
				c-1.2,1.2-1.2,3.3,0,4.5c1.2,1.2,3.3,1.2,4.5,0c0.6-0.6,1.5-0.6,2.1,0c0.6,0.6,0.6,1.5,0,2.1C-80.2-336.2-81.8-335.6-83.4-335.6z
				"/>
		</g>
		<g>
			<path class="st2" d="M-131.2-331.8"/>
		</g>
		<g>
			<path class="st2" d="M-101.3-331.8"/>
		</g>
		<g>
			<path class="st6" d="M-120.2-332.3c-0.2,0-0.4,0-0.6-0.1c-0.8-0.3-1.1-1.2-0.8-2c1.1-2.6,3.6-4.3,6.5-4.3c2.8,0,5.3,1.6,6.4,4.2
				c0.3,0.8,0,1.6-0.8,2c-0.8,0.3-1.6,0-2-0.8c-0.6-1.5-2.1-2.4-3.7-2.4c-1.6,0-3.1,1-3.7,2.5C-119-332.7-119.6-332.3-120.2-332.3z"
				/>
		</g>
		<g>
			<path class="st2" d="M-118.2-331.8"/>
		</g>
		<g>
			<path class="st2" d="M-112-331.8"/>
		</g>
		<g>
			<rect x="-130" y="-334.2" class="st6" width="9.5" height="3"/>
		</g>
		<g>
			<rect x="-125.8" y="-334.2" class="st6" width="25.7" height="3"/>
		</g>
		<g>
			<path class="st6" d="M-111.1-335.8c-0.4,0-0.8-0.1-1-0.4c-0.6-0.6-0.6-1.5,0-2.1l4.1-4.2c0.6-0.6,1.5-0.6,2.1,0
				c0.6,0.6,0.6,1.5,0,2.1l-4.1,4.2C-110.3-335.9-110.7-335.8-111.1-335.8z"/>
		</g>
		<g>
			<path class="st6" d="M-85.1-303.8c-3.6,0-6.5-2.9-6.5-6.5c0-0.8,0.7-1.5,1.5-1.5s1.5,0.7,1.5,1.5c0,1.9,1.6,3.5,3.5,3.5
				s3.5-1.6,3.5-3.5c0-0.8,0.7-1.5,1.5-1.5s1.5,0.7,1.5,1.5C-78.6-306.7-81.5-303.8-85.1-303.8z"/>
		</g>
		<g>
			<path class="st6" d="M-90.1-323.2c-0.8,0-1.5-0.7-1.5-1.5c0-3.6-2.9-6.5-6.5-6.5c-0.8,0-1.5-0.7-1.5-1.5s0.7-1.5,1.5-1.5
				c5.2,0,9.5,4.3,9.5,9.5C-88.6-323.8-89.2-323.2-90.1-323.2z"/>
		</g>
		<g>
			<path class="st3" d="M-89.5-349"/>
		</g>
		<g>
			<path class="st6" d="M-80.1-336.1c-0.8,0-1.5-0.7-1.5-1.5v-3.8l-11.4-9c-0.7-0.5-0.8-1.5-0.3-2.1c0.5-0.7,1.5-0.8,2.1-0.3l12,9.4
				c0.4,0.3,0.6,0.7,0.6,1.2v4.5C-78.6-336.8-79.2-336.1-80.1-336.1z"/>
		</g>
		<g>
			<path class="st6" d="M-103.1-293.8h-24c-3,0-5.5-2.5-5.5-5.5v-48c0-3,2.5-5.5,5.5-5.5h24c3,0,5.5,2.5,5.5,5.5v48
				C-97.6-296.2-100-293.8-103.1-293.8z M-127.1-349.8c-1.4,0-2.5,1.1-2.5,2.5v48c0,1.4,1.1,2.5,2.5,2.5h24c1.4,0,2.5-1.1,2.5-2.5
				v-48c0-1.4-1.1-2.5-2.5-2.5H-127.1z"/>
		</g>
	</g>
	<g>
		<line class="st3" x1="-973.8" y1="-182.2" x2="-973.8" y2="-180.8"/>
		<line class="st3" x1="-970.5" y1="-182.2" x2="-970.5" y2="-180.8"/>
		<path class="st3" d="M-968.3-186.6c0,1.6-0.9,3.4-2.2,4.3c-0.5,0.4-1.1,0.6-1.7,0.6c-0.6,0-1.1-0.2-1.6-0.5
			c-1.4-0.9-2.3-2.8-2.3-4.4c0-2.2,1.8-3.9,3.9-3.9C-970.1-190.6-968.3-188.8-968.3-186.6z"/>
		<path class="st3" d="M-964.3-175.5l-0.2-0.4c0-0.1,0-0.1,0-0.2l0,0c-0.3-2.5-2.8-3.7-5.5-4.1c-0.7-0.1-2.2,1.8-2.2,1.8
			s-1.5-1.9-2.2-1.8c-2.7,0.5-5.3,1.7-5.5,4.2c0,0,0,0,0,0.1l-0.2,0.4"/>
		<path class="st3" d="M-954.1-151.5h-36c-1.1,0-2-0.9-2-2v-19c0-1.1,0.9-2,2-2h36c1.1,0,2,0.9,2,2v19
			C-952.1-152.4-953-151.5-954.1-151.5z"/>
		<path class="st3" d="M-954.1-195.5h-36c-1.1,0-2-0.9-2-2v-7.8c0-1.1,0.9-2,2-2h36c1.1,0,2,0.9,2,2v7.8
			C-952.1-196.4-953-195.5-954.1-195.5z"/>
		<line class="st3" x1="-988.2" y1="-174.5" x2="-988.2" y2="-194.7"/>
		<line class="st3" x1="-956.2" y1="-174.5" x2="-956.2" y2="-194.7"/>
		<path class="st6" d="M-970.9-164.3h-1.9c-0.6-1.7-2.2-2.9-4-2.9c-2.4,0-4.3,1.9-4.3,4.3c0,2.4,1.9,4.3,4.3,4.3
			c1.7,0,3.2-1,3.9-2.5h8.6c0.1,0,0.2-0.1,0.3-0.1l1.4-1.4c0.1-0.1,0.1-0.2,0.1-0.3c0,0,0,0,0,0c0-0.1-0.1-0.3-0.2-0.4l-2.5-1.7
			c-0.1-0.1-0.3-0.1-0.4-0.1c-0.1,0-0.2,0.1-0.3,0.3l-0.2,0.4l-1.2-0.6c-0.2-0.1-0.4-0.1-0.5,0l-1,0.8c0,0,0,0,0,0l-0.8,0.7
			l-0.9-0.7C-970.7-164.3-970.8-164.3-970.9-164.3z M-977-162.9c0,0.7-0.4,1.2-0.7,1.2c-0.3,0-0.7-0.5-0.7-1.2s0.4-1.2,0.7-1.2
			C-977.4-164.1-977-163.6-977-162.9z"/>
	</g>
	<g>
		<line class="st3" x1="-397.8" y1="250.4" x2="-397.8" y2="251.8"/>
		<line class="st3" x1="-394.5" y1="250.4" x2="-394.5" y2="251.8"/>
		<path class="st3" d="M-392.2,246c0,1.6-0.9,3.4-2.2,4.3c-0.5,0.4-1.1,0.6-1.7,0.6c-0.6,0-1.1-0.2-1.6-0.5
			c-1.4-0.9-2.3-2.8-2.3-4.4c0-2.2,1.8-3.9,3.9-3.9S-392.2,243.8-392.2,246z"/>
		<path class="st3" d="M-388.2,257.2l-0.2-0.4c0-0.1,0-0.1,0-0.2l0,0c-0.3-2.5-2.8-3.7-5.5-4.1c-0.7-0.1-2.2,1.8-2.2,1.8
			s-1.5-1.9-2.2-1.8c-2.7,0.5-5.3,1.7-5.5,4.2c0,0,0,0,0,0.1l-0.2,0.4"/>
		<path class="st3" d="M-378.1,281.1h-36c-1.1,0-2-0.9-2-2v-19c0-1.1,0.9-2,2-2h36c1.1,0,2,0.9,2,2v19
			C-376.1,280.2-377,281.1-378.1,281.1z"/>
		<path class="st3" d="M-378.1,237.1h-36c-1.1,0-2-0.9-2-2v-7.8c0-1.1,0.9-2,2-2h36c1.1,0,2,0.9,2,2v7.8
			C-376.1,236.2-377,237.1-378.1,237.1z"/>
		<line class="st3" x1="-412.2" y1="258.1" x2="-412.2" y2="238"/>
		<line class="st3" x1="-380.2" y1="258.1" x2="-380.2" y2="238"/>
		<path class="st6" d="M-394.8,268.3h-1.9c-0.6-1.7-2.2-2.9-4-2.9c-2.4,0-4.3,1.9-4.3,4.3s1.9,4.3,4.3,4.3c1.7,0,3.2-1,3.9-2.5h8.6
			c0.1,0,0.2-0.1,0.3-0.1l1.4-1.4c0.1-0.1,0.1-0.2,0.1-0.3c0,0,0,0,0,0c0-0.1-0.1-0.3-0.2-0.4l-2.5-1.7c-0.1-0.1-0.3-0.1-0.4-0.1
			c-0.1,0-0.2,0.1-0.3,0.3l-0.2,0.4l-1.2-0.6c-0.2-0.1-0.4-0.1-0.5,0l-1,0.8c0,0,0,0,0,0l-0.8,0.7l-0.9-0.7
			C-394.6,268.3-394.7,268.3-394.8,268.3z M-401,269.7c0,0.7-0.4,1.2-0.7,1.2c-0.3,0-0.7-0.5-0.7-1.2c0-0.7,0.4-1.2,0.7-1.2
			C-401.3,268.5-401,269-401,269.7z"/>
	</g>
	<g>
		<circle class="st3" cx="-108.1" cy="-683.9" r="28"/>
		<g>
			<line class="st8" x1="-120.8" y1="-683.9" x2="-112.3" y2="-675.4"/>
			<line class="st8" x1="-95.3" y1="-692.4" x2="-112.3" y2="-675.4"/>
		</g>
	</g>
	<g>
		<g>
			<circle class="st3" cx="-972.1" cy="-683.9" r="28"/>
		</g>
		<line class="st8" x1="-986.2" y1="-683.7" x2="-958.2" y2="-683.7"/>
		<line class="st8" x1="-972.2" y1="-697.7" x2="-972.2" y2="-669.7"/>
	</g>
	<g>
		<g>
			
				<ellipse transform="matrix(0.7071 -0.7071 0.7071 0.7071 283.227 -684.0576)" class="st3" cx="-684.1" cy="-683.9" rx="28" ry="28"/>
		</g>
		<line class="st8" x1="-693.9" y1="-673.8" x2="-674.1" y2="-693.6"/>
		<line class="st8" x1="-693.9" y1="-693.6" x2="-674.1" y2="-673.8"/>
	</g>
	<g>
		<g>
			<circle class="st3" cx="-396.1" cy="-683.9" r="28"/>
		</g>
		<line class="st8" x1="-410.2" y1="-683.7" x2="-382.2" y2="-683.7"/>
	</g>
	<g>
		<path class="st2" d="M-683-519l11.1,6c2.2,1.2,4.1,1.5,5.2,0.7c1-0.7,1.4-2.5,1-4.9l-2.2-13.3c-0.1-0.7,0.1-1.5,0.6-2l9.1-9.2
			c1.7-1.7,2.5-3.5,2-4.8c-0.4-1.3-2.1-2.3-4.6-2.7l-12.2-1.8c-0.7-0.1-1.4-0.6-1.7-1.3l-5.7-12c-1-2.2-2.4-3.5-3.6-3.5
			c-1.2,0-2.6,1.3-3.6,3.5l-5.7,12c-0.3,0.7-1,1.2-1.7,1.3l-12.2,1.8c-2.5,0.4-4.2,1.4-4.6,2.7c-0.4,1.3,0.3,3.1,2,4.8l9.1,9.2
			c0.5,0.5,0.8,1.3,0.6,2l-2.2,13.4c-0.4,2.4,0,4.2,1,4.9c1.1,0.8,3,0.5,5.2-0.7l11.1-6C-684.6-519.4-683.7-519.4-683-519z"/>
	</g>
	<g>
		<path class="st3" d="M195.3-701l4,0c1,0,1.8-0.8,1.8-1.8l0-4"/>
		<path class="st3" d="M165-666.3l-4,0c-1,0-1.8,0.8-1.8,1.8l0,4"/>
		<path class="st3" d="M204.9-693.9c5.5,13.8-1.2,29.4-15,34.9c-10.3,4.1-21.6,1.4-29-6"/>
		<path class="st3" d="M155-674c-5.5-13.8,1.2-29.4,15-34.9c10.3-4.1,21.6-1.4,29,6"/>
	</g>
	<g>
		<g>
			<line class="st8" x1="16" y1="-683.9" x2="29.3" y2="-670.6"/>
			<line class="st8" x1="56" y1="-697.2" x2="29.3" y2="-670.6"/>
		</g>
	</g>
	<g>
		<line class="st8" x1="-271.8" y1="-683.9" x2="-232.3" y2="-683.9"/>
	</g>
	<g>
		<line class="st8" x1="-847.9" y1="-683.9" x2="-808.4" y2="-683.9"/>
		<line class="st8" x1="-828.1" y1="-703.7" x2="-828.1" y2="-664.2"/>
	</g>
	<g>
		<line class="st8" x1="-554.1" y1="-697.9" x2="-526.1" y2="-670"/>
		<line class="st8" x1="-526.1" y1="-697.9" x2="-554.1" y2="-670"/>
	</g>
	<text transform="matrix(1 0 0 1 -701.7549 -979.2696)" style="font-family:'ProximaNovaT-Thin'; font-size:80px;">RC Icons - Core Set</text>
	
		<text transform="matrix(1 0 0 1 -1007.4614 -748.2832)" class="st11" style="font-family:'ProximaNova-Semibold'; font-size:22px;">STANDARD UI ACTION ICONS</text>
	
		<text transform="matrix(1 0 0 1 -1007.4614 -387.2742)" class="st11" style="font-family:'ProximaNova-Semibold'; font-size:22px;">CORE TRAVEL &amp; VEHICLE ICONS</text>
	<text transform="matrix(1 0 0 1 -1007.4614 -25.7927)" class="st11" style="font-family:'ProximaNova-Semibold'; font-size:22px;">ACCOUNT/CONTACT</text>
	<text transform="matrix(1 0 0 1 -1007.4614 186.6968)" class="st11" style="font-family:'ProximaNova-Semibold'; font-size:22px;">LOCATION</text>
	<text transform="matrix(1 0 0 1 -1007.4614 401.686)" class="st11" style="font-family:'ProximaNova-Semibold'; font-size:22px;">PEOPLE &amp; MOVEMENT</text>
	<text transform="matrix(1 0 0 1 -602.5325 -948.2676)" class="st11" style="font-family:'ProximaNova-Bold'; font-size:24px;">The official icon set for Rentalcars.com</text>
	<g>
		<g>
			<path class="st9" d="M-274.1-1089.5c5.7,0,10.3-4.6,10.3-10.3c0-5.7-4.6-10.3-10.3-10.3s-10.3,4.6-10.3,10.3
				C-284.3-1094.1-279.7-1089.5-274.1-1089.5L-274.1-1089.5L-274.1-1089.5L-274.1-1089.5z M-274.1-1094.5c2.9,0,5.2-2.3,5.2-5.2
				c0-2.9-2.3-5.2-5.2-5.2c-2.9,0-5.2,2.3-5.2,5.2C-279.3-1096.9-277-1094.5-274.1-1094.5L-274.1-1094.5L-274.1-1094.5
				L-274.1-1094.5z M-274.1-1094.5"/>
		</g>
		<g>
			<path class="st9" d="M-309.1-1089.5c1.9,0,3.4-1.5,3.4-3.4s-1.5-3.4-3.4-3.4c-1.9,0-3.4,1.5-3.4,3.4S-311-1089.5-309.1-1089.5
				L-309.1-1089.5z M-310-1089.5"/>
		</g>
		<g>
			<path class="st9" d="M-237-1103.6c-0.5-3.6-3.7-6.4-7.5-6.4c-1.9,0-3.7,0.7-5,1.9c-1.3-1.2-3.1-1.9-5-1.9v0c0,0,0,0,0,0
				c-0.3,0-0.5,0-0.8,0c-0.1,0-0.1,0-0.2,0c-0.2,0-0.4,0.1-0.6,0.1c-0.1,0-0.1,0-0.2,0c-0.2,0-0.4,0.1-0.6,0.1c0,0-0.1,0-0.1,0
				c-0.2,0.1-0.4,0.1-0.6,0.2c0,0,0,0-0.1,0c-0.2,0.1-0.4,0.2-0.6,0.3c0,0,0,0,0,0c-0.5,0.3-1,0.6-1.4,1l0,0c-1.4,1.3-2.3,3-2.5,5
				l0,0.1v0.5v8.1v0.3v4.6h5v-7.9v-5.6c0-1.3,1.1-2.4,2.4-2.4h0v0h0.2c1.3,0,2.4,1.1,2.4,2.4v3.8v9.7h0v0h5v-7.9v-5.6
				c0-1.3,1.1-2.4,2.4-2.4h0.2c1.3,0,2.4,1.1,2.4,2.4v3.8v9.7h5v-13.5C-236.9-1103.2-237-1103.4-237-1103.6z"/>
		</g>
		<g>
			<path class="st10" d="M-289.7-1096.8c-0.1,0.2-0.3,0.4-0.5,0.6c-0.9,1-2.2,1.6-3.7,1.6c-2.8,0-5.1-2.3-5.1-5.1s2.3-5.1,5.1-5.1
				c1.6,0,3,0.7,3.9,1.8c0.2,0.2,0.3,0.4,0.5,0.7l4.3-2.8c-0.3-0.5-0.7-1.1-1.2-1.5c-1.9-2-4.5-3.3-7.5-3.3
				c-5.7,0-10.2,4.6-10.2,10.2s4.6,10.2,10.2,10.2c2.9,0,5.5-1.2,7.3-3.1c0.4-0.4,0.8-0.9,1.1-1.3L-289.7-1096.8z"/>
		</g>
		<path class="st11" d="M-447.9-1096.8c-0.7,0.3-1.4,0.5-2.1,0.5c-2.9,0-5.2-2.3-5.2-5.2v-8.4h8.6v-6.8h-8.6v-6.8h-6.8l0,22
			c0,6.6,5.4,12,12,12c2.2,0,4.2-0.6,5.9-1.6L-447.9-1096.8z"/>
		<g>
			<path class="st11" d="M-431.1-1116.8c-7.5,0-13.6,6.1-13.6,13.6s6.1,13.6,13.6,13.6c2.5,0,4.8-0.7,6.8-1.8v1.8h6.8v-13.3
				c0-0.1,0-0.2,0-0.3C-417.5-1110.7-423.6-1116.8-431.1-1116.8z M-431.1-1096.3c-3.8,0-6.8-3.1-6.8-6.8c0-3.8,3.1-6.8,6.8-6.8
				c3.8,0,6.8,3.1,6.8,6.8C-424.3-1099.4-427.3-1096.3-431.1-1096.3z"/>
		</g>
		<g>
			<path class="st11" d="M-366.4-1116.8c-7.5,0-13.6,6.1-13.6,13.6s6.1,13.6,13.6,13.6c2.5,0,4.8-0.7,6.8-1.8v1.8h6.8v-13.3
				c0-0.1,0-0.2,0-0.3C-352.7-1110.7-358.8-1116.8-366.4-1116.8z M-366.4-1096.3c-3.8,0-6.8-3.1-6.8-6.8s3.1-6.8,6.8-6.8
				s6.8,3.1,6.8,6.8S-362.6-1096.3-366.4-1096.3z"/>
		</g>
		<g>
			<polygon class="st12" points="-415.3,-1089.5 -408.5,-1089.5 -408.5,-1127 -415.3,-1127 -415.3,-1089.8 			"/>
		</g>
		<g>
			<g>
				<path class="st11" d="M-464.2-1089.5h-6.8v-15.3c0-2.9-2.3-5.2-5.2-5.2c-2.9,0-5.2,2.3-5.2,5.2v15.3h-6.8v-15.3
					c0-6.6,5.4-12,12-12c6.6,0,12,5.4,12,12V-1089.5z"/>
			</g>
		</g>
		<g>
			<path class="st11" d="M-387.5-1098.8c-1.2,1.5-3.1,2.4-5.2,2.4c-3.7,0-6.8-3-6.8-6.8c0-3.7,3-6.8,6.8-6.8c2.1,0,3.9,0.9,5.2,2.4
				c0.2,0.3,0.4,0.6,0.6,0.9l5.7-3.8c-0.5-0.7-1-1.4-1.5-2c-2.5-2.7-6.1-4.4-10-4.4c-7.5,0-13.6,6.1-13.6,13.6
				c0,7.5,6.1,13.6,13.6,13.6c4,0,7.5-1.7,10-4.4c0.6-0.6,1.1-1.3,1.5-2l-5.7-3.8C-387.1-1099.4-387.3-1099.1-387.5-1098.8z"/>
		</g>
		<path class="st11" d="M-515.7-1089.5l-3.7-6.7l0,0l-4.1-7.4c3.7-2.7,6.2-7.1,6.2-12.1c0-8.2-6.7-14.9-15-14.9
			c-8.3,0-15,6.7-15,14.9v11.5v3.4v11.2h6.8v-11.2h8.1c0.8,0,1.7-0.1,2.5-0.2l6.3,11.4L-515.7-1089.5z M-540.4-1107.5v-8.1
			c0-4.5,3.6-8.1,8.1-8.1c4.5,0,8.1,3.6,8.1,8.1s-3.6,8.1-8.1,8.1H-540.4z"/>
		<path class="st12" d="M-323.1-1105.8L-323.1-1105.8c0,0-2.1-0.3-3-0.9c-0.1-0.1-0.2-0.2-0.3-0.3c0,0,0-0.1-0.1-0.1
			c-0.4-0.5-0.7-1.1-0.7-1.7l0-0.3c0,0.1,0,0.1,0,0.1c0-0.1,0-0.1,0-0.2l0,0.1c0-0.2,0.1-0.4,0.3-0.7c0.3-0.5,0.9-0.9,1.6-1.1
			c0.4-0.1,0.8-0.2,1.3-0.1c1.8,0,3.6,0.7,4.8,1.2l2.9-5.2c-1.9-0.8-6.1-2.4-9.6-1.7l0,0c-4.4,0.5-7.6,3.6-7.9,7.4
			c-0.2,3.1,1.5,5.9,4.3,7.5c0,0,0,0,0,0c0.1,0.1,0.4,0.2,0.7,0.3c0.1,0,0.1,0.1,0.2,0.1c0.8,0.4,2,0.8,3,0.9c1.2,0.1,1.8,0.3,2,0.3
			c1.3,0.4,2.1,1.4,2,2.5l0,0.3c0-0.1,0-0.1,0-0.1c0,0.1,0,0.1,0,0.2l0-0.1c0,0.2-0.1,0.4-0.3,0.7c-0.3,0.5-0.9,0.9-1.6,1.1
			c-0.4,0.1-0.8,0.2-1.3,0.1c-3.1-0.1-6.2-1.8-6.2-1.8l-3.4,4.9l0.8,0.5c0,0,5.9,3.1,10.6,2.1l0,0c4.4-0.5,7.6-3.6,7.9-7.4
			C-314.7-1101.4-318.1-1105.1-323.1-1105.8z"/>
		<g>
			<path class="st11" d="M-333.8-1115.8c-1.5-0.6-3-1-4.7-1c-6.6,0-12,5.4-12,12v15.2h6.8v-15.2c0-2.9,2.3-5.2,5.2-5.2
				c0.7,0,1.4,0.1,2,0.4"/>
		</g>
		<g>
			<path class="st12" d="M-499.1-1098.1c-0.1,0.1-0.2,0.2-0.2,0.2h0c-1.3,1.1-3,1.8-4.8,1.8c-3.1,0-5.7-1.9-6.9-4.5h10.4h3.3h6.6
				c0.1-0.8,0.2-1.6,0.2-2.5c0-7.5-6.1-13.6-13.6-13.6c-7.5,0-13.6,6.1-13.6,13.6s6.1,13.6,13.6,13.6c5.7,0,10.5-3.5,12.6-8.4h0
				c0-0.1,0-0.1,0.1-0.2H-499.1z M-504.1-1110.5c3,0,5.6,1.9,6.6,4.5h-13.2C-509.7-1108.6-507.1-1110.5-504.1-1110.5z"/>
		</g>
	</g>
	<line class="st13" x1="-1007.1" y1="-862.4" x2="212.9" y2="-862.4"/>
	<text transform="matrix(1 0 0 1 902.2706 -979.2696)" style="font-family:'ProximaNovaT-Thin'; font-size:80px;">RC Icons - Additionals</text>
	<text transform="matrix(1 0 0 1 649.0845 -748.2832)" class="st11" style="font-family:'ProximaNova-Semibold'; font-size:22px;">ADDITIONAL CAR ANGLES/POSITIONS</text>
	<text transform="matrix(1 0 0 1 649.0845 -530.3198)" class="st11" style="font-family:'ProximaNova-Semibold'; font-size:22px;">MISCELLANEOUS</text>
	<text transform="matrix(1 0 0 1 1052.0129 -948.2676)" class="st11" style="font-family:'ProximaNova-Bold'; font-size:24px;">The official icon set for Rentalcars.com</text>
	<g>
		<g>
			<path class="st9" d="M1380.5-1089.5c5.7,0,10.3-4.6,10.3-10.3c0-5.7-4.6-10.3-10.3-10.3s-10.3,4.6-10.3,10.3
				C1370.2-1094.1,1374.8-1089.5,1380.5-1089.5L1380.5-1089.5L1380.5-1089.5L1380.5-1089.5z M1380.5-1094.5c2.9,0,5.2-2.3,5.2-5.2
				c0-2.9-2.3-5.2-5.2-5.2s-5.2,2.3-5.2,5.2C1375.2-1096.9,1377.6-1094.5,1380.5-1094.5L1380.5-1094.5L1380.5-1094.5L1380.5-1094.5z
				 M1380.5-1094.5"/>
		</g>
		<g>
			<path class="st9" d="M1345.4-1089.5c1.9,0,3.4-1.5,3.4-3.4s-1.5-3.4-3.4-3.4s-3.4,1.5-3.4,3.4S1343.5-1089.5,1345.4-1089.5
				L1345.4-1089.5z M1344.5-1089.5"/>
		</g>
		<g>
			<path class="st9" d="M1417.5-1103.6c-0.5-3.6-3.7-6.4-7.5-6.4c-1.9,0-3.7,0.7-5,1.9c-1.3-1.2-3.1-1.9-5-1.9v0c0,0,0,0,0,0
				c-0.3,0-0.5,0-0.8,0c-0.1,0-0.1,0-0.2,0c-0.2,0-0.4,0.1-0.6,0.1c-0.1,0-0.1,0-0.2,0c-0.2,0-0.4,0.1-0.6,0.1c0,0-0.1,0-0.1,0
				c-0.2,0.1-0.4,0.1-0.6,0.2c0,0,0,0-0.1,0c-0.2,0.1-0.4,0.2-0.6,0.3c0,0,0,0,0,0c-0.5,0.3-1,0.6-1.4,1l0,0c-1.4,1.3-2.3,3-2.5,5
				l0,0.1v0.5v8.1v0.3v4.6h5v-7.9v-5.6c0-1.3,1.1-2.4,2.4-2.4h0v0h0.2c1.3,0,2.4,1.1,2.4,2.4v3.8v9.7h0v0h5v-7.9v-5.6
				c0-1.3,1.1-2.4,2.4-2.4h0.2c1.3,0,2.4,1.1,2.4,2.4v3.8v9.7h5v-13.5C1417.6-1103.2,1417.6-1103.4,1417.5-1103.6z"/>
		</g>
		<g>
			<path class="st10" d="M1364.8-1096.8c-0.1,0.2-0.3,0.4-0.5,0.6c-0.9,1-2.2,1.6-3.7,1.6c-2.8,0-5.1-2.3-5.1-5.1s2.3-5.1,5.1-5.1
				c1.6,0,3,0.7,3.9,1.8c0.2,0.2,0.3,0.4,0.5,0.7l4.3-2.8c-0.3-0.5-0.7-1.1-1.2-1.5c-1.9-2-4.5-3.3-7.5-3.3
				c-5.7,0-10.2,4.6-10.2,10.2s4.6,10.2,10.2,10.2c2.9,0,5.5-1.2,7.3-3.1c0.4-0.4,0.8-0.9,1.1-1.3L1364.8-1096.8z"/>
		</g>
		<path class="st11" d="M1206.6-1096.8c-0.7,0.3-1.4,0.5-2.1,0.5c-2.9,0-5.2-2.3-5.2-5.2v-8.4h8.6v-6.8h-8.6v-6.8h-6.8v22
			c0,6.6,5.4,12,12,12c2.2,0,4.2-0.6,5.9-1.6L1206.6-1096.8z"/>
		<g>
			<path class="st11" d="M1223.5-1116.8c-7.5,0-13.6,6.1-13.6,13.6s6.1,13.6,13.6,13.6c2.5,0,4.8-0.7,6.8-1.8v1.8h6.8v-13.3
				c0-0.1,0-0.2,0-0.3C1237.1-1110.7,1231-1116.8,1223.5-1116.8z M1223.5-1096.3c-3.8,0-6.8-3.1-6.8-6.8c0-3.8,3.1-6.8,6.8-6.8
				c3.8,0,6.8,3.1,6.8,6.8C1230.3-1099.4,1227.2-1096.3,1223.5-1096.3z"/>
		</g>
		<g>
			<path class="st11" d="M1288.2-1116.8c-7.5,0-13.6,6.1-13.6,13.6s6.1,13.6,13.6,13.6c2.5,0,4.8-0.7,6.8-1.8v1.8h6.8v-13.3
				c0-0.1,0-0.2,0-0.3C1301.8-1110.7,1295.7-1116.8,1288.2-1116.8z M1288.2-1096.3c-3.8,0-6.8-3.1-6.8-6.8s3.1-6.8,6.8-6.8
				c3.8,0,6.8,3.1,6.8,6.8S1291.9-1096.3,1288.2-1096.3z"/>
		</g>
		<g>
			<polygon class="st12" points="1239.2,-1089.5 1246.1,-1089.5 1246.1,-1127 1239.2,-1127 1239.2,-1089.8 			"/>
		</g>
		<g>
			<g>
				<path class="st11" d="M1190.4-1089.5h-6.8v-15.3c0-2.9-2.3-5.2-5.2-5.2c-2.9,0-5.2,2.3-5.2,5.2v15.3h-6.8v-15.3
					c0-6.6,5.4-12,12-12c6.6,0,12,5.4,12,12V-1089.5z"/>
			</g>
		</g>
		<g>
			<path class="st11" d="M1267-1098.8c-1.2,1.5-3.1,2.4-5.2,2.4c-3.7,0-6.8-3-6.8-6.8c0-3.7,3-6.8,6.8-6.8c2.1,0,3.9,0.9,5.2,2.4
				c0.2,0.3,0.4,0.6,0.6,0.9l5.7-3.8c-0.5-0.7-1-1.4-1.5-2c-2.5-2.7-6.1-4.4-10-4.4c-7.5,0-13.6,6.1-13.6,13.6
				c0,7.5,6.1,13.6,13.6,13.6c4,0,7.5-1.7,10-4.4c0.6-0.6,1.1-1.3,1.5-2l-5.7-3.8C1267.5-1099.4,1267.3-1099.1,1267-1098.8z"/>
		</g>
		<path class="st11" d="M1138.8-1089.5l-3.7-6.7l0,0l-4.1-7.4c3.7-2.7,6.2-7.1,6.2-12.1c0-8.2-6.7-14.9-15-14.9
			c-8.3,0-15,6.7-15,14.9v11.5v3.4v11.2h6.8v-11.2h8.1c0.8,0,1.7-0.1,2.5-0.2l6.3,11.4L1138.8-1089.5z M1114.1-1107.5v-8.1
			c0-4.5,3.6-8.1,8.1-8.1c4.5,0,8.1,3.6,8.1,8.1s-3.6,8.1-8.1,8.1H1114.1z"/>
		<path class="st12" d="M1331.4-1105.8L1331.4-1105.8c0,0-2.1-0.3-3-0.9c-0.1-0.1-0.2-0.2-0.3-0.3c0,0,0-0.1-0.1-0.1
			c-0.4-0.5-0.7-1.1-0.7-1.7l0-0.3c0,0.1,0,0.1,0,0.1c0-0.1,0-0.1,0-0.2l0,0.1c0-0.2,0.1-0.4,0.3-0.7c0.3-0.5,0.9-0.9,1.6-1.1
			c0.4-0.1,0.8-0.2,1.3-0.1c1.8,0,3.6,0.7,4.8,1.2l2.9-5.2c-1.9-0.8-6.1-2.4-9.6-1.7l0,0c-4.4,0.5-7.6,3.6-7.9,7.4
			c-0.2,3.1,1.5,5.9,4.3,7.5c0,0,0,0,0,0c0.1,0.1,0.4,0.2,0.7,0.3c0.1,0,0.1,0.1,0.2,0.1c0.8,0.4,2,0.8,3,0.9c1.2,0.1,1.8,0.3,2,0.3
			c1.3,0.4,2.1,1.4,2,2.5l0,0.3c0-0.1,0-0.1,0-0.1c0,0.1,0,0.1,0,0.2l0-0.1c0,0.2-0.1,0.4-0.3,0.7c-0.3,0.5-0.9,0.9-1.6,1.1
			c-0.4,0.1-0.8,0.2-1.3,0.1c-3.1-0.1-6.2-1.8-6.2-1.8l-3.4,4.9l0.8,0.5c0,0,5.9,3.1,10.6,2.1l0,0c4.4-0.5,7.6-3.6,7.9-7.4
			C1339.9-1101.4,1336.5-1105.1,1331.4-1105.8z"/>
		<g>
			<path class="st11" d="M1320.7-1115.8c-1.5-0.6-3-1-4.7-1c-6.6,0-12,5.4-12,12v15.2h6.8v-15.2c0-2.9,2.3-5.2,5.2-5.2
				c0.7,0,1.4,0.1,2,0.4"/>
		</g>
		<g>
			<path class="st12" d="M1155.5-1098.1c-0.1,0.1-0.2,0.2-0.2,0.2h0c-1.3,1.1-3,1.8-4.8,1.8c-3.1,0-5.7-1.9-6.9-4.5h10.4h3.3h6.6
				c0.1-0.8,0.2-1.6,0.2-2.5c0-7.5-6.1-13.6-13.6-13.6c-7.5,0-13.6,6.1-13.6,13.6s6.1,13.6,13.6,13.6c5.7,0,10.5-3.5,12.6-8.4h0
				c0-0.1,0-0.1,0.1-0.2H1155.5z M1150.4-1110.5c3,0,5.6,1.9,6.6,4.5h-13.2C1144.9-1108.6,1147.4-1110.5,1150.4-1110.5z"/>
		</g>
	</g>
	<line class="st13" x1="647.9" y1="-862.4" x2="1867.9" y2="-862.4"/>
	<g>
		<circle class="st3" cx="1675.1" cy="-669.9" r="5"/>
		<g>
			<path class="st3" d="M1669.1-669.9c0-0.8,0.2-1.6,0.4-2.3h-6.5c-1.1,0-2,0.9-2,2c0,1.1,0.9,2,2,2h6.3
				C1669.1-668.7,1669.1-669.3,1669.1-669.9z"/>
		</g>
		<circle class="st3" cx="1708.1" cy="-669.9" r="5"/>
		<path class="st3" d="M1675.1-697.8v11.1c0,2.2-1.8,4-4,4h-7.5"/>
		<g>
			<path class="st3" d="M1720-672.2h-6.4c0.3,0.7,0.4,1.5,0.4,2.3c0,0.6-0.1,1.2-0.3,1.8h6.2c1.1,0,2-0.9,2-2
				C1722-671.3,1721.1-672.2,1720-672.2z"/>
		</g>
		<path class="st3" d="M1702.3-668.2c-0.2-0.6-0.3-1.1-0.3-1.8c0-0.8,0.2-1.6,0.4-2.3h-21.9c0.3,0.7,0.4,1.5,0.4,2.3
			c0,0.6-0.1,1.2-0.3,1.8H1702.3z"/>
		<path class="st3" d="M1680.6-672.2h3.1v-25.7h-16.2c-2.2,0-4,1.8-4,4v21.7h5.9c-0.3,0.6-0.4,1.3-0.4,2h1c0.1-2.6,2.3-4.8,5-4.8
			c2.7,0,4.8,2.1,5,4.8h1C1681-670.9,1680.9-671.6,1680.6-672.2z"/>
		<path class="st3" d="M1715.6-702.9h-27.8c-2.2,0-4,1.8-4,4v26.7h18.8c-0.3,0.6-0.4,1.3-0.4,2h1c0.1-2.6,2.3-4.8,5-4.8
			c2.7,0,4.8,2.1,5,4.8h1c0-0.7-0.2-1.4-0.4-2h5.9v-26.7C1719.6-701.1,1717.8-702.9,1715.6-702.9z"/>
	</g>
	<g>
		<path class="st3" d="M1231.5-679.2v-1.6c0-3,2.2-5.5,5.1-5.9l7.9-1.1l7.6-8.6c0.8-0.9,1.8-1.3,3-1.3h18.9c1.5,0,2.9,0.9,3.6,2.2
			l3.8,7.7l4.7,1.4c0.8,0.3,1.4,1,1.4,1.9v5.4"/>
		<circle class="st3" cx="1243" cy="-676" r="6"/>
		<g>
			<path class="st3" d="M1237-676c0-0.8,0.2-1.6,0.4-2.3h-6.5c-1.1,0-2,0.9-2,2c0,1.1,0.9,2,2,2h6.3
				C1237.1-674.8,1237-675.4,1237-676z"/>
		</g>
		<circle class="st3" cx="1276" cy="-676" r="6"/>
		<g>
			<path class="st3" d="M1270.3-674.2c-0.2-0.6-0.3-1.1-0.3-1.8c0-0.8,0.2-1.6,0.4-2.3h-21.9c0.3,0.7,0.4,1.5,0.4,2.3
				c0,0.6-0.1,1.2-0.3,1.8H1270.3z"/>
			<path class="st3" d="M1288-678.2h-6.4c0.3,0.7,0.4,1.5,0.4,2.3c0,0.6-0.1,1.2-0.3,1.8h6.2c1.1,0,2-0.9,2-2
				C1290-677.3,1289.1-678.2,1288-678.2z"/>
		</g>
		<line class="st3" x1="1264.8" y1="-687" x2="1264.8" y2="-697"/>
		<polyline class="st3" points="1244.5,-687.9 1247.5,-686.4 1277.8,-686.4 1281.4,-687.9 		"/>
	</g>
	<g>
		<path class="st3" d="M943.5-678.2v-1.6c0-3,2.2-5.5,5.1-5.9l7.9-1.1l7.6-10.3c0.8-1,1.9-1.6,3.2-1.6h26c1.8,0,3.4,1.3,3.9,3
			l2.2,8.9l0.1,1.8v6.9"/>
		<circle class="st3" cx="955" cy="-675" r="6"/>
		<g>
			<path class="st3" d="M949-675c0-0.8,0.2-1.6,0.4-2.3h-6.5c-1.1,0-2,0.9-2,2c0,1.1,0.9,2,2,2h6.3C949.1-673.8,949-674.4,949-675z"
				/>
		</g>
		<circle class="st3" cx="988" cy="-675" r="6"/>
		<g>
			<path class="st3" d="M982.2-673.2c-0.2-0.6-0.3-1.1-0.3-1.8c0-0.8,0.2-1.6,0.4-2.3h-21.9c0.3,0.7,0.4,1.5,0.4,2.3
				c0,0.6-0.1,1.2-0.3,1.8H982.2z"/>
			<path class="st3" d="M999.9-677.2h-6.4c0.3,0.7,0.4,1.5,0.4,2.3c0,0.6-0.1,1.2-0.3,1.8h6.2c1.1,0,2-0.9,2-2
				C1001.9-676.3,1001-677.2,999.9-677.2z"/>
		</g>
		<line class="st3" x1="971.8" y1="-686" x2="971.8" y2="-698"/>
		<line class="st3" x1="987.8" y1="-686" x2="987.8" y2="-698"/>
		<polyline class="st3" points="956.5,-686.9 959.4,-685.4 989.8,-685.4 999.4,-686.9 		"/>
	</g>
	<g>
		<path class="st3" d="M655.5-678.2v-2.7c0-2.5,1.5-4.7,3.9-5.6l1.1-0.4l2.9-9.2c0.5-1.7,2.1-2.8,3.8-2.8h38.1c1.8,0,3.4,1.3,3.9,3
			l2.2,8.9l0.1,1.8v6.9"/>
		<circle class="st3" cx="667" cy="-675" r="6"/>
		<g>
			<path class="st3" d="M661-675c0-0.8,0.2-1.6,0.4-2.3h-6.5c-1.1,0-2,0.9-2,2c0,1.1,0.9,2,2,2h6.3C661-673.8,661-674.4,661-675z"/>
		</g>
		<circle class="st3" cx="700" cy="-675" r="6"/>
		<g>
			<path class="st3" d="M694.2-673.2c-0.2-0.6-0.3-1.1-0.3-1.8c0-0.8,0.2-1.6,0.4-2.3h-21.9c0.3,0.7,0.4,1.5,0.4,2.3
				c0,0.6-0.1,1.2-0.3,1.8H694.2z"/>
			<path class="st3" d="M711.9-677.2h-6.4c0.3,0.7,0.4,1.5,0.4,2.3c0,0.6-0.1,1.2-0.3,1.8h6.2c1.1,0,2-0.9,2-2
				C713.9-676.3,713-677.2,711.9-677.2z"/>
		</g>
		<line class="st3" x1="675.8" y1="-686" x2="675.8" y2="-698"/>
		<line class="st3" x1="691.8" y1="-686" x2="691.8" y2="-698"/>
		<polyline class="st3" points="661.5,-686.9 664.4,-685.4 701.8,-685.4 711.4,-686.9 		"/>
	</g>
	<g>
		<path class="st3" d="M799.5-679.7v-1.2c0-3.2,2.4-5.8,5.6-6l7.4-0.5l7.6-8.6c0.8-0.9,1.8-1.3,3-1.3h26.5c1.7,0,3.3,1.1,3.8,2.8
			l2,6.2l0.1,2.8v5.9"/>
		<circle class="st3" cx="811" cy="-676.5" r="6"/>
		<g>
			<path class="st3" d="M805-676.5c0-0.8,0.2-1.6,0.4-2.3h-6.5c-1.1,0-2,0.9-2,2c0,1.1,0.9,2,2,2h6.3
				C805.1-675.3,805-675.9,805-676.5z"/>
		</g>
		<circle class="st3" cx="844" cy="-676.5" r="6"/>
		<g>
			<path class="st3" d="M838.2-674.7c-0.2-0.6-0.3-1.1-0.3-1.8c0-0.8,0.2-1.6,0.4-2.3h-21.9c0.3,0.7,0.4,1.5,0.4,2.3
				c0,0.6-0.1,1.2-0.3,1.8H838.2z"/>
			<path class="st3" d="M855.9-678.7h-6.4c0.3,0.7,0.4,1.5,0.4,2.3c0,0.6-0.1,1.2-0.3,1.8h6.2c1.1,0,2-0.9,2-2
				C857.9-677.8,857-678.7,855.9-678.7z"/>
		</g>
		<line class="st3" x1="827.8" y1="-688.5" x2="827.8" y2="-696.5"/>
		<line class="st3" x1="843.8" y1="-688.5" x2="843.8" y2="-696.5"/>
		<polyline class="st3" points="812.5,-687.4 815.4,-686.9 849.8,-686.9 855.4,-687.4 		"/>
	</g>
	<g>
		<path class="st3" d="M1375.5-675.2v-6.6c0-2.5,1.6-4.8,4-5.6l4-1.5l3.4-9c0.9-2.3,3.1-3.9,5.6-3.9h29.8c2.5,0,4.8,1.6,5.7,4
			l3.5,9.9l0.1,5.8v6.9"/>
		<circle class="st3" cx="1387" cy="-672" r="6"/>
		<g>
			<path class="st3" d="M1381-672c0-0.8,0.2-1.6,0.4-2.3h-6.5c-1.1,0-2,0.9-2,2c0,1.1,0.9,2,2,2h6.3
				C1381.1-670.8,1381-671.4,1381-672z"/>
		</g>
		<circle class="st3" cx="1420" cy="-672" r="6"/>
		<g>
			<path class="st3" d="M1414.3-670.2c-0.2-0.6-0.3-1.1-0.3-1.8c0-0.8,0.2-1.6,0.4-2.3h-21.9c0.3,0.7,0.4,1.5,0.4,2.3
				c0,0.6-0.1,1.2-0.3,1.8H1414.3z"/>
			<path class="st3" d="M1432-674.2h-6.4c0.3,0.7,0.4,1.5,0.4,2.3c0,0.6-0.1,1.2-0.3,1.8h6.2c1.1,0,2-0.9,2-2
				C1434-673.3,1433.1-674.2,1432-674.2z"/>
		</g>
		<line class="st3" x1="1398.8" y1="-687" x2="1398.8" y2="-700.7"/>
		<polyline class="st3" points="1383.5,-688.9 1387.4,-686.4 1426.4,-686.4 1431.4,-687.9 		"/>
	</g>
	<g>
		<path class="st3" d="M1519.5-678.2v-2.3c0-2.7,1.8-5,4.3-5.8l5.7-1.6l3.8-8.5c0.6-1.4,2.1-2.4,3.7-2.4h27.8c1.6,0,3.1,1,3.7,2.5
			l2.9,7.4l3.4,3.2c0.4,0.4,0.6,0.9,0.6,1.5v6"/>
		<circle class="st3" cx="1531" cy="-675" r="6"/>
		<g>
			<path class="st3" d="M1525-675c0-0.8,0.2-1.6,0.4-2.3h-6.5c-1.1,0-2,0.9-2,2c0,1.1,0.9,2,2,2h6.3
				C1525.1-673.8,1525-674.4,1525-675z"/>
		</g>
		<circle class="st3" cx="1564" cy="-675" r="6"/>
		<g>
			<path class="st3" d="M1558.3-673.2c-0.2-0.6-0.3-1.1-0.3-1.8c0-0.8,0.2-1.6,0.4-2.3h-21.9c0.3,0.7,0.4,1.5,0.4,2.3
				c0,0.6-0.1,1.2-0.3,1.8H1558.3z"/>
			<path class="st3" d="M1576-677.2h-6.4c0.3,0.7,0.4,1.5,0.4,2.3c0,0.6-0.1,1.2-0.3,1.8h6.2c1.1,0,2-0.9,2-2
				C1578-676.3,1577.1-677.2,1576-677.2z"/>
		</g>
		<line class="st3" x1="1546.9" y1="-686" x2="1546.9" y2="-697.9"/>
		<polyline class="st3" points="1529.5,-687.9 1532,-685.4 1569.5,-685.4 1571.9,-688.5 		"/>
	</g>
	<g>
		<path class="st3" d="M1087.5-676.2v-6.6c0-3,2.2-5.5,5.2-5.9l8.8-1.2l6.6-9.3c0.8-1,2-1.7,3.3-1.7h5.4c2.1,0,3.8,1.6,4,3.7
			l0.6,7.3l20.2,0.7c1.1,0,1.9,0.9,1.9,2v11"/>
		<circle class="st3" cx="1099" cy="-673" r="6"/>
		<g>
			<path class="st3" d="M1093-673c0-0.8,0.2-1.6,0.4-2.3h-6.5c-1.1,0-2,0.9-2,2c0,1.1,0.9,2,2,2h6.3
				C1093.1-671.8,1093-672.4,1093-673z"/>
		</g>
		<circle class="st3" cx="1132" cy="-673" r="6"/>
		<g>
			<path class="st3" d="M1126.3-671.2c-0.2-0.6-0.3-1.1-0.3-1.8c0-0.8,0.2-1.6,0.4-2.3h-21.9c0.3,0.7,0.4,1.5,0.4,2.3
				c0,0.6-0.1,1.2-0.3,1.8H1126.3z"/>
			<path class="st3" d="M1143.9-675.2h-6.4c0.3,0.7,0.4,1.5,0.4,2.3c0,0.6-0.1,1.2-0.3,1.8h6.2c1.1,0,2-0.9,2-2
				C1145.9-674.3,1145-675.2,1143.9-675.2z"/>
		</g>
		<polyline class="st3" points="1101.5,-689.9 1104.1,-687.4 1118.1,-687.4 1121.4,-689.9 		"/>
	</g>
	<g>
		
			<ellipse transform="matrix(0.7071 -0.7071 0.7071 0.7071 225.9329 -545.7488)" class="st2" cx="-545.8" cy="-545.6" rx="21.8" ry="21.8"/>
		<line class="st8" x1="-529.2" y1="-529" x2="-512.6" y2="-512.4"/>
	</g>
	<g>
		<path class="st2" d="M-238.1,63.8h-28c-3.3,0-6-2.7-6-6V14.2c0-3.3,2.7-6,6-6h28c3.3,0,6,2.7,6,6v43.6
			C-232.1,61.1-234.8,63.8-238.1,63.8z"/>
		<line class="st7" x1="-260.5" y1="15.8" x2="-244.3" y2="15.8"/>
		<circle class="st6" cx="-252.2" cy="56.3" r="3"/>
	</g>
	<g>
		<line class="st3" x1="-684.1" y1="-207.7" x2="-684.1" y2="-151.7"/>
		<line class="st3" x1="-712.1" y1="-179.7" x2="-656.1" y2="-179.7"/>
		<line class="st3" x1="-684.1" y1="-199.7" x2="-675.8" y2="-207.9"/>
		<line class="st3" x1="-684.1" y1="-199.7" x2="-692.1" y2="-207.7"/>
		<line class="st3" x1="-664.1" y1="-179.9" x2="-655.8" y2="-171.7"/>
		<line class="st3" x1="-664.1" y1="-179.9" x2="-656" y2="-187.9"/>
		<line class="st3" x1="-683.8" y1="-159.9" x2="-692.1" y2="-151.7"/>
		<line class="st3" x1="-683.8" y1="-159.9" x2="-675.8" y2="-151.9"/>
		<line class="st3" x1="-703.8" y1="-179.7" x2="-712.1" y2="-187.9"/>
		<line class="st3" x1="-703.8" y1="-179.7" x2="-711.8" y2="-171.7"/>
		<line class="st3" x1="-664.3" y1="-199.6" x2="-703.9" y2="-160"/>
		<line class="st3" x1="-703.9" y1="-199.6" x2="-664.3" y2="-160"/>
		<line class="st3" x1="-670" y1="-193.9" x2="-658.3" y2="-193.9"/>
		<line class="st3" x1="-670" y1="-193.9" x2="-670" y2="-205.3"/>
		<line class="st3" x1="-669.8" y1="-165.8" x2="-669.8" y2="-154.2"/>
		<line class="st3" x1="-669.8" y1="-165.8" x2="-658.5" y2="-165.8"/>
		<line class="st3" x1="-697.9" y1="-165.7" x2="-709.6" y2="-165.7"/>
		<line class="st3" x1="-697.9" y1="-165.7" x2="-697.9" y2="-154.3"/>
		<line class="st3" x1="-698.1" y1="-193.8" x2="-698.1" y2="-205.4"/>
		<line class="st3" x1="-698.1" y1="-193.8" x2="-709.4" y2="-193.8"/>
	</g>
	<g>
		<line class="st3" x1="-568.1" y1="-207.4" x2="-568.1" y2="-151.4"/>
		<line class="st3" x1="-540.1" y1="-207.4" x2="-540.1" y2="-151.4"/>
		<line class="st3" x1="-512.1" y1="-207.4" x2="-512.1" y2="-178.8"/>
		<line class="st3" x1="-512.1" y1="-178.8" x2="-568.1" y2="-178.8"/>
		<circle class="st6" cx="-540.1" cy="-178.8" r="9"/>
	</g>
	<g>
		<g>
			<line class="st3" x1="-120.9" y1="36.9" x2="-120.9" y2="39.5"/>
			<line class="st3" x1="-115.8" y1="36.9" x2="-115.8" y2="39.5"/>
			<path class="st3" d="M-130.4,48c0-4.2,4.1-8,8.5-8.7c1.2-0.2,3.4,2.7,3.4,2.7s2.3-2.9,3.4-2.7c4.4,0.7,8.5,4.4,8.5,8.7H-130.4z"
				/>
			<path class="st3" d="M-112.4,30.1c0,2.4-1.4,5.2-3.4,6.6c-0.8,0.6-1.7,0.9-2.6,0.9c-0.9,0-1.7-0.3-2.5-0.8
				c-2.1-1.4-3.6-4.3-3.6-6.7c0-3.3,2.7-6.1,6.1-6.1C-115.1,24-112.4,26.8-112.4,30.1z"/>
		</g>
		<path class="st3" d="M-85.9,55.8h-44.4c-3.3,0-6-2.7-6-6V22.2c0-3.3,2.7-6,6-6h44.4c3.3,0,6,2.7,6,6v27.6
			C-79.9,53.1-82.6,55.8-85.9,55.8z"/>
		<line class="st3" x1="-101.4" y1="25.4" x2="-92.4" y2="25.4"/>
		<line class="st3" x1="-101.4" y1="35.4" x2="-86.4" y2="35.4"/>
		<line class="st3" x1="-101.4" y1="45.3" x2="-86.4" y2="45.3"/>
	</g>
	<g>
		<path class="st2" d="M705.4-444.2h-44c-3.3,0-6-2.7-6-6v-28c0-3.3,2.7-6,6-6h44c3.3,0,6,2.7,6,6v28
			C711.4-446.9,708.7-444.2,705.4-444.2z"/>
		<circle class="st2" cx="691.1" cy="-464.2" r="12.3"/>
		<circle class="st2" cx="665.4" cy="-473.4" r="3"/>
		<line class="st7" x1="663.4" y1="-451.2" x2="663.4" y2="-464.2"/>
		<path class="st7" d="M703.4-485.2v-3.3c0-1.6-1.3-3-3-3h-18.6c-1.6,0-3,1.4-3,3v3.3"/>
		<path class="st7" d="M672.4-485.2v-0.3c0-1.6-1.4-3-3-3h-2.6c-1.7,0-3,1.4-3,3v0.3"/>
	</g>
	<g>
		<path class="st2" d="M-238.1-513.9h-28c-3.3,0-6-2.7-6-6v-23.8c0-3.3,2.7-6,6-6h28c3.3,0,6,2.7,6,6v23.8
			C-232.1-516.6-234.8-513.9-238.1-513.9z"/>
		<circle class="st3" cx="-252.2" cy="-537.3" r="3"/>
		<line class="st3" x1="-252.2" y1="-534.3" x2="-252.2" y2="-525.4"/>
		<path class="st2" d="M-264.3-549.7v-8.2c0-4.4,3.6-8,8-8h8c4.4,0,8,3.6,8,8l0,0v8.4"/>
	</g>
	<g>
		<path class="st2" d="M-382.1-431.9h-28c-3.3,0-6-2.7-6-6v-23.8c0-3.3,2.7-6,6-6h28c3.3,0,6,2.7,6,6v23.8
			C-376.1-434.6-378.8-431.9-382.1-431.9z"/>
		<path class="st2" d="M-384.3-467.7h-24v-12.2c0-4.4,3.6-8,8-8h8c4.4,0,8,3.6,8,8l0,0v3.4"/>
		<circle class="st3" cx="-396.2" cy="-455.2" r="3"/>
		<line class="st3" x1="-396.2" y1="-452.2" x2="-396.2" y2="-443.4"/>
	</g>
	<path class="st7" d="M-825.5,463.1l2.7,2l5.2,3.5c1.3,1.1,1.4,3,0.3,4.2c-0.6,0.7-1.4,1-2.3,1c-0.7,0-1.4-0.2-2-0.7l-5.2-3.6"/>
	<path class="st3" d="M-821.6,446.1c0,2.2-1.3,4.7-3.1,6c-0.7,0.5-1.5,0.8-2.4,0.8c-0.8,0-1.6-0.3-2.3-0.7c-1.9-1.2-3.2-3.9-3.2-6.1
		c0-3,2.5-5.5,5.5-5.5C-824,440.6-821.6,443.1-821.6,446.1z"/>
	<g>
		<path class="st3" d="M-830.1,483.5l-0.1,0.6l-1.4,8.4c-0.3,1.4-1.5,2.4-2.9,2.4c-0.2,0-0.4,0-0.6-0.1c-1.6-0.3-2.7-1.9-2.4-3.5
			l2.5-13l0.5-2.6"/>
	</g>
	<g>
		<path class="st7" d="M-834.6,475.8l0.6,0.9l10.1,16.8c0.6,0.7,1.4,1,2.2,1c0.7,0,1.4-0.2,1.9-0.7c1.3-1.1,1.3-3.2,0.2-4.4
			l-8.6-15.2l0.1-0.4l2.9-15c0.3-1.8-1.6-3.2-3-3.6c0,0-3.3-0.7-4.7,0.7l-0.4,0.4l-5.7,5.4c-0.4,0.4-0.6,0.9-0.6,1.4
			c-0.1,0.5-0.1,1,0,1.5l1.3,7.7c0.4,1.6,2.1,2.5,3.7,2.1c0.2-0.1,0.4-0.1,0.5-0.2c1.3-0.6,1.9-2.1,1.6-3.5l-1-6l2.8-2.6"/>
	</g>
	<g>
		<circle class="st6" cx="14" cy="-539.9" r="6"/>
		<circle class="st6" cx="36" cy="-539.9" r="6"/>
		<circle class="st6" cx="58" cy="-539.9" r="6"/>
	</g>
	<g>
		<circle class="st6" cx="-122.4" cy="-539.1" r="3"/>
		<circle class="st6" cx="-108.4" cy="-539.1" r="3"/>
		<circle class="st6" cx="-93.4" cy="-539.1" r="3"/>
		<circle class="st2" cx="-108.1" cy="-539.9" r="28"/>
	</g>
	<g>
		<line class="st3" x1="-365.6" y1="-151.4" x2="-426.6" y2="-151.4"/>
		<line class="st3" x1="-396.4" y1="-162.2" x2="-396.4" y2="-207.4"/>
		<polyline class="st3" points="-411.9,-174.9 -396.4,-159.4 -381,-174.9 		"/>
	</g>
	<g>
		<line class="st3" x1="-282.6" y1="-207.4" x2="-221.6" y2="-207.4"/>
		<line class="st3" x1="-251.7" y1="-196.6" x2="-251.7" y2="-151.4"/>
		<polyline class="st3" points="-236.2,-183.9 -251.7,-199.4 -267.2,-183.9 		"/>
	</g>
	<g>
		<circle class="st2" cx="-108.1" cy="-179.4" r="6"/>
		<circle class="st2" cx="-108.1" cy="-179.4" r="28"/>
		<line class="st14" x1="-108.1" y1="-151.4" x2="-108.1" y2="-174.4"/>
		<line class="st14" x1="-113.5" y1="-179.4" x2="-136.1" y2="-179.4"/>
		<line class="st14" x1="-80.1" y1="-179.4" x2="-102.1" y2="-179.4"/>
	</g>
	<g>
		<path class="st3" d="M1143.3-474.3v29.7c0,3.3-2.7,6-6,6h-44c-3.3,0-6-2.7-6-6v-44c0-3.3,2.7-6,6-6h29.7"/>
		<g>
			<path class="st3" d="M1106.5-468.8l26.1-26.1c2.7-2.7,7.1-2.7,9.8,0l0,0c2.7,2.7,2.7,7.1,0,9.8l-26.1,26.1"/>
			<path class="st3" d="M1116.3-459.1l-6.9,0.9c-2,0-3.7-1.6-3.7-3.7l0.8-7"/>
			<line class="st3" x1="1111.3" y1="-471.8" x2="1119.9" y2="-463.2"/>
		</g>
	</g>
	<g>
		<path class="st15" d="M954.5-447.9h-4.6c-3.3,0-6-2.7-6-6v-28c0-3.3,2.7-6,6-6h44c3.3,0,6,2.7,6,6v28c0,3.3-2.7,6-6,6h-5.1"/>
		<path class="st15" d="M991.9-488.3v-1.6c0-3.3-2.7-6-6-6h-28c-3.3,0-6,2.7-6,6v1.6"/>
		<circle class="st15" cx="988.7" cy="-477.1" r="3"/>
		<line class="st15" x1="951.9" y1="-463.6" x2="991.7" y2="-463.6"/>
		<path class="st15" d="M988-462.7v16.8c0,3.3-2.7,6-6,6h-20.5c-3.3,0-6-2.7-6-6v-16.8"/>
		<line class="st15" x1="963.6" y1="-457.7" x2="979.6" y2="-457.7"/>
		<line class="st15" x1="963.6" y1="-452.7" x2="971.6" y2="-452.7"/>
	</g>
	<g>
		<circle class="st16" cx="1259.9" cy="-467.9" r="28.1"/>
		<path class="st16" d="M1268.2-451.6c0,7.6-2.8,11.5-10.4,11.5c-3.9,0-1.1-7.6-3.6-10.2c-2.4-2.5-8-3.3-8-7c0-3.5,0.8-6.7,2.5-9.1
			c1.9-2.9,10.4-2.4,14.6-2.4c3.7,0,6.2,3.8,8.7,6.2C1274.6-460.2,1268.2-455.5,1268.2-451.6z"/>
		<path class="st17" d="M1255.7-495.6c0,0-3.1,3.4-3.3,4.9c-0.1,1.5,2,3.1,2.8,3c0.9-0.2,2.2-1.2,2.4-2.7c0.2-1.4-1.6-4.9-1.6-4.9"
			/>
		<path class="st17" d="M1267.8-494.6c0,0,1.8,4.9,1.9,6.4c0.1,1.5-7.5,1.6-8.4,1.4c-0.9-0.2,3.1-6.6,3-8.1"/>
		<path class="st17" d="M1286.5-473.9l-8.7,7.7c0,0-4.7-4.7-6.8-6c-1.4-1-3.2-3-7.7-3.3c-4.4-0.5-4.9,1.7-8.2,1
			c-3.3-0.7-4.2-3.2-1.7-5.7c2.4-2.4,6.1-2.2,6.1-2.2l7.5,1.9c0,0,4.7,0,5.9-2.1c1.2-2.1,5.4-6.1,5.4-6.1"/>
	</g>
	<g>
		<g>
			<path class="st18" d="M1429.6-482.9h-51c-0.8,0-1.5-0.7-1.5-1.5s0.7-1.5,1.5-1.5h51c0.8,0,1.5,0.7,1.5,1.5
				S1430.5-482.9,1429.6-482.9z"/>
		</g>
		<g>
			<path class="st18" d="M1416.8-466.4h-38.2c-0.8,0-1.5-0.7-1.5-1.5s0.7-1.5,1.5-1.5h38.2c0.8,0,1.5,0.7,1.5,1.5
				S1417.6-466.4,1416.8-466.4z"/>
		</g>
		<g>
			<path class="st18" d="M1429.6-449.9h-51c-0.8,0-1.5-0.7-1.5-1.5s0.7-1.5,1.5-1.5h51c0.8,0,1.5,0.7,1.5,1.5
				S1430.5-449.9,1429.6-449.9z"/>
		</g>
	</g>
	<g>
		<path class="st18" d="M-240.5,239.3l-25.3,13.8c-0.5,0.3-0.9,0.9-0.8,1.5s0.5,1.1,1.1,1.3l8.2,1.9l2.2,8.5c0.2,0.6,0.7,1,1.3,1.1
			c0.1,0,0.1,0,0.2,0c0.5,0,1.1-0.3,1.3-0.8l13.8-25.3c0.3-0.6,0.2-1.3-0.3-1.8C-239.2,239-239.9,238.9-240.5,239.3z M-253.1,261.8
			l-1.5-5.7c-0.1-0.5-0.6-1-1.1-1.1l-5.2-1.2l17.4-9.5L-253.1,261.8z"/>
		<path class="st18" d="M-230.4,223.7h-44c-4.1,0-7.5,3.4-7.5,7.5v44c0,4.1,3.4,7.5,7.5,7.5h44c4.1,0,7.5-3.4,7.5-7.5v-44
			C-222.9,227.1-226.3,223.7-230.4,223.7z M-225.9,275.2c0,2.5-2,4.5-4.5,4.5h-44c-2.5,0-4.5-2-4.5-4.5v-44c0-2.5,2-4.5,4.5-4.5h44
			c2.5,0,4.5,2,4.5,4.5V275.2z"/>
	</g>
	<g>
		<path class="st3" d="M1563.6-480h-31.5c-2.3,0-4.3-1.9-4.3-4.3l0,0c0-2.3,1.9-4.3,4.3-4.3h31.5c2.3,0,4.3,1.9,4.3,4.3l0,0
			C1567.9-482,1565.9-480,1563.6-480z"/>
		<path class="st3" d="M1531.5-479.3v33.1c0,3.3,2.7,6,6,6h20.7c3.3,0,6-2.7,6-6v-33.1"/>
		<g>
			<line class="st3" x1="1539.9" y1="-471" x2="1539.9" y2="-450.7"/>
			<line class="st3" x1="1547.9" y1="-471" x2="1547.9" y2="-450.7"/>
			<line class="st3" x1="1555.9" y1="-471" x2="1555.9" y2="-450.7"/>
		</g>
		<path class="st3" d="M1555.9-489.6c0-3.3-2.7-6-6-6h-4c-3.3,0-6,2.7-6,6"/>
	</g>
	<g>
		<g>
			<g>
				<ellipse transform="matrix(0.5 -0.866 0.866 0.5 1241.2104 1214.0645)" class="st19" cx="1672" cy="-467.9" rx="8.5" ry="8.5"/>
				
					<ellipse transform="matrix(0.5 -0.866 0.866 0.5 1241.2104 1258.1177)" class="st19" cx="1710.2" cy="-445.9" rx="8.5" ry="8.5"/>
				<line class="st19" x1="1679.4" y1="-463.7" x2="1702.8" y2="-450.1"/>
			</g>
			<g>
				<ellipse transform="matrix(0.866 -0.5 0.5 0.866 474.0759 789.447)" class="st19" cx="1710.2" cy="-489.9" rx="8.5" ry="8.5"/>
				<ellipse transform="matrix(0.866 -0.5 0.5 0.866 457.9514 773.3224)" class="st19" cx="1672" cy="-467.9" rx="8.5" ry="8.5"/>
				<line class="st19" x1="1702.8" y1="-485.7" x2="1679.4" y2="-472.1"/>
			</g>
		</g>
	</g>
	<path class="st6" d="M1866.2-482c-1.1-1.2-3-1.4-4.2-0.3l-25.7,22.7l-26.3-23c-1.2-1.1-3.1-1-4.2,0.3c-1.1,1.2-1,3.1,0.3,4.2
		l28.3,24.7c0.6,0.5,1.3,0.7,2,0.7c0.7,0,1.4-0.3,2-0.8l27.7-24.5C1867.2-478.9,1867.3-480.8,1866.2-482z"/>
	<path class="st6" d="M1866-385.8l-28.3-24.7c-0.6-0.5-1.3-0.7-2-0.7c-0.7,0-1.4,0.3-2,0.8L1806-386c-1.2,1.1-1.4,3-0.3,4.2
		c1.1,1.2,3,1.4,4.2,0.3l25.7-22.7l26.3,23c1.2,1.1,3.1,1,4.2-0.3C1867.3-382.8,1867.2-384.7,1866-385.8z"/>
	<path class="st6" d="M1850.6-326.2l-24.5-27.7c-1.1-1.2-3-1.4-4.2-0.3c-1.2,1.1-1.4,3-0.3,4.2l22.7,25.7l-23,26.3
		c-1.1,1.2-1,3.1,0.3,4.2c1.2,1.1,3.1,1,4.2-0.3l24.7-28.3c0.5-0.6,0.7-1.3,0.7-2C1851.3-324.9,1851.1-325.6,1850.6-326.2z"/>
	<path class="st6" d="M1827.6-251.6l23-26.3c1.1-1.2,1-3.1-0.3-4.2c-1.2-1.1-3.1-1-4.2,0.3l-24.7,28.3c-0.5,0.6-0.7,1.3-0.7,2
		c0,0.7,0.3,1.4,0.8,2l24.5,27.7c1.1,1.2,3,1.4,4.2,0.3c1.2-1.1,1.4-3,0.3-4.2L1827.6-251.6z"/>
	<path class="st2" d="M698.4-301.7h-28c-3.3,0-6-2.7-6-6l2-19.5c0-3.3,2.7-6,6-6h24c3.3,0,6,2.7,6,6l2,19.5
		C704.4-304.4,701.7-301.7,698.4-301.7z"/>
	<circle class="st2" cx="684.3" cy="-317.4" r="9.6"/>
	<circle class="st6" cx="684.3" cy="-317.4" r="3"/>
	<line class="st3" x1="672.4" y1="-333.2" x2="672.4" y2="-337.2"/>
	<line class="st3" x1="696.3" y1="-333.2" x2="696.3" y2="-337.2"/>
	<path class="st2" d="M710-341.2c-0.2-0.2-0.4-0.3-0.7-0.4c-6.9-2.9-15.6-4.5-24.5-4.5c-9.4,0-18.5,1.8-25.5,4.9
		c-0.8,0.3-1.3,1-1.6,1.7c-0.6,0.8-0.9,1.8-0.9,2.9c0,2.8,2.3,5.1,5.1,5.1c2.8,0,5.1-2.3,5.1-5.1c0-0.3,0-0.7-0.1-1
		c5.4-1.6,11.6-2.5,18-2.5c6.2,0,12.3,0.8,17.5,2.4c0,0.3-0.1,0.5-0.1,0.8c0,2.8,2.3,5.1,5.1,5.1c2.8,0,5.1-2.3,5.1-5.1
		C712.3-338.7,711.4-340.3,710-341.2z"/>
	<g>
		<path class="st18" d="M818.5-342.1c0.4,0,0.8-0.1,1.1-0.4l6.9-6.9v36.4c0,0.8,0.7,1.5,1.5,1.5s1.5-0.7,1.5-1.5v-36.4l6.9,6.9
			c0.6,0.6,1.5,0.6,2.1,0s0.6-1.5,0-2.1l-9.5-9.5c-0.3-0.3-0.7-0.4-1.1-0.4s-0.8,0.2-1.1,0.4l-9.5,9.5c-0.6,0.6-0.6,1.5,0,2.1
			C817.7-342.3,818.1-342.1,818.5-342.1z"/>
		<path class="st18" d="M846-337.3h-10.3c-0.8,0-1.5,0.7-1.5,1.5s0.7,1.5,1.5,1.5H846c2.5,0,4.5,2,4.5,4.5v29c0,2.5-2,4.5-4.5,4.5
			h-36c-2.5,0-4.5-2-4.5-4.5v-29c0-2.5,2-4.5,4.5-4.5h9.9c0.8,0,1.5-0.7,1.5-1.5s-0.7-1.5-1.5-1.5H810c-4.1,0-7.5,3.4-7.5,7.5v29
			c0,4.1,3.4,7.5,7.5,7.5h36c4.1,0,7.5-3.4,7.5-7.5v-29C853.5-333.9,850.1-337.3,846-337.3z"/>
	</g>
	<g>
		<path class="st3" d="M967.7-328.3"/>
		<g>
			<path class="st3" d="M987.5-318.9c-2.1-3.6-5.8-5.3-10-5.8c-2.5-0.3-1.4-3.5-1.4-3.5"/>
			<path class="st3" d="M967.7-328.2c0,0,1.1,3.2-1.4,3.5c-4.4,0.5-8.2,2.2-10.2,6.1"/>
		</g>
		<path class="st3" d="M967.7-328.3c-3.5-2.3-5.9-7.1-5.9-11.2c0-5.6,4.5-10.1,10.1-10.1c5.6,0,10.1,4.5,10.1,10.1
			c0,4.1-2.4,8.9-5.9,11.2"/>
		<path class="st3" d="M990.9-298.3H953c-0.5,0-1-0.4-1-1V-317c0-0.6,0.5-1,1-1h37.9c0.5,0,1,0.4,1,1v17.8
			C991.9-298.7,991.4-298.3,990.9-298.3z"/>
		<path class="st20" d="M951.6-304h0.6c0.7,0,1.3-0.6,1.3-1.3v-5c0-0.7-0.6-1.3-1.3-1.3h-0.6c-0.7,0-1.3,0.6-1.3,1.3v5
			C950.4-304.6,950.9-304,951.6-304z"/>
		<path class="st21" d="M991.6-304h0.6c0.7,0,1.3-0.6,1.3-1.3v-5c0-0.7-0.6-1.3-1.3-1.3h-0.6c-0.7,0-1.3,0.6-1.3,1.3v5
			C990.3-304.6,990.8-304,991.6-304z"/>
	</g>
	<path class="st22" d="M208-541.4h-52.4l12.9-12.9c0.6-0.6,0.6-1.5,0-2.1s-1.5-0.6-2.1,0L150.9-541c-0.3,0.3-0.4,0.7-0.4,1.1
		s0.2,0.8,0.4,1.1l15.5,15.5c0.3,0.3,0.7,0.4,1.1,0.4s0.8-0.1,1.1-0.4c0.6-0.6,0.6-1.5,0-2.1l-12.9-12.9H208c0.8,0,1.5-0.7,1.5-1.5
		S208.8-541.4,208-541.4z"/>
	<path class="st22" d="M268.5-553.5L253-569c-0.6-0.6-1.6-0.6-2.1,0l-15.5,15.5c-0.6,0.6-0.6,1.5,0,2.1s1.5,0.6,2.1,0l12.9-12.9
		v52.4c0,0.8,0.7,1.5,1.5,1.5s1.5-0.7,1.5-1.5v-52.4l12.9,12.9c0.3,0.3,0.7,0.4,1.1,0.4s0.8-0.1,1.1-0.4
		C269.1-552,269.1-552.9,268.5-553.5z"/>
	<path class="st22" d="M268.5-456.4c-0.6-0.6-1.5-0.6-2.1,0l-12.9,12.9v-52.4c0-0.8-0.7-1.5-1.5-1.5s-1.5,0.7-1.5,1.5v52.4
		l-12.9-12.9c-0.6-0.6-1.5-0.6-2.1,0s-0.6,1.5,0,2.1l15.5,15.5c0.3,0.3,0.7,0.4,1.1,0.4s0.8-0.2,1.1-0.4l15.5-15.5
		C269.1-454.9,269.1-455.8,268.5-456.4z"/>
	<path class="st22" d="M209-469l-15.5-15.5c-0.6-0.6-1.5-0.6-2.1,0s-0.6,1.5,0,2.1l12.9,12.9H152c-0.8,0-1.5,0.7-1.5,1.5
		s0.7,1.5,1.5,1.5h52.4l-12.9,12.9c-0.6,0.6-0.6,1.5,0,2.1c0.3,0.3,0.7,0.4,1.1,0.4s0.8-0.1,1.1-0.4l15.5-15.5
		c0.3-0.3,0.4-0.7,0.4-1.1S209.3-468.7,209-469z"/>
	<path class="st6" d="M1145.3-324.1c0-7.5-2.9-14.9-8.6-20.6c-5.6-5.6-12.9-8.6-20.8-8.6c-7.9,0-15.2,3.1-20.8,8.6
		c-5.7,5.7-8.5,13.1-8.6,20.6c0,0.1,0,0.1,0,0.2s0,0.1,0,0.2c0,7.5,2.9,14.9,8.6,20.6c5.7,5.7,13.1,8.5,20.6,8.6c0.1,0,0.1,0,0.2,0
		s0.1,0,0.2,0c0,0,0.1,0,0.1,0c0,0,0.1,0,0.1,0c0,0,0.1,0,0.1,0c7.3-0.1,14.7-3,20.2-8.6c5.7-5.7,8.5-13.1,8.6-20.6
		c0-0.1,0-0.1,0-0.2C1145.3-324,1145.3-324.1,1145.3-324.1z M1112.6-350.1c-2.9,3.4-5.2,7.2-6.8,11.2c-2.7-1.1-5.3-2.7-7.5-4.7
		C1102.4-347.3,1107.4-349.5,1112.6-350.1z M1096.2-341.5c2.6,2.4,5.5,4.2,8.6,5.4c-1.1,3.5-1.7,7-1.9,10.6h-13.4
		C1089.9-331.2,1092.1-336.9,1096.2-341.5z M1089.5-322.4h13.4c0.1,3.6,0.7,7.2,1.8,10.6c-3.1,1.3-6,3.1-8.6,5.4
		C1092.1-311,1089.9-316.7,1089.5-322.4z M1098.3-304.3c2.2-2,4.7-3.6,7.4-4.7c1.5,4,3.7,7.7,6.6,11.2
		C1107.2-298.5,1102.3-300.7,1098.3-304.3z M1114.4-299.9c-2.5-3.1-4.5-6.5-5.9-10c1.9-0.5,3.9-0.9,5.9-1V-299.9z M1114.4-314
		c-2.3,0.1-4.6,0.5-6.8,1.2c-0.9-3.1-1.5-6.4-1.6-9.6h8.4V-314z M1114.4-325.4h-8.4c0.1-3.3,0.7-6.5,1.7-9.6c2.2,0.6,4.5,1,6.7,1.1
		V-325.4z M1114.4-336.9c-1.9-0.1-3.9-0.4-5.7-1c1.4-3.4,3.3-6.7,5.7-9.7V-336.9z M1133.5-343.6c-2.2,1.9-4.6,3.5-7.2,4.6
		c-1.6-4-3.9-7.7-6.7-11C1124.6-349.3,1129.5-347.2,1133.5-343.6z M1117.4-348.1c2.6,3.1,4.6,6.4,6.1,10.1c-2,0.6-4.1,1-6.1,1.1
		V-348.1z M1117.4-333.9c2.4-0.1,4.8-0.5,7.1-1.3c1,3.1,1.6,6.4,1.7,9.7h-8.9V-333.9z M1117.4-322.4h8.9c-0.1,3.3-0.7,6.6-1.6,9.8
		c-2.3-0.7-4.8-1.2-7.2-1.3V-322.4z M1117.4-311c2.1,0.1,4.2,0.5,6.2,1.1c-1.5,3.8-3.6,7.3-6.2,10.4V-311z M1120-297.9
		c2.7-3.3,4.9-7,6.5-10.9c2.6,1.1,4.9,2.6,7.1,4.5C1129.6-300.8,1124.9-298.6,1120-297.9z M1135.6-306.4c-2.4-2.2-5.2-4-8.2-5.2
		c1.1-3.5,1.7-7.1,1.8-10.8h13C1141.9-316.7,1139.7-311,1135.6-306.4z M1129.2-325.4c-0.1-3.7-0.8-7.3-1.9-10.8c3-1.3,5.8-3,8.3-5.3
		c4.1,4.6,6.3,10.3,6.6,16H1129.2z"/>
	<g>
		<path class="st18" d="M857.9-447.9l-25.8-45.7c-0.8-1.4-2.3-2.2-3.9-2.2c0,0,0,0,0,0c-1.6,0-3.1,0.8-3.9,2.2c0,0,0,0,0,0
			l-25.8,45.7c-0.8,1.4-0.8,3.1,0,4.5c0.8,1.4,2.3,2.3,3.9,2.3H854c1.6,0,3.1-0.8,3.9-2.3C858.8-444.8,858.8-446.5,857.9-447.9z
			 M855.3-444.9c-0.1,0.2-0.5,0.8-1.3,0.8h-51.6c-0.8,0-1.2-0.5-1.3-0.8s-0.4-0.8,0-1.5l25.8-45.7c0.4-0.7,1-0.7,1.3-0.7
			s0.9,0.1,1.3,0.7l25.8,45.7C855.7-445.8,855.5-445.2,855.3-444.9z"/>
		<path class="st18" d="M828.3-455.4c-1.2,0-2,0.3-2.6,0.9c-0.6,0.6-0.9,1.4-0.9,2.6c0,1.1,0.3,1.9,0.9,2.5s1.5,0.9,2.6,0.9
			c1.1,0,2-0.3,2.6-0.9s0.9-1.4,0.9-2.5c0-1.1-0.3-1.9-0.9-2.5C830.3-455.1,829.4-455.4,828.3-455.4z"/>
		<polygon class="st18" points="825.8,-458.8 830.8,-458.8 831.8,-478.5 824.8,-478.5 		"/>
	</g>
	<g>
		<path class="st18" d="M1260.3-353.4c-16.3,0-29.5,13.2-29.5,29.5s13.2,29.5,29.5,29.5s29.5-13.2,29.5-29.5
			S1276.6-353.4,1260.3-353.4z M1260.3-297.4c-14.6,0-26.5-11.9-26.5-26.5s11.9-26.5,26.5-26.5s26.5,11.9,26.5,26.5
			S1274.9-297.4,1260.3-297.4z"/>
		<path class="st18" d="M1276.8-311.4c-4.9-3.3-10.6-5-16.5-5c-6.1,0-11.9,1.8-16.9,5.3c-0.7,0.5-0.8,1.4-0.4,2.1
			c0.3,0.4,0.8,0.6,1.2,0.6c0.3,0,0.6-0.1,0.9-0.3c4.5-3.1,9.7-4.8,15.2-4.8c5.3,0,10.4,1.6,14.8,4.5c0.7,0.5,1.6,0.3,2.1-0.4
			S1277.5-310.9,1276.8-311.4z"/>
		<path class="st18" d="M1250.8-328.6c2.5,0,4.5-2,4.5-4.5s-2-4.5-4.5-4.5s-4.5,2-4.5,4.5S1248.4-328.6,1250.8-328.6z M1250.8-334.6
			c0.8,0,1.5,0.7,1.5,1.5s-0.7,1.5-1.5,1.5s-1.5-0.7-1.5-1.5S1250-334.6,1250.8-334.6z"/>
		<path class="st18" d="M1269.8-328.6c2.5,0,4.5-2,4.5-4.5s-2-4.5-4.5-4.5s-4.5,2-4.5,4.5S1267.4-328.6,1269.8-328.6z M1269.8-334.6
			c0.8,0,1.5,0.7,1.5,1.5s-0.7,1.5-1.5,1.5s-1.5-0.7-1.5-1.5S1269-334.6,1269.8-334.6z"/>
	</g>
	<g>
		<path class="st18" d="M1404.1-353.4c-16.3,0-29.5,13.2-29.5,29.5s13.2,29.5,29.5,29.5s29.5-13.2,29.5-29.5
			S1420.4-353.4,1404.1-353.4z M1404.1-297.4c-14.6,0-26.5-11.9-26.5-26.5s11.9-26.5,26.5-26.5s26.5,11.9,26.5,26.5
			S1418.7-297.4,1404.1-297.4z"/>
		<path class="st18" d="M1390.1-333.1c0,2.5,2,4.5,4.5,4.5s4.5-2,4.5-4.5c0-1.4-0.6-2.6-1.6-3.4l1.4,0.4c0.1,0,0.3,0,0.4,0
			c0.7,0,1.3-0.4,1.5-1.1c0.2-0.8-0.3-1.6-1.1-1.8l-7.6-2c-0.8-0.2-1.6,0.3-1.8,1.1s0.3,1.6,1.1,1.8l2.5,0.7
			C1391.7-337.1,1390.1-335.3,1390.1-333.1z M1394.6-334.6c0.8,0,1.5,0.7,1.5,1.5s-0.7,1.5-1.5,1.5s-1.5-0.7-1.5-1.5
			S1393.8-334.6,1394.6-334.6z"/>
		<path class="st18" d="M1419.6-316.4l-31.7,5c-0.8,0.1-1.4,0.9-1.2,1.7c0.1,0.7,0.8,1.3,1.5,1.3c0.1,0,0.2,0,0.2,0l31.7-5
			c0.8-0.1,1.4-0.9,1.2-1.7S1420.4-316.5,1419.6-316.4z"/>
		<path class="st18" d="M1408.6-336.1c0.1,0,0.3,0,0.4,0l1.9-0.5c-1.1,0.8-1.8,2.1-1.8,3.6c0,2.5,2,4.5,4.5,4.5s4.5-2,4.5-4.5
			c0-2.3-1.7-4.2-3.9-4.4l2.4-0.6c0.8-0.2,1.3-1,1.1-1.8s-1-1.3-1.8-1.1l-7.6,2c-0.8,0.2-1.3,1-1.1,1.8
			C1407.4-336.6,1408-336.1,1408.6-336.1z M1413.6-334.6c0.8,0,1.5,0.7,1.5,1.5s-0.7,1.5-1.5,1.5s-1.5-0.7-1.5-1.5
			S1412.8-334.6,1413.6-334.6z"/>
	</g>
	<g>
		<path class="st18" d="M1562.3-351.1h-11.9c-0.2,0-0.4-0.1-0.5-0.1c0.5-1.3,1.7-2.2,3.2-2.2c0.8,0,1.5-0.7,1.5-1.5
			s-0.7-1.5-1.5-1.5c-2.7,0-5,1.7-6,4.1c-0.1-0.1-0.1-0.3-0.1-0.4c0-0.8-0.7-1.5-1.5-1.5s-1.5,0.7-1.5,1.5c0,0.6,0.1,1.1,0.3,1.6
			h-10c-4.1,0-7.5,3.4-7.5,7.5v44c0,4.1,3.4,7.5,7.5,7.5h28c4.1,0,7.5-3.4,7.5-7.5v-44C1569.8-347.7,1566.4-351.1,1562.3-351.1z
			 M1562.3-348.1c2.4,0,4.4,2,4.5,4.4l-4.5,4.7c-0.6-3.7-2.6-6.9-5.4-9.1H1562.3z M1560.9-328.9c1,2.7,1.5,5.8,1.5,8.9
			c0,10.9-6.4,19.8-14.2,19.8c-3.7,0-7.1-2-9.6-5.3L1560.9-328.9z M1535.5-310.9c-1-2.7-1.6-5.8-1.6-9.1c0-2.9,0.5-5.7,1.3-8.3
			c2.4,3.6,6.2,6.1,10.6,6.6L1535.5-310.9z M1545.1-348.1h5c5.3,1.1,9.4,5.9,9.4,11.6c0,0.2,0,0.3,0,0.5l-10.7,11.3
			c-0.4,0-0.7,0.1-1.1,0.1c-6.5,0-11.8-5.3-11.8-11.8C1535.8-342.2,1539.8-346.9,1545.1-348.1z M1529.8-343.6c0-2.5,2-4.5,4.5-4.5
			h4.1c-3.4,2.7-5.6,6.9-5.6,11.6c0,1.6,0.2,3.1,0.7,4.5c0,0.1-0.1,0.1-0.1,0.2c-1.5,3.4-2.4,7.2-2.4,11.2h-1.2V-343.6z
			 M1529.8-317.7h1.3c0.3,3.3,1.1,6.4,2.3,9.1l-3.5,3.7V-317.7z M1566.8-299.6c0,2.5-2,4.5-4.5,4.5h-28c-1.5,0-2.9-0.8-3.7-2
			l5.9-6.2c3.1,3.8,7.2,6.1,11.7,6.1c8.9,0,16.2-9,17.1-20.4h1.5V-299.6z M1566.8-320.7h-1.4c-0.1-3.5-0.8-7-2-10.1
			c-0.1-0.2-0.2-0.3-0.3-0.4l3.7-3.8V-320.7z"/>
		<ellipse class="st18" cx="1547.6" cy="-331.2" rx="3.2" ry="2.5"/>
	</g>
	<g>
		<path class="st18" d="M841.3-199.4l-0.1-1.2c0-4.5-3.4-7.5-8.6-7.5H825c0,0,0,0,0,0c0-2.3-1.9-4.2-4.2-4.2c-0.8,0-1.5,0.7-1.5,1.5
			s0.7,1.5,1.5,1.5c0.7,0,1.2,0.6,1.2,1.2c0,0,0,0,0,0.1c-4.7,0.4-7.8,3.3-7.8,7.5l0.1,1.2c-3.3,0.7-5.7,3.6-5.7,7.1v38.5
			c0,4.2,3.1,7.7,6.9,7.7h24.5c4,0,7.6-3.7,7.6-7.7v-38.5C847.5-195.8,844.7-198.8,841.3-199.4z M844.5-192.3v20.2h-3v-5.2
			c0-3.4-2.6-6.1-6.1-6.7c3.6-2.4,6.1-6.5,6.1-11.2c0,0,0,0,0,0l-0.1-1.1C843.2-195.7,844.5-194.1,844.5-192.3z M835.2-170.1h-0.4
			c-3.5,0-6.3,2.8-6.3,6.3v3.7h-1v-3.7c0-3.5-2.8-6.3-6.3-6.3h-0.4c-1.2,0-2.3,0.3-3.3,0.9v-8.1c0-2.3,1.5-3.8,3.9-3.8h12.5
			c2.2,0,4.6,1.4,4.6,3.8v8.1C837.5-169.8,836.4-170.1,835.2-170.1z M838.5-163.8v4.4c0,1.8-1.5,3.3-3.3,3.3h-0.4
			c-1.8,0-3.3-1.5-3.3-3.3v-4.4c0-1.8,1.5-3.3,3.3-3.3h0.4C837-167.1,838.5-165.6,838.5-163.8z M817.5-163.8c0-1.8,1.5-3.3,3.3-3.3
			h0.4c1.8,0,3.3,1.5,3.3,3.3v4.4c0,1.8-1.5,3.3-3.3,3.3h-0.4c-1.8,0-3.3-1.5-3.3-3.3V-163.8z M823.1-205.1h9.6
			c1.6,0,5.5,0.4,5.5,4.5l0.2,5.5c0,5.8-4.7,10.4-10.5,10.4c-5.8,0-10.5-4.7-10.5-10.5l-0.2-5.4
			C817.1-203.9,820.3-205.1,823.1-205.1z M814.3-196.3l0,1.1c0,4.6,2.4,8.7,5.9,11.1c-3.4,0.5-5.9,3.1-5.9,6.7v5.2h-3v-20.2
			C811.5-194.2,812.7-195.8,814.3-196.3z M839.9-149.1h-24.5c-2.4,0-3.9-2.4-3.9-4.7v-15.3h3v5c0,0,0,0.1,0,0.1c0,0.1,0,0.1,0,0.2
			v4.4c0,3.5,2.8,6.3,6.3,6.3h0.4c2.7,0,5-1.7,5.9-4.1c0.1,0,0.3,0.1,0.4,0.1h1c0.1,0,0.3,0,0.4-0.1c0.9,2.4,3.2,4.1,5.9,4.1h0.4
			c3.5,0,6.3-2.8,6.3-6.3v-4.4c0-0.1,0-0.1,0-0.2c0,0,0-0.1,0-0.1v-5h3v15.3C844.5-151.4,842.2-149.1,839.9-149.1z"/>
		<path class="st18" d="M827.8-187.8c0.6,0.3,1.2,0.4,1.8,0.4c1.6,0,3.2-0.9,4-2.6c0.4-0.7,0.1-1.6-0.7-2c-0.7-0.4-1.6-0.1-2,0.7
			c-0.4,0.7-1.2,1.1-1.9,0.8c-0.7-0.4-1.6-0.1-2,0.7C826.8-189,827.1-188.1,827.8-187.8z"/>
	</g>
	<g>
		<path class="st18" d="M698.3-158.6v-4.5c0,0,0-0.1,0-0.1c0,0,0,0,0-0.1v-13.3c0-1.3-0.4-2.5-1.1-3.5l0.7-0.6
			c0.6-0.5,0.7-1.5,0.2-2.1c-0.5-0.6-1.5-0.7-2.1-0.2l-1,0.8c-0.7-0.5-1.6-0.8-2.5-1c2.9-2.2,4.9-5.5,5.2-9.5
			c0.3-0.3,0.6-0.7,0.6-1.2v-6c0-0.5-0.2-0.9-0.5-1.1c-0.6-6.6-6.5-12.1-13.2-12.1c-6.6,0-12.5,5.3-13.3,11.7h-3
			c-0.8,0-1.5,0.7-1.5,1.5s0.7,1.5,1.5,1.5h3v3.9c-0.1,0.2-0.1,0.4-0.1,0.6c0,4.5,2,8.3,5.3,10.7c-3.1,0.7-5.2,3.2-5.2,6.5v13.3
			c0,0,0,0,0,0.1c0,0,0,0.1,0,0.1v0.8c-0.3,0-0.5,0.1-0.7,0.3l-0.5,0.4c-0.6,0.5-0.7,1.5-0.2,2.1c0.3,0.4,0.7,0.5,1.2,0.5
			c0.1,0,0.2,0,0.3-0.1v0.2c-3.3,0.1-6,2.8-6,6.2v0.6c0,3.6,2.6,6.6,5.9,6.6h25.6c3.4,0,6.5-3.2,6.5-6.6v-0.6
			C703.3-155.5,701.2-158,698.3-158.6z M695.3-176.7v8.2c-0.9-0.6-2-0.9-3.2-0.9h-0.6c-3.4,0-6.2,2.8-6.2,6.2v3.8h-1v-3.8
			c0-1.8-0.8-3.5-2.1-4.6l12.7-10.4C695.2-177.8,695.3-177.2,695.3-176.7z M695.3-163.2v4.6c0,1.8-1.4,3.2-3.2,3.2h-0.6
			c-1.8,0-3.2-1.4-3.2-3.2v-4.6c0-1.8,1.4-3.2,3.2-3.2h0.6C693.9-166.4,695.3-164.9,695.3-163.2z M674.3-163.2
			c0-1.8,1.4-3.2,3.2-3.2h0.6c1.8,0,3.2,1.4,3.2,3.2v4.6c0,1.8-1.4,3.2-3.2,3.2h-0.6c-1.8,0-3.2-1.4-3.2-3.2V-163.2z M684.6-210.1
			c4.9,0,9.3,3.9,10.1,8.7h-20.4C675.2-206.1,679.7-210.1,684.6-210.1z M674.3-193.3c0.1-0.2,0.1-0.3,0.1-0.5v-4.5h21v3.4
			c-0.3,0.3-0.5,0.7-0.5,1.1c0,5.9-4.3,10.2-10.3,10.2C678.8-183.6,674.5-187.7,674.3-193.3z M678.1-180.4h12.7
			c0.6,0,1.1,0.1,1.6,0.3L680-169.8c-0.2,0.2-0.3,0.3-0.4,0.6c-0.5-0.1-0.9-0.2-1.4-0.2h-0.6c-1.2,0-2.3,0.3-3.2,0.9v-8.2
			C674.3-178.9,675.8-180.4,678.1-180.4z M700.3-152c0,1.8-1.8,3.6-3.5,3.6h-25.6c-1.7,0-2.9-1.9-2.9-3.6v-0.6
			c0-1.8,1.4-3.2,3.1-3.2c0.2,0,0.3,0,0.5-0.1c1,2.1,3.1,3.5,5.6,3.5h0.6c2.6,0,4.9-1.7,5.8-4h1.8c0.9,2.3,3.1,4,5.8,4h0.6
			c2.4,0,4.5-1.4,5.5-3.4c1.5,0.3,2.7,1.6,2.7,3.1V-152z"/>
		<path class="st18" d="M683.6-187.1c0.6,0.3,1.2,0.4,1.8,0.4c0.5,0,1-0.1,1.5-0.3c1.1-0.4,2-1.2,2.5-2.3c0.4-0.7,0.1-1.6-0.7-2
			c-0.7-0.4-1.6-0.1-2,0.7c-0.2,0.4-0.5,0.6-0.8,0.8c-0.3,0.1-0.7,0.1-0.9,0c-0.7-0.4-1.6-0.1-2,0.7S682.9-187.4,683.6-187.1z"/>
	</g>
	<g>
		<path class="st18" d="M971.8-208.8c-16.3,0-29.6,13.3-29.6,29.6s13.3,29.6,29.6,29.6s29.6-13.3,29.6-29.6S988.1-208.8,971.8-208.8
			z M971.8-152.6c-14.7,0-26.6-11.9-26.6-26.6s11.9-26.6,26.6-26.6s26.6,11.9,26.6,26.6S986.5-152.6,971.8-152.6z"/>
		<path class="st18" d="M993.8-180.7H976c-0.5-1.3-1.5-2.3-2.7-2.7v-10.8c0-0.8-0.7-1.5-1.5-1.5s-1.5,0.7-1.5,1.5v10.8
			c-1.7,0.6-3,2.3-3,4.2c0,2.5,2,4.5,4.5,4.5c2,0,3.6-1.3,4.2-3h17.8c0.8,0,1.5-0.7,1.5-1.5S994.6-180.7,993.8-180.7z M971.8-177.7
			c-0.8,0-1.5-0.7-1.5-1.5s0.7-1.5,1.5-1.5s1.5,0.7,1.5,1.5S972.6-177.7,971.8-177.7z"/>
	</g>
	<g>
		<path class="st18" d="M1116.2-209.2c-16.3,0-29.5,13.2-29.5,29.5s13.2,29.5,29.5,29.5s29.5-13.2,29.5-29.5
			S1132.5-209.2,1116.2-209.2z M1116.2-153.2c-14.6,0-26.5-11.9-26.5-26.5s11.9-26.5,26.5-26.5s26.5,11.9,26.5,26.5
			S1130.8-153.2,1116.2-153.2z"/>
		<path class="st18" d="M1131.2-178.4h-30c-0.8,0-1.5,0.7-1.5,1.5c0,9.1,7.4,16.5,16.5,16.5s16.5-7.4,16.5-16.5
			C1132.7-177.7,1132-178.4,1131.2-178.4z M1116.2-163.4c-6.9,0-12.7-5.3-13.4-12h26.8C1128.9-168.7,1123.1-163.4,1116.2-163.4z"/>
		<path class="st18" d="M1103.2-188.8c0-0.8,0.7-1.5,1.5-1.5s1.5,0.7,1.5,1.5v1.9h3v-1.9c0-2.5-2-4.5-4.5-4.5s-4.5,2-4.5,4.5v1.9h3
			V-188.8z"/>
		<path class="st18" d="M1126.2-188.8c0-0.8,0.7-1.5,1.5-1.5s1.5,0.7,1.5,1.5v1.9h3v-1.9c0-2.5-2-4.5-4.5-4.5s-4.5,2-4.5,4.5v1.9h3
			V-188.8z"/>
	</g>
	<g>
		<path class="st18" d="M1260.2-209.2c-16.3,0-29.5,13.2-29.5,29.5s13.2,29.5,29.5,29.5s29.5-13.2,29.5-29.5
			S1276.5-209.2,1260.2-209.2z M1260.2-153.2c-14.6,0-26.5-11.9-26.5-26.5s11.9-26.5,26.5-26.5s26.5,11.9,26.5,26.5
			S1274.8-153.2,1260.2-153.2z"/>
		<path class="st18" d="M1247.2-188.8c0-0.8,0.7-1.5,1.5-1.5s1.5,0.7,1.5,1.5v1.9h3v-1.9c0-2.5-2-4.5-4.5-4.5s-4.5,2-4.5,4.5v1.9h3
			V-188.8z"/>
		<path class="st18" d="M1270.2-188.8c0-0.8,0.7-1.5,1.5-1.5s1.5,0.7,1.5,1.5v1.9h3v-1.9c0-2.5-2-4.5-4.5-4.5s-4.5,2-4.5,4.5v1.9h3
			V-188.8z"/>
		<path class="st18" d="M1275.6-173.4c-4.4,4.9-9.6,7.5-14.9,7.5c-5.2,0-10.2-2.5-14.6-7.1c-0.6-0.6-1.5-0.6-2.1-0.1
			c-0.6,0.6-0.6,1.5-0.1,2.1c4.9,5.3,10.7,8,16.8,8c6.2,0,12.2-2.9,17.2-8.5c0.6-0.6,0.5-1.6-0.1-2.1
			C1277.1-174,1276.2-174,1275.6-173.4z"/>
	</g>
	<g>
		<path class="st18" d="M1423.9-186.1c-0.8,0-1.5,0.7-1.5,1.5v24.6c0,2.5-2,4.5-4.5,4.5h-28c-2.5,0-4.5-2-4.5-4.5v-24.6
			c0-0.8-0.7-1.5-1.5-1.5s-1.5,0.7-1.5,1.5v24.6c0,4.1,3.4,7.5,7.5,7.5h28c4.1,0,7.5-3.4,7.5-7.5v-24.6
			C1425.4-185.4,1424.7-186.1,1423.9-186.1z"/>
		<path class="st18" d="M1432.8-187.8l-26.3-18.2c-1.5-1.1-3.6-1.1-5.1,0l-26.3,18.2c-0.7,0.5-0.8,1.4-0.4,2.1
			c0.3,0.4,0.8,0.6,1.2,0.6c0.3,0,0.6-0.1,0.9-0.3l26.3-18.2c0.5-0.4,1.2-0.4,1.7,0l26.3,18.2c0.7,0.5,1.6,0.3,2.1-0.4
			C1433.6-186.4,1433.4-187.3,1432.8-187.8z"/>
		<path class="st18" d="M1410.6-157.8c0.8,0,1.5-0.7,1.5-1.5v-13.9c0-2.5-2-4.5-4.5-4.5h-6.4c-2.5,0-4.5,2-4.5,4.5v13.9
			c0,0.8,0.7,1.5,1.5,1.5s1.5-0.7,1.5-1.5v-13.9c0-0.8,0.7-1.5,1.5-1.5h6.4c0.8,0,1.5,0.7,1.5,1.5v13.9
			C1409.1-158.5,1409.7-157.8,1410.6-157.8z"/>
	</g>
	<path class="st18" d="M1580.2-194.8l0-0.5c0-9.5-7.5-17.3-16.8-17.3c-6.9,0-12.9,3.7-15.2,5.3c-2.3-1.6-8.3-5.3-15.2-5.3
		c-9.2,0-16.8,7.7-16.8,17.2l0,0.5c0,0.6,0,1.4,0,1.9c0,17.9,29.8,43,31,44c0.3,0.2,0.6,0.3,1,0.3s0.7-0.1,1-0.3
		c1.3-1.1,31-26.1,31-44C1580.2-193.4,1580.2-194.2,1580.2-194.8z M1548.2-152c-5.1-4.5-29-26.1-29-40.9c0-0.5,0-1.3,0-1.8
		c0-0.3,0-0.5,0-0.5c0-7.9,6.2-14.3,13.8-14.3c7.4,0,14.2,5.3,14.3,5.3c0.5,0.4,1.3,0.4,1.9,0c0.1-0.1,6.8-5.3,14.3-5.3
		c7.6,0,13.8,6.4,13.8,14.3c0,0.1,0,0.3,0,0.5c0,0.5,0,1.4,0,1.8C1577.2-178.1,1553.3-156.4,1548.2-152z"/>
	<g>
		<path class="st18" d="M1692.1-209.5c-16.3,0-29.5,13.2-29.5,29.5s13.2,29.5,29.5,29.5s29.5-13.2,29.5-29.5
			S1708.4-209.5,1692.1-209.5z M1692.1-153.5c-14.6,0-26.5-11.9-26.5-26.5s11.9-26.5,26.5-26.5s26.5,11.9,26.5,26.5
			S1706.7-153.5,1692.1-153.5z"/>
		<path class="st18" d="M1682.6-184.7c2.5,0,4.5-2,4.5-4.5s-2-4.5-4.5-4.5s-4.5,2-4.5,4.5S1680.1-184.7,1682.6-184.7z M1682.6-190.7
			c0.8,0,1.5,0.7,1.5,1.5s-0.7,1.5-1.5,1.5s-1.5-0.7-1.5-1.5S1681.8-190.7,1682.6-190.7z"/>
		<path class="st18" d="M1701.6-184.7c2.5,0,4.5-2,4.5-4.5s-2-4.5-4.5-4.5s-4.5,2-4.5,4.5S1699.1-184.7,1701.6-184.7z M1701.6-190.7
			c0.8,0,1.5,0.7,1.5,1.5s-0.7,1.5-1.5,1.5s-1.5-0.7-1.5-1.5S1700.8-190.7,1701.6-190.7z"/>
		<path class="st18" d="M1707.8-172h-31.7c-0.8,0-1.5,0.7-1.5,1.5s0.7,1.5,1.5,1.5h31.7c0.8,0,1.5-0.7,1.5-1.5
			S1708.6-172,1707.8-172z"/>
	</g>
	<g>
		<path class="st18" d="M-382.1-549.2h-2.3h-22.5v-10.7c0-3.6,2.9-6.5,6.5-6.5h8c3.6,0,6.5,2.9,6.5,6.5v3.4h3v-3.4
			c0-5.2-4.3-9.5-9.5-9.5h-8c-5.2,0-9.5,4.3-9.5,9.5v10.7h-0.3c-4.1,0-7.5,3.4-7.5,7.5v23.8c0,4.1,3.4,7.5,7.5,7.5h28
			c4.1,0,7.5-3.4,7.5-7.5v-23.8C-374.6-545.8-378-549.2-382.1-549.2z M-377.6-517.9c0,2.5-2,4.5-4.5,4.5h-28c-2.5,0-4.5-2-4.5-4.5
			v-23.8c0-2.5,2-4.5,4.5-4.5h0.3h25.5h2.3c2.5,0,4.5,2,4.5,4.5V-517.9z"/>
		<path class="st18" d="M-396.2-539.7c-2.5,0-4.5,2-4.5,4.5c0,2,1.3,3.6,3,4.2v7.7c0,0.8,0.7,1.5,1.5,1.5s1.5-0.7,1.5-1.5v-7.7
			c1.7-0.6,3-2.3,3-4.2C-391.7-537.7-393.7-539.7-396.2-539.7z M-396.2-533.7c-0.8,0-1.5-0.7-1.5-1.5s0.7-1.5,1.5-1.5
			s1.5,0.7,1.5,1.5S-395.4-533.7-396.2-533.7z"/>
	</g>
	<g>
		<path class="st18" d="M700.1-65.5h-32c-4.1,0-7.5,3.4-7.5,7.5v44c0,4.1,3.4,7.5,7.5,7.5h32c4.1,0,7.5-3.4,7.5-7.5v-44
			C707.6-62.1,704.2-65.5,700.1-65.5z M704.6-14c0,2.5-2,4.5-4.5,4.5h-32c-2.5,0-4.5-2-4.5-4.5v-44c0-2.5,2-4.5,4.5-4.5h32
			c2.5,0,4.5,2,4.5,4.5V-14z"/>
		<path class="st18" d="M669.7-54.5h8.4c0.8,0,1.5-0.7,1.5-1.5s-0.7-1.5-1.5-1.5h-8.4c-0.8,0-1.5,0.7-1.5,1.5S668.9-54.5,669.7-54.5
			z"/>
		<path class="st18" d="M699.1-57.5h-8.4c-0.8,0-1.5,0.7-1.5,1.5s0.7,1.5,1.5,1.5h8.4c0.8,0,1.5-0.7,1.5-1.5S699.9-57.5,699.1-57.5z
			"/>
		<path class="st18" d="M699.1-46.5h-29.4c-0.8,0-1.5,0.7-1.5,1.5s0.7,1.5,1.5,1.5h29.4c0.8,0,1.5-0.7,1.5-1.5
			S699.9-46.5,699.1-46.5z"/>
		<path class="st18" d="M699.1-39.5h-29.4c-0.8,0-1.5,0.7-1.5,1.5s0.7,1.5,1.5,1.5h29.4c0.8,0,1.5-0.7,1.5-1.5
			S699.9-39.5,699.1-39.5z"/>
		<path class="st18" d="M699.1-32.5h-29.4c-0.8,0-1.5,0.7-1.5,1.5s0.7,1.5,1.5,1.5h29.4c0.8,0,1.5-0.7,1.5-1.5
			S699.9-32.5,699.1-32.5z"/>
		<path class="st18" d="M699.1-25.5h-29.4c-0.8,0-1.5,0.7-1.5,1.5s0.7,1.5,1.5,1.5h29.4c0.8,0,1.5-0.7,1.5-1.5
			S699.9-25.5,699.1-25.5z"/>
		<path class="st18" d="M699.1-18.5h-29.4c-0.8,0-1.5,0.7-1.5,1.5s0.7,1.5,1.5,1.5h29.4c0.8,0,1.5-0.7,1.5-1.5
			S699.9-18.5,699.1-18.5z"/>
	</g>
	<g>
		<path class="st18" d="M853.8-40.9v-8.8c0-4.1-3.4-7.5-7.5-7.5h-40.1c-4.1,0-7.5,3.4-7.5,7.5v28c0,4.1,3.4,7.5,7.5,7.5h40.1
			c4.1,0,7.5-3.4,7.5-7.5v-9.1c1.9-0.9,3.2-2.8,3.2-5.1C857-38.1,855.7-40,853.8-40.9z M850.8-21.8c0,2.5-2,4.5-4.5,4.5h-40.1
			c-2.5,0-4.5-2-4.5-4.5v-28c0-2.5,2-4.5,4.5-4.5h40.1c2.5,0,4.5,2,4.5,4.5v8.3h-14.2c-3.1,0-5.6,2.5-5.6,5.6c0,3.1,2.5,5.6,5.6,5.6
			h14.2V-21.8z M851.4-33.3h-14.8c-1.4,0-2.6-1.2-2.6-2.6c0-1.4,1.2-2.6,2.6-2.6h14.8c1.4,0,2.6,1.2,2.6,2.6
			C854-34.5,852.8-33.3,851.4-33.3z"/>
		<path class="st18" d="M837.3-37.5h-0.8c-0.6,0-1.1,0.5-1.1,1.1v0.8c0,0.6,0.5,1.1,1.1,1.1h0.8c0.6,0,1.1-0.5,1.1-1.1v-0.8
			C838.4-37,837.9-37.5,837.3-37.5z"/>
	</g>
	<path class="st2" d="M1003.4-18.5h-44.2c-3.3,0-6-2.7-6-6v-28c0-3.3,2.7-6,6-6h44.2c3.3,0,6,2.7,6,6v28
		C1009.4-21.2,1006.7-18.5,1003.4-18.5z"/>
	<line class="st2" x1="953.2" y1="-47" x2="1009" y2="-47"/>
	<line class="st3" x1="960.4" y1="-36.5" x2="983.6" y2="-36.5"/>
	<g>
		<path class="st23" d="M1005.4-18.5h-48c-2.2,0-4-1.8-4-4v-32c0-2.2,1.8-4,4-4h48c2.2,0,4,1.8,4,4v32
			C1009.4-20.3,1007.6-18.5,1005.4-18.5z"/>
		<path class="st23" d="M1001.4-62.5v48c0,2.2-1.8,4-4,4h-32c-2.2,0-4-1.8-4-4v-48c0-2.2,1.8-4,4-4h32
			C999.6-66.5,1001.4-64.7,1001.4-62.5z"/>
		<path class="st23" d="M1009.4-62.5v48c0,2.2-1.8,4-4,4h-48c-2.2,0-4-1.8-4-4v-48c0-2.2,1.8-4,4-4h48
			C1007.6-66.5,1009.4-64.7,1009.4-62.5z"/>
		<circle class="st23" cx="981.4" cy="-38.5" r="28"/>
		<circle class="st23" cx="981.4" cy="-38.5" r="20"/>
	</g>
	<path class="st2" d="M1131.4-18.5h-44.2c-3.3,0-6-2.7-6-6v-28c0-3.3,2.7-6,6-6h44.2c3.3,0,6,2.7,6,6v28
		C1137.4-21.2,1134.7-18.5,1131.4-18.5z"/>
	<line class="st2" x1="1081.2" y1="-37" x2="1137" y2="-37"/>
	<line class="st3" x1="1088.4" y1="-26.5" x2="1118.2" y2="-26.5"/>
	<g>
		<path class="st23" d="M1133.4-18.5h-48c-2.2,0-4-1.8-4-4v-32c0-2.2,1.8-4,4-4h48c2.2,0,4,1.8,4,4v32
			C1137.4-20.3,1135.6-18.5,1133.4-18.5z"/>
		<path class="st23" d="M1129.4-62.5v48c0,2.2-1.8,4-4,4h-32c-2.2,0-4-1.8-4-4v-48c0-2.2,1.8-4,4-4h32
			C1127.6-66.5,1129.4-64.7,1129.4-62.5z"/>
		<path class="st23" d="M1137.4-62.5v48c0,2.2-1.8,4-4,4h-48c-2.2,0-4-1.8-4-4v-48c0-2.2,1.8-4,4-4h48
			C1135.6-66.5,1137.4-64.7,1137.4-62.5z"/>
		<circle class="st23" cx="1109.4" cy="-38.5" r="28"/>
		<circle class="st23" cx="1109.4" cy="-38.5" r="20"/>
	</g>
	<path class="st2" d="M1127.7-45.6h-6.7c-1.5,0-2.7-1.2-2.7-2.7v0c0-1.5,1.2-2.7,2.7-2.7h6.7c1.5,0,2.7,1.2,2.7,2.7v0
		C1130.4-46.8,1129.2-45.6,1127.7-45.6z"/>
	<path class="st18" d="M-583.9-757.4h-26.5v-26.5c0-0.8-0.7-1.5-1.5-1.5s-1.5,0.7-1.5,1.5v26.5h-26.5c-0.8,0-1.5,0.7-1.5,1.5
		s0.7,1.5,1.5,1.5h26.5v26.5c0,0.8,0.7,1.5,1.5,1.5s1.5-0.7,1.5-1.5v-26.5h26.5c0.8,0,1.5-0.7,1.5-1.5S-583.1-757.4-583.9-757.4z"/>
	<g>
		<path class="st2" d="M15.9-164.7l0,4c0,0.6-0.4,1-1,1h-6c-0.6,0-1-0.4-1-1l0-12"/>
		<path class="st2" d="M63.9-172.7v12c0,0.6-0.4,1-1,1h-6c-0.6,0-1-0.4-1-1v-4"/>
		<path class="st3" d="M7.9-177.3v11.6c0,1.1,0.9,2,2,2h52c1.1,0,2-0.9,2-2v-11.6c0-0.4-0.1-0.7-0.2-1.1l-3.1-8.7l-3.2-12.4
			c-0.4-1.4-1.5-2.4-2.8-2.8c-3.3-0.9-11.1-2.4-18.8-2.4s-15.5,1.5-18.8,2.4c-1.4,0.4-2.4,1.4-2.8,2.8l-3.2,12.4l-3.1,8.7
			C8-178.1,7.9-177.7,7.9-177.3z"/>
		<path class="st3" d="M61.4-189.8c2.3-0.7,4.4-0.6,5,1.4c0.7,2.1-0.9,3.4-3.2,4.1"/>
		<path class="st3" d="M10.5-189.8c-2.3-0.7-4.4-0.6-5,1.4c-0.7,2.1,0.9,3.4,3.2,4.1"/>
		<path class="st3" d="M20.9-173.3h-6c-0.6,0-1-0.4-1-1v-3c0-0.6,0.4-1,1-1l6,1c0.6,0,1,0.4,1,1v2C21.9-173.7,21.5-173.3,20.9-173.3
			z"/>
		<path class="st3" d="M50.9-173.3h6c0.6,0,1-0.4,1-1v-3c0-0.6-0.4-1-1-1l-6,1c-0.6,0-1,0.4-1,1v2C49.9-173.7,50.4-173.3,50.9-173.3
			z"/>
		<line class="st2" x1="11.2" y1="-186.7" x2="61.1" y2="-186.7"/>
	</g>
	<path class="st3" d="M-151.6,225.1v48.5c0,5,4,9,9,9h38.5c5.2,0,9.5-4.3,9.5-9.5v-38.8c0-4.8-3.9-8.8-8.8-8.8h-20.3v31.5"/>
	<polygon class="st6" points="-134.2,252.5 -123.4,263.2 -112.6,252.4 	"/>
	<path class="st24" d="M63.5,39.8v17.8c0,4.7-3.9,8.6-8.6,8.6H16.5c-4.7,0-8.6-3.9-8.6-8.6V19.3c0-4.7,3.9-8.6,8.6-8.6h24.9"/>
	<path class="st24" d="M57,10.6L27.4,40.2l-1.8,10.6c-0.2,1.5,1,2.8,2.5,2.7l8.6-0.8l29.4-29.4c2.4-2.4,3.1-6.1,1.5-9.2
		c-0.6-1.1-1.3-2.1-2.3-2.9c-0.5-0.4-0.9-0.7-1.3-1C61.9,8.5,58.9,8.7,57,10.6z"/>
	<path class="st24" d="M28.8,41.3c0,0,3.2,0.9,5.7,2.9c2.5,2,3.6,7,3.6,7"/>
	<circle class="st25" cx="180.7" cy="21.3" r="16.8"/>
	<path class="st25" d="M180.1,68.1h24.3c1.2,0,2.2-1,2.2-2.2V55.7c0-3-3-6.4-5.5-8.6c-1.7-1.5-3.9-2.1-6.1-1.6
		c-3.7,0.9-10,2.1-14.9,2.1h0.5c-5,0-11.2-1.2-15-2.1c-2.2-0.5-4.5,0.1-6.2,1.6c-2.4,2.2-5.5,5.6-5.5,8.6V66c0,1.2,1,2.2,2.2,2.2
		h24.5H180.1z"/>
</g>
</svg>
