<?xml version="1.0" encoding="utf-8"?>
<!-- Generator: Adobe Illustrator 19.2.0, SVG Export Plug-In . SVG Version: 6.00 Build 0)  -->
<svg version="1.1" xmlns="http://www.w3.org/2000/svg" xmlns:xlink="http://www.w3.org/1999/xlink" x="0px" y="0px"
	 viewBox="0 0 71.9 72" style="enable-background:new 0 0 71.9 72;" xml:space="preserve">
<style type="text/css">
	.st0{display:none;}
	.st1{display:inline;opacity:0.15;fill:#F71C1C;}
	.st2{fill:none;stroke:#666666;stroke-width:3;stroke-miterlimit:10;}
	.st3{fill:none;stroke:#666666;stroke-width:3;stroke-linecap:round;stroke-linejoin:round;stroke-miterlimit:10;}
	.st4{fill:none;stroke:#666666;stroke-width:3;stroke-linejoin:round;stroke-miterlimit:10;}
	.st5{fill:none;stroke:#666666;stroke-width:2;stroke-miterlimit:10;}
	.st6{fill:#666666;}
	.st7{fill:none;stroke:#666666;stroke-width:3;stroke-linecap:round;stroke-miterlimit:10;}
	.st8{fill:none;stroke:#666666;stroke-width:6;stroke-linecap:round;stroke-linejoin:round;stroke-miterlimit:10;}
	.st9{fill-rule:evenodd;clip-rule:evenodd;fill:#0F6193;}
	.st10{fill:#0F6193;}
	.st11{fill:#0E94F7;}
	.st12{fill-rule:evenodd;clip-rule:evenodd;fill:#0E94F7;}
	.st13{opacity:0.25;fill:none;stroke:#666666;stroke-linecap:round;stroke-linejoin:round;stroke-miterlimit:10;}
	.st14{fill:none;stroke:#666666;stroke-width:6;stroke-miterlimit:10;}
	.st15{fill:none;stroke:#676767;stroke-width:3;stroke-linecap:round;stroke-linejoin:round;stroke-miterlimit:10;}
	.st16{fill:none;stroke:#686867;stroke-width:3;stroke-miterlimit:10;}
	.st17{fill:none;stroke:#686867;stroke-width:3;stroke-linecap:round;stroke-linejoin:round;stroke-miterlimit:10;}
	.st18{fill:#676767;}
	.st19{fill:none;stroke:#676767;stroke-width:3;stroke-miterlimit:10;}
	.st20{fill:none;stroke:#666666;stroke-width:4;stroke-miterlimit:10;}
	.st21{fill:#FFFFFF;stroke:#666666;stroke-width:4;stroke-miterlimit:10;}
	.st22{fill:#686867;}
	.st23{fill:none;stroke:#D625C9;stroke-width:0.1;stroke-miterlimit:10;}
	.st24{fill:none;stroke:#0064C8;stroke-width:5;stroke-linecap:round;stroke-linejoin:round;stroke-miterlimit:10;}
	.st25{fill:none;stroke:#FFFFFF;stroke-width:5;stroke-linecap:round;stroke-linejoin:round;stroke-miterlimit:10;}
</style>
<g id="Layer_2" class="st0">
	<rect x="-1152.1" y="-719.9" class="st1" width="71.9" height="72"/>
	<rect x="-1008.1" y="-719.9" class="st1" width="71.9" height="72"/>
	<rect x="-864.1" y="-719.9" class="st1" width="71.9" height="72"/>
	<rect x="-791.8" y="-791.9" class="st1" width="71.9" height="72"/>
	<rect x="-720" y="-719.9" class="st1" width="71.9" height="72"/>
	<rect x="-576" y="-719.9" class="st1" width="71.9" height="72"/>
	<rect x="-432" y="-719.9" class="st1" width="71.9" height="72"/>
	<rect x="-288" y="-719.9" class="st1" width="71.9" height="72"/>
	<rect x="-144" y="-719.9" class="st1" width="71.9" height="72"/>
	<rect x="0" y="-719.9" class="st1" width="71.9" height="72"/>
	<rect x="-1152.1" y="-575.9" class="st1" width="71.9" height="72"/>
	<rect x="-1008.1" y="-575.9" class="st1" width="71.9" height="72"/>
	<rect x="-864.1" y="-575.9" class="st1" width="71.9" height="72"/>
	<rect x="-720" y="-575.9" class="st1" width="71.9" height="72"/>
	<rect x="-576" y="-575.9" class="st1" width="71.9" height="72"/>
	<rect x="-432" y="-575.9" class="st1" width="71.9" height="72"/>
	<rect x="-288" y="-575.9" class="st1" width="71.9" height="72"/>
	<rect x="-144" y="-575.9" class="st1" width="71.9" height="72"/>
	<rect x="-1152.1" y="-359.4" class="st1" width="71.9" height="72"/>
	<rect x="-1008.1" y="-359.4" class="st1" width="71.9" height="72"/>
	<rect x="-864.1" y="-359.4" class="st1" width="71.9" height="72"/>
	<rect x="-720" y="-359.4" class="st1" width="71.9" height="72"/>
	<rect x="-576" y="-359.4" class="st1" width="71.9" height="72"/>
	<rect x="-432" y="-359.4" class="st1" width="71.9" height="72"/>
	<rect x="-288" y="-359.4" class="st1" width="71.9" height="72"/>
	<rect x="-144" y="-359.4" class="st1" width="71.9" height="72"/>
	<rect x="0" y="-359.4" class="st1" width="71.9" height="72"/>
	<rect x="-1152.1" y="-215.4" class="st1" width="71.9" height="72"/>
	<rect x="-1008.1" y="-215.4" class="st1" width="71.9" height="72"/>
	<rect x="-863.9" y="-215.8" class="st1" width="71.9" height="72"/>
	<rect x="-720" y="-215.4" class="st1" width="71.9" height="72"/>
	<rect x="-576" y="-215.4" class="st1" width="71.9" height="72"/>
	<rect x="-432" y="-215.4" class="st1" width="71.9" height="72"/>
	<rect x="-288" y="-215.4" class="st1" width="71.9" height="72"/>
	<rect x="-1152.1" y="0" class="st1" width="71.9" height="72"/>
	<rect x="-1008.1" y="0" class="st1" width="71.9" height="72"/>
	<rect x="-864.1" y="0" class="st1" width="71.9" height="72"/>
	<rect x="-720" y="0" class="st1" width="71.9" height="72"/>
	<rect x="-576" y="0" class="st1" width="71.9" height="72"/>
	<rect x="-432" y="0" class="st1" width="71.9" height="72"/>
	<rect x="-288" y="0" class="st1" width="71.9" height="72"/>
	<rect x="-144" y="0" class="st1" width="71.9" height="72"/>
	<rect x="-1152.1" y="217.2" class="st1" width="71.9" height="72"/>
	<rect x="-1008.1" y="217.2" class="st1" width="71.9" height="72"/>
	<rect x="-1152.1" y="431.8" class="st1" width="71.9" height="72"/>
	<rect x="-1008.1" y="431.8" class="st1" width="71.9" height="72"/>
	<rect x="-864.1" y="217.2" class="st1" width="71.9" height="72"/>
	<rect x="-720" y="217.2" class="st1" width="71.9" height="72"/>
	<rect x="-576" y="217.2" class="st1" width="71.9" height="72"/>
	<rect x="-432" y="217.2" class="st1" width="71.9" height="72"/>
	<rect x="503.5" y="-719.9" class="st1" width="71.9" height="72"/>
	<rect x="647.5" y="-719.9" class="st1" width="71.9" height="72"/>
	<rect x="791.5" y="-719.9" class="st1" width="71.9" height="72"/>
	<rect x="935.5" y="-719.9" class="st1" width="71.9" height="72"/>
	<rect x="1079.5" y="-719.9" class="st1" width="71.9" height="72"/>
	<rect x="1223.5" y="-719.9" class="st1" width="71.9" height="72"/>
	<rect x="1367.5" y="-719.9" class="st1" width="71.9" height="72"/>
	<rect x="1511.6" y="-719.9" class="st1" width="71.9" height="72"/>
	<rect x="503.5" y="-503.9" class="st1" width="71.9" height="72"/>
	<rect x="504.1" y="-359.9" class="st1" width="71.9" height="72"/>
	<rect x="648" y="-359.9" class="st1" width="71.9" height="72"/>
	<rect x="504.4" y="-215.2" class="st1" width="71.9" height="72"/>
	<rect x="504.1" y="-72" class="st1" width="71.9" height="72"/>
	<rect x="647.9" y="-71.8" class="st1" width="71.9" height="72"/>
	<rect x="648" y="-215.2" class="st1" width="71.9" height="72"/>
	<rect x="791.9" y="-215.2" class="st1" width="71.9" height="72"/>
	<rect x="936.3" y="-215.7" class="st1" width="71.9" height="72"/>
	<rect x="648" y="-504.5" class="st1" width="71.9" height="72"/>
	<rect x="792" y="-359.9" class="st1" width="71.9" height="72"/>
	<rect x="935.9" y="-359.9" class="st1" width="71.9" height="72"/>
	<rect x="1080.4" y="-359.9" class="st1" width="71.9" height="72"/>
	<rect x="1224.2" y="-359.9" class="st1" width="71.9" height="72"/>
	<rect x="1368.3" y="-360.2" class="st1" width="71.9" height="72"/>
	<rect x="792.2" y="-503.9" class="st1" width="71.9" height="72"/>
	<rect x="935.9" y="-503.8" class="st1" width="71.9" height="72"/>
	<rect x="1079.9" y="-503.9" class="st1" width="71.9" height="72"/>
	<rect x="1224.2" y="-503.9" class="st1" width="71.9" height="72"/>
	<rect x="1367.9" y="-503.9" class="st1" width="71.9" height="72"/>
	<rect x="1512.2" y="-503.9" class="st1" width="71.9" height="72"/>
	<rect x="1656" y="-503.9" class="st1" width="71.9" height="72"/>
	<rect x="1656" y="-431.9" class="st1" width="71.9" height="72"/>
	<rect x="1656" y="-359.9" class="st1" width="71.9" height="72"/>
	<rect x="1656" y="-287.9" class="st1" width="71.9" height="72"/>
	<rect x="0" y="-575.9" class="st1" width="71.9" height="72"/>
	<rect x="72" y="-575.9" class="st1" width="71.9" height="72"/>
	<rect x="72" y="-503.9" class="st1" width="71.9" height="72"/>
	<rect x="0" y="-503.9" class="st1" width="71.9" height="72"/>
	<rect x="1080.3" y="-215.7" class="st1" width="71.9" height="72"/>
	<rect x="1224" y="-215.7" class="st1" width="71.9" height="72"/>
	<rect x="1368.3" y="-216.5" class="st1" width="71.9" height="72"/>
	<rect x="1512.2" y="-216" class="st1" width="71.9" height="72"/>
	<rect x="0" y="0" transform="matrix(-1 -8.978430e-011 8.978430e-011 -1 71.8811 72)" class="st1" width="71.9" height="72"/>
</g>
<g id="Layer_1">
	<g>
		<path class="st2" d="M-1136.1-306.4v4c0,0.6-0.4,1-1,1h-6c-0.6,0-1-0.4-1-1v-12"/>
		<path class="st2" d="M-1088.1-314.4v12c0,0.6-0.4,1-1,1h-6c-0.6,0-1-0.4-1-1v-4"/>
		<path class="st3" d="M-1144.1-319v11.6c0,1.1,0.9,2,2,2h52c1.1,0,2-0.9,2-2V-319c0-0.4-0.1-0.7-0.2-1.1l-3.1-8.7l-3.2-12.4
			c-0.4-1.4-1.5-2.4-2.8-2.8c-3.3-0.9-11.1-2.4-18.8-2.4s-15.5,1.5-18.8,2.4c-1.4,0.4-2.4,1.4-2.8,2.8l-3.2,12.4l-3.1,8.7
			C-1144.1-319.8-1144.1-319.4-1144.1-319z"/>
		<path class="st3" d="M-1090.7-331.5c2.3-0.7,4.4-0.6,5,1.4c0.7,2.1-0.9,3.4-3.2,4.1"/>
		<path class="st3" d="M-1141.6-331.5c-2.3-0.7-4.4-0.6-5,1.4c-0.7,2.1,0.9,3.4,3.2,4.1"/>
		<path class="st3" d="M-1131.1-315h-6c-0.6,0-1-0.4-1-1v-3c0-0.6,0.4-1,1-1l6,1c0.6,0,1,0.4,1,1v2
			C-1130.1-315.4-1130.6-315-1131.1-315z"/>
		<path class="st3" d="M-1101.1-315h6c0.6,0,1-0.4,1-1v-3c0-0.6-0.4-1-1-1l-6,1c-0.6,0-1,0.4-1,1v2
			C-1102.1-315.4-1101.7-315-1101.1-315z"/>
		<line class="st3" x1="-1124.2" y1="-315.6" x2="-1108.1" y2="-315.6"/>
		<line class="st3" x1="-1120.4" y1="-340.4" x2="-1112.3" y2="-340.4"/>
		<line class="st2" x1="-1140.9" y1="-328.4" x2="-1091" y2="-328.4"/>
	</g>
	<g>
		<path class="st2" d="M-988.1-299.4v3c0,0.6-0.4,1-1,1h-6c-0.6,0-1-0.4-1-1v-12"/>
		<path class="st2" d="M-948.1-306.4v10c0,0.6-0.4,1-1,1h-6c-0.6,0-1-0.4-1-1v-3"/>
		<path class="st3" d="M-989.1-309h-6c-0.6,0-1-0.4-1-1v-3c0-0.6,0.4-1,1-1l6,1c0.6,0,1,0.4,1,1v2C-988.1-309.4-988.6-309-989.1-309
			z"/>
		<path class="st3" d="M-955.1-309h6c0.6,0,1-0.4,1-1v-3c0-0.6-0.4-1-1-1l-6,1c-0.6,0-1,0.4-1,1v2C-956.1-309.4-955.7-309-955.1-309
			z"/>
		<line class="st3" x1="-980.2" y1="-309.6" x2="-964.1" y2="-309.6"/>
		<line class="st3" x1="-976.4" y1="-347.4" x2="-968.3" y2="-347.4"/>
		<line class="st2" x1="-995.9" y1="-320.4" x2="-948" y2="-320.4"/>
		<line class="st2" x1="-995.9" y1="-343.4" x2="-948" y2="-343.4"/>
		<polyline class="st3" points="-947.1,-333.4 -944.1,-333.4 -944.1,-320.4 -947.1,-320.4 		"/>
		<polyline class="st3" points="-996.1,-320.5 -1000.1,-320.5 -1000.1,-333.5 -996.1,-333.5 		"/>
		<path class="st3" d="M-952.1-299.5h-40c-2.2,0-4-1.9-4-4.3v-43.2c0-2.4,1.8-4.3,4-4.3h40c2.2,0,4,1.9,4,4.3v43.2
			C-948.1-301.5-949.9-299.5-952.1-299.5z"/>
	</g>
	<g>
		<path class="st3" d="M-1094.1,56h-44c-3.3,0-6-2.7-6-6V22c0-3.3,2.7-6,6-6h44c3.3,0,6,2.7,6,6v28
			C-1088.1,53.3-1090.8,56-1094.1,56z"/>
		<line class="st4" x1="-1143.1" y1="54.9" x2="-1124.7" y2="36.5"/>
		<line class="st4" x1="-1090" y1="54.2" x2="-1107.9" y2="36.3"/>
		<path class="st4" d="M-1089.2,17.1l-22.8,22.8c-2.3,2.3-6.1,2.3-8.5,0l-22.6-22.6"/>
	</g>
	<g>
		<line class="st3" x1="-988.3" y1="16" x2="-956.4" y2="16"/>
		<line class="st3" x1="-988.3" y1="24" x2="-956.4" y2="24"/>
		<line class="st3" x1="-988.3" y1="32" x2="-956.4" y2="32"/>
		<line class="st3" x1="-976.3" y1="40" x2="-968.4" y2="40"/>
		<path class="st3" d="M-1000.1,32v28c0,2.2,1.8,4,4,4h48c2.2,0,4-1.8,4-4V31.9l-28,16.1L-1000.1,32z"/>
		<path class="st3" d="M-996.2,33.3V12c0-2.2,1.8-4,4-4h39.9c2.2,0,4,1.8,4,4v21.3"/>
	</g>
	<g>
		<circle class="st5" cx="-810.1" cy="44.4" r="4"/>
		<path class="st2" d="M-800.1,15.9v44c0,3.3-2.7,6-6,6h-44c-3.3,0-6-2.7-6-6v-44c0-3.3,2.7-6,6-6h44
			C-802.8,9.9-800.1,12.6-800.1,15.9z"/>
		<path class="st6" d="M-833.6,33.9h-1c-0.6,0-1-0.4-1-1v-1c0-0.6,0.4-1,1-1h1c0.6,0,1,0.4,1,1v1C-832.6,33.5-833.1,33.9-833.6,33.9
			z"/>
		<path class="st6" d="M-821.6,33.9h-1c-0.6,0-1-0.4-1-1v-1c0-0.6,0.4-1,1-1h1c0.6,0,1,0.4,1,1v1C-820.6,33.5-821.1,33.9-821.6,33.9
			z"/>
		<path class="st6" d="M-809.6,33.9h-1c-0.6,0-1-0.4-1-1v-1c0-0.6,0.4-1,1-1h1c0.6,0,1,0.4,1,1v1C-808.6,33.5-809.1,33.9-809.6,33.9
			z"/>
		<path class="st6" d="M-845.6,45.9h-1c-0.6,0-1-0.4-1-1v-1c0-0.6,0.4-1,1-1h1c0.6,0,1,0.4,1,1v1C-844.6,45.5-845.1,45.9-845.6,45.9
			z"/>
		<path class="st6" d="M-833.6,45.9h-1c-0.6,0-1-0.4-1-1v-1c0-0.6,0.4-1,1-1h1c0.6,0,1,0.4,1,1v1C-832.6,45.5-833.1,45.9-833.6,45.9
			z"/>
		<path class="st6" d="M-821.7,45.7h-1c-0.6,0-1-0.4-1-1v-1c0-0.6,0.4-1,1-1h1c0.6,0,1,0.4,1,1v1C-820.7,45.2-821.2,45.7-821.7,45.7
			z"/>
		<path class="st6" d="M-845.6,57.9h-1c-0.6,0-1-0.4-1-1v-1c0-0.6,0.4-1,1-1h1c0.6,0,1,0.4,1,1v1C-844.6,57.5-845.1,57.9-845.6,57.9
			z"/>
		<path class="st6" d="M-833.6,57.9h-1c-0.6,0-1-0.4-1-1v-1c0-0.6,0.4-1,1-1h1c0.6,0,1,0.4,1,1v1C-832.6,57.5-833.1,57.9-833.6,57.9
			z"/>
		<path class="st6" d="M-821.6,57.9h-1c-0.6,0-1-0.4-1-1v-1c0-0.6,0.4-1,1-1h1c0.6,0,1,0.4,1,1v1C-820.6,57.5-821.1,57.9-821.6,57.9
			z"/>
		<path class="st6" d="M-809.6,57.9h-1c-0.6,0-1-0.4-1-1v-1c0-0.6,0.4-1,1-1h1c0.6,0,1,0.4,1,1v1C-808.6,57.5-809.1,57.9-809.6,57.9
			z"/>
		<line class="st2" x1="-800.4" y1="22.4" x2="-855.4" y2="22.4"/>
		<line class="st7" x1="-838.1" y1="16.3" x2="-818.1" y2="16.3"/>
		<g>
			<path class="st6" d="M-847.1,9.1c0-1.7,1.3-3,3-3s3,1.3,3,3"/>
		</g>
		<g>
			<path class="st6" d="M-815.1,9.1c0-1.7,1.3-3,3-3s3,1.3,3,3"/>
		</g>
		<circle class="st5" cx="-810.1" cy="44.4" r="4"/>
		<path class="st2" d="M-800.1,15.9v44c0,3.3-2.7,6-6,6h-44c-3.3,0-6-2.7-6-6v-44c0-3.3,2.7-6,6-6h44
			C-802.8,9.9-800.1,12.6-800.1,15.9z"/>
		<path class="st6" d="M-833.6,33.9h-1c-0.6,0-1-0.4-1-1v-1c0-0.6,0.4-1,1-1h1c0.6,0,1,0.4,1,1v1C-832.6,33.5-833.1,33.9-833.6,33.9
			z"/>
		<path class="st6" d="M-821.6,33.9h-1c-0.6,0-1-0.4-1-1v-1c0-0.6,0.4-1,1-1h1c0.6,0,1,0.4,1,1v1C-820.6,33.5-821.1,33.9-821.6,33.9
			z"/>
		<path class="st6" d="M-809.6,33.9h-1c-0.6,0-1-0.4-1-1v-1c0-0.6,0.4-1,1-1h1c0.6,0,1,0.4,1,1v1C-808.6,33.5-809.1,33.9-809.6,33.9
			z"/>
		<path class="st6" d="M-845.6,45.9h-1c-0.6,0-1-0.4-1-1v-1c0-0.6,0.4-1,1-1h1c0.6,0,1,0.4,1,1v1C-844.6,45.5-845.1,45.9-845.6,45.9
			z"/>
		<path class="st6" d="M-833.6,45.9h-1c-0.6,0-1-0.4-1-1v-1c0-0.6,0.4-1,1-1h1c0.6,0,1,0.4,1,1v1C-832.6,45.5-833.1,45.9-833.6,45.9
			z"/>
		<path class="st6" d="M-821.7,45.7h-1c-0.6,0-1-0.4-1-1v-1c0-0.6,0.4-1,1-1h1c0.6,0,1,0.4,1,1v1C-820.7,45.2-821.2,45.7-821.7,45.7
			z"/>
		<path class="st6" d="M-845.6,57.9h-1c-0.6,0-1-0.4-1-1v-1c0-0.6,0.4-1,1-1h1c0.6,0,1,0.4,1,1v1C-844.6,57.5-845.1,57.9-845.6,57.9
			z"/>
		<path class="st6" d="M-833.6,57.9h-1c-0.6,0-1-0.4-1-1v-1c0-0.6,0.4-1,1-1h1c0.6,0,1,0.4,1,1v1C-832.6,57.5-833.1,57.9-833.6,57.9
			z"/>
		<path class="st6" d="M-821.6,57.9h-1c-0.6,0-1-0.4-1-1v-1c0-0.6,0.4-1,1-1h1c0.6,0,1,0.4,1,1v1C-820.6,57.5-821.1,57.9-821.6,57.9
			z"/>
		<path class="st6" d="M-809.6,57.9h-1c-0.6,0-1-0.4-1-1v-1c0-0.6,0.4-1,1-1h1c0.6,0,1,0.4,1,1v1C-808.6,57.5-809.1,57.9-809.6,57.9
			z"/>
		<line class="st2" x1="-800.4" y1="22.4" x2="-855.4" y2="22.4"/>
		<line class="st7" x1="-838.1" y1="16.3" x2="-818.1" y2="16.3"/>
		<g>
			<path class="st6" d="M-847.1,9.1c0-1.7,1.3-3,3-3s3,1.3,3,3"/>
		</g>
		<g>
			<path class="st6" d="M-815.1,9.1c0-1.7,1.3-3,3-3s3,1.3,3,3"/>
		</g>
	</g>
	<g>
		<path class="st3" d="M-389-351.4h-31c-2.2,0-4,1.8-4,4v48c0,2.2,1.8,4,4,4h48c2.2,0,4-1.8,4-4v-31.1L-389-351.4z"/>
		<line class="st3" x1="-368.1" y1="-323.5" x2="-424.1" y2="-323.5"/>
		<line class="st3" x1="-416.1" y1="-317" x2="-408.9" y2="-317"/>
	</g>
	<g>
		<path class="st7" d="M-832.5-333.5l-0.2-13.4c0-2.5,2.1-4.6,4.6-4.6l0,0"/>
		<line class="st7" x1="-831.7" y1="-303.8" x2="-832" y2="-315.3"/>
		<polyline class="st3" points="-832,-315.3 -855.7,-306.1 -855,-313.5 -832.5,-333.5 		"/>
		<polyline class="st3" points="-827.7,-295.3 -837.7,-295.3 -837.7,-298.8 -831.7,-303.8 		"/>
		<path class="st7" d="M-823.8-333.6l0.3-13.3c0-2.5-2.1-4.6-4.6-4.6l0,0"/>
		<line class="st7" x1="-824.4" y1="-303.8" x2="-824.2" y2="-315.3"/>
		<polyline class="st3" points="-824.2,-315.4 -800.5,-306.1 -801.2,-313.5 -823.7,-333.5 		"/>
		<polyline class="st3" points="-828.5,-295.3 -818.5,-295.3 -818.5,-298.8 -824.4,-303.8 		"/>
	</g>
	<g>
		<path class="st7" d="M-962.1,248.9l13.4-0.2c2.5,0,4.6,2.1,4.6,4.6l0,0"/>
		<line class="st7" x1="-991.7" y1="249.6" x2="-980.3" y2="249.3"/>
		<polyline class="st3" points="-980.3,249.3 -989.4,225.6 -982.1,226.3 -962.1,248.9 		"/>
		<polyline class="st3" points="-1000.2,253.6 -1000.2,243.6 -996.7,243.6 -991.7,249.6 		"/>
		<path class="st7" d="M-961.9,257.5l13.3,0.3c2.5,0,4.6-2.1,4.6-4.6l0,0"/>
		<line class="st7" x1="-991.8" y1="256.9" x2="-980.3" y2="257.1"/>
		<polyline class="st3" points="-980.2,257.1 -989.4,280.8 -982.1,280.2 -962.1,257.6 		"/>
		<polyline class="st3" points="-1000.2,252.8 -1000.2,262.8 -996.7,262.8 -991.8,256.9 		"/>
	</g>
	<g>
		<path class="st3" d="M-665.4-332.7c0,10.3-18.7,37.3-18.7,37.3s-18.7-27-18.7-37.3s8.4-18.7,18.7-18.7S-665.4-343.1-665.4-332.7z"
			/>
		<circle class="st3" cx="-684.1" cy="-332.7" r="5.6"/>
	</g>
	<g>
		<polyline class="st3" points="-528.1,-339.5 -512.1,-343.5 -512.1,-299.5 -530.1,-295.5 		"/>
		<line class="st3" x1="-530.1" y1="-295.5" x2="-550.1" y2="-299.5"/>
		<line class="st3" x1="-530.1" y1="-331.5" x2="-530.1" y2="-295.5"/>
		<line class="st3" x1="-550.1" y1="-331.5" x2="-550.1" y2="-300.5"/>
		<path class="st3" d="M-550.1-343.5"/>
		<polyline class="st3" points="-550.1,-299.5 -568.1,-295.5 -568.1,-338.5 -552.1,-343.5 		"/>
		<path class="st3" d="M-528.1-338.7c0,7-12,25.3-12,25.3s-12-18.3-12-25.3c0-7,5.4-12.6,12-12.6
			C-533.5-351.4-528.1-345.7-528.1-338.7z"/>
		<ellipse class="st3" cx="-540.1" cy="-338.7" rx="3.6" ry="3.8"/>
	</g>
	<g>
		<path class="st3" d="M-809.5,243.9c0,10.3-18.7,37.3-18.7,37.3s-18.7-27-18.7-37.3c0-10.3,8.4-18.7,18.7-18.7
			S-809.5,233.6-809.5,243.9z"/>
		<circle class="st3" cx="-828.1" cy="243.9" r="5.6"/>
	</g>
	<g>
		<polyline class="st3" points="-672.1,237.2 -656.1,233.2 -656.1,277.2 -674.1,281.2 		"/>
		<line class="st3" x1="-674.1" y1="281.2" x2="-694.1" y2="277.2"/>
		<line class="st3" x1="-674.1" y1="245.2" x2="-674.1" y2="281.2"/>
		<line class="st3" x1="-694.1" y1="245.2" x2="-694.1" y2="276.2"/>
		<path class="st3" d="M-694.1,233.2"/>
		<polyline class="st3" points="-694.1,277.2 -712.1,281.2 -712.1,238.2 -696.1,233.2 		"/>
		<path class="st3" d="M-672.1,237.9c0,7-12,25.3-12,25.3s-12-18.3-12-25.3c0-7,5.4-12.6,12-12.6
			C-677.5,225.3-672.1,230.9-672.1,237.9z"/>
		<ellipse class="st3" cx="-684.1" cy="237.9" rx="3.6" ry="3.8"/>
	</g>
	<g>
		<polygon class="st3" points="-1106.1,281.2 -1126.1,281.2 -1126.1,233.2 -1106.1,225.2 		"/>
		<rect x="-1106.1" y="244.2" class="st3" width="18" height="37"/>
		<rect x="-1144.1" y="255.2" class="st3" width="18" height="26"/>
		<line class="st3" x1="-1121.1" y1="237.4" x2="-1121.1" y2="281.2"/>
		<line class="st3" x1="-1116.1" y1="237.4" x2="-1116.1" y2="281.2"/>
		<line class="st3" x1="-1111.1" y1="237.4" x2="-1111.1" y2="281.2"/>
		<line class="st3" x1="-1093.1" y1="265" x2="-1101.1" y2="265"/>
		<line class="st3" x1="-1093.1" y1="270" x2="-1101.1" y2="270"/>
		<line class="st3" x1="-1093.1" y1="275" x2="-1101.1" y2="275"/>
		<line class="st3" x1="-1093.1" y1="250" x2="-1101.1" y2="250"/>
		<line class="st3" x1="-1093.1" y1="255" x2="-1101.1" y2="255"/>
		<line class="st3" x1="-1093.1" y1="260" x2="-1101.1" y2="260"/>
		<rect x="-1138.1" y="264.2" class="st3" width="6" height="6"/>
	</g>
	<g>
		<g>
			<g>
				<path class="st6" d="M-101.1-323.1H-115c-1,0-1.8-0.8-1.8-1.8v-32.9c0-1,0.8-1.8,1.8-1.8h13.9c1,0,1.8,0.8,1.8,1.8v32.9
					C-99.3-323.9-100.1-323.1-101.1-323.1z M-113.2-326.7h10.4V-356h-10.4V-326.7z"/>
			</g>
			<g>
				<path class="st6" d="M-102-350h-11.8c-1,0-1.8-0.8-1.8-1.8s0.8-1.8,1.8-1.8h11.8c1,0,1.8,0.8,1.8,1.8S-101-350-102-350z"/>
			</g>
		</g>
		<g>
			<g>
				<path class="st6" d="M-117.5-287.3c-1.8,0-3.2-1.5-3.2-3.2v-0.6c0-1,0.8-1.8,1.8-1.8c0.6,0,1.2,0.3,1.5,0.8
					c0.3-0.5,0.9-0.8,1.5-0.8c1,0,1.8,0.8,1.8,1.8v0.6C-114.3-288.7-115.7-287.3-117.5-287.3z"/>
			</g>
			<g>
				<path class="st6" d="M-98.6-287.3c-1.8,0-3.2-1.5-3.2-3.2v-0.6c0-1,0.8-1.8,1.8-1.8c0.6,0,1.2,0.3,1.5,0.8
					c0.3-0.5,0.9-0.8,1.5-0.8c1,0,1.8,0.8,1.8,1.8v0.6C-95.4-288.7-96.8-287.3-98.6-287.3z"/>
			</g>
			<g>
				<path class="st6" d="M-98.6-289.9h-18.8c-3.6,0-6.6-2.9-6.6-6.6v-23.6c0-3.6,2.9-6.6,6.6-6.6h18.8c3.6,0,6.6,2.9,6.6,6.6v23.6
					C-92.1-292.9-95-289.9-98.6-289.9z M-117.5-323.1c-1.7,0-3,1.4-3,3v23.6c0,1.7,1.4,3,3,3h18.8c1.7,0,3-1.4,3-3v-23.6
					c0-1.7-1.4-3-3-3H-117.5z"/>
			</g>
			<g>
				<path class="st6" d="M-112.9-299.4c-1,0-1.8-0.8-1.8-1.8v-14.2c0-1,0.8-1.8,1.8-1.8c1,0,1.8,0.8,1.8,1.8v14.2
					C-111.1-300.2-111.9-299.4-112.9-299.4z"/>
			</g>
			<g>
				<path class="st6" d="M-103.3-299.4c-1,0-1.8-0.8-1.8-1.8v-14.2c0-1,0.8-1.8,1.8-1.8c1,0,1.8,0.8,1.8,1.8v14.2
					C-101.5-300.2-102.3-299.4-103.3-299.4z"/>
			</g>
		</g>
	</g>
	<g>
		<g>
			<path class="st6" d="M48.3-339.6c-0.6,0-1.3-0.4-1.5-1c-1.8-4.4-6-7.3-10.8-7.3c-4.8,0-9,2.9-10.7,7.3c-0.3,0.8-1.3,1.2-2.1,0.9
				c-0.8-0.3-1.2-1.3-0.9-2.1c2.3-5.7,7.7-9.3,13.8-9.3c6.1,0,11.5,3.7,13.8,9.4c0.3,0.8-0.1,1.8-0.9,2.1
				C48.7-339.6,48.5-339.6,48.3-339.6z"/>
		</g>
		<g>
			<path class="st6" d="M43.3-329.4c-0.8,0-1.5-0.6-1.6-1.4l-1.6-9.6c-0.1-0.9,0.5-1.7,1.3-1.9c0.9-0.1,1.7,0.5,1.9,1.3l1.6,9.6
				c0.1,0.9-0.5,1.7-1.3,1.9C43.4-329.5,43.4-329.4,43.3-329.4z"/>
		</g>
		<g>
			<path class="st6" d="M41.7-317.8c-1.3,0-2.5-1-2.7-2.3l-1.2-7.6c-0.1-0.4,0-0.9,0.3-1.2l3.6-5c0.5-0.7,1.5-0.9,2.3-0.4l5,3.6
				c0.4,0.3,0.6,0.6,0.7,1.1l1.2,7.6c0.2,1.5-0.8,2.9-2.2,3.1l-6.4,1C42-317.8,41.9-317.8,41.7-317.8z M41.1-327.5l1,6.4l5.3-0.9
				l-1-6.4l-3.1-2.2L41.1-327.5z"/>
		</g>
		<g>
			<path class="st3" d="M53.4-327.4"/>
		</g>
		<g>
			<path class="st6" d="M18.6-296.5c-0.9,0-1.6-0.7-1.6-1.6v-42.3c0-0.9,0.7-1.6,1.6-1.6c0.9,0,1.6,0.7,1.6,1.6v42.3
				C20.2-297.2,19.5-296.5,18.6-296.5z"/>
		</g>
		<g>
			<path class="st6" d="M53.4-296.5c-0.9,0-1.6-0.7-1.6-1.6v-42.3c0-0.9,0.7-1.6,1.6-1.6c0.9,0,1.6,0.7,1.6,1.6v42.3
				C55-297.2,54.3-296.5,53.4-296.5z"/>
		</g>
		<g>
			<path class="st6" d="M62.1-295.7H9.9c-3.3,0-6-2.7-6-6v-34.8c0-3.3,2.7-6,6-6h52.2c3.3,0,6,2.7,6,6v34.8
				C68.1-298.4,65.4-295.7,62.1-295.7z M9.9-339.2c-1.5,0-2.7,1.2-2.7,2.7v34.8c0,1.5,1.2,2.7,2.7,2.7h52.2c1.5,0,2.7-1.2,2.7-2.7
				v-34.8c0-1.5-1.2-2.7-2.7-2.7H9.9z"/>
		</g>
	</g>
	<g>
		<path class="st3" d="M-690,38.8"/>
		<path class="st3" d="M-690,39c0,0,1.6,4.5-2,4.9c-11,1.3-20.2,6.1-20.2,19.2h56.1c0-13.1-9.2-17.9-20.2-19.2c-3.6-0.4-2-4.9-2-4.9
			"/>
		<path class="st3" d="M-690,38.9c-4.9-3.2-8.3-10-8.3-15.8c0-7.8,6.4-14.2,14.2-14.2c7.8,0,14.2,6.4,14.2,14.2
			c0,5.7-3.4,12.5-8.3,15.7"/>
	</g>
	<g>
		<circle class="st3" cx="-1116.1" cy="-539.9" r="28"/>
		<g>
			<path class="st6" d="M-1116.3-524.7h-5.9l4.6-21.8h5.9L-1116.3-524.7z M-1116.6-551.7c0-1.1,0.3-2,0.9-2.6
				c0.6-0.6,1.5-0.9,2.6-0.9c1,0,1.7,0.2,2.2,0.6c0.5,0.4,0.7,1,0.7,1.7c0,1-0.3,1.9-0.9,2.5c-0.6,0.6-1.5,1-2.7,1
				C-1115.6-549.3-1116.6-550.1-1116.6-551.7z"/>
		</g>
	</g>
	<g>
		<circle class="st3" cx="-972.1" cy="-539.9" r="28"/>
		<g>
			<path class="st6" d="M-976-535v-1.5c0-1.3,0.3-2.4,0.8-3.3c0.5-0.9,1.5-2,3-3c1.4-1,2.3-1.8,2.8-2.4c0.4-0.6,0.7-1.3,0.7-2.1
				c0-0.9-0.3-1.5-1-2c-0.6-0.5-1.5-0.7-2.7-0.7c-2,0-4.3,0.7-6.8,2l-2.2-4.4c3-1.7,6.1-2.5,9.5-2.5c2.7,0,4.9,0.7,6.6,2
				c1.6,1.3,2.4,3.1,2.4,5.3c0,1.5-0.3,2.7-1,3.8c-0.7,1.1-1.9,2.3-3.8,3.6c-1.3,0.9-2.1,1.7-2.4,2.2c-0.3,0.5-0.5,1.1-0.5,1.9v1.2
				H-976z M-976.6-528.2c0-1.1,0.3-2,0.9-2.5c0.6-0.6,1.5-0.9,2.6-0.9c1.1,0,2,0.3,2.6,0.9c0.6,0.6,0.9,1.4,0.9,2.5
				c0,1.1-0.3,1.9-0.9,2.5c-0.6,0.6-1.5,0.9-2.6,0.9c-1.1,0-2-0.3-2.6-0.9C-976.3-526.3-976.6-527.1-976.6-528.2z"/>
		</g>
	</g>
	<g>
		<path class="st3" d="M-950.1-151.4h-44c-3.3,0-6-2.7-6-6v0c0-3.3,2.7-6,6-6h44c3.3,0,6,2.7,6,6v0
			C-944.1-154.1-946.8-151.4-950.1-151.4z"/>
		<path class="st3" d="M-958.1-195.6h-28c-3.3,0-6,2.7-6,6v26.2h40v-26.2C-952.1-192.9-954.8-195.6-958.1-195.6z"/>
		<path class="st3" d="M-964-207.4h-16.1c-2.2,0-4,1.8-4,4v7.8h24.1v-7.8C-960-205.6-961.8-207.4-964-207.4z"/>
		<line class="st8" x1="-989.3" y1="-165.1" x2="-954.9" y2="-192.8"/>
	</g>
	<g>
		<line class="st3" x1="-542.4" y1="20.3" x2="-542.4" y2="22.3"/>
		<line class="st3" x1="-537.7" y1="20.3" x2="-537.7" y2="22.3"/>
		<path class="st3" d="M-534.6,14.1c0,2.2-1.3,4.7-3.1,6c-0.7,0.5-1.5,0.8-2.4,0.8c-0.8,0-1.6-0.3-2.3-0.7c-1.9-1.2-3.2-3.9-3.2-6.1
			c0-3,2.5-5.5,5.5-5.5S-534.6,11.1-534.6,14.1z"/>
		<path class="st3" d="M-529.3,29.1c0-0.1,0-0.2,0-0.3l0,0c-0.4-3.5-3.9-5.1-7.7-5.7c-1-0.2-3.1,2.5-3.1,2.5s-2.1-2.6-3.1-2.5
			c-3.8,0.6-7.4,2.4-7.7,5.9c0,0,0,0,0,0.1l-1,15.5c0,1.3,1,2.3,2.3,2.3s2.3-1,2.3-2.3l0.6-8.2l-0.4,8.7c0,0.1,0,0.2,0,0.3
			c0,0.1,0,0.2,0,0.3v15.5c0,1.3,1,2.3,2.3,2.3s2.3-1,2.3-2.3l2-15.4h1.4l2,15.4c0,1.3,1,2.3,2.3,2.3s2.3-1,2.3-2.3V45.6
			c0-0.1,0-0.2,0-0.3c0-0.1,0-0.2,0-0.3l-1-9l0.9,8.5c0,1.3,0.7,2.3,2,2.3s2.3-1,2.3-2.3L-529.3,29.1z"/>
	</g>
	<g>
		<line class="st3" x1="-1118.4" y1="452.1" x2="-1118.4" y2="454.1"/>
		<line class="st3" x1="-1113.8" y1="452.1" x2="-1113.8" y2="454.1"/>
		<path class="st3" d="M-1110.7,445.9c0,2.2-1.3,4.7-3.1,6c-0.7,0.5-1.5,0.8-2.4,0.8c-0.8,0-1.6-0.3-2.3-0.7
			c-1.9-1.2-3.2-3.9-3.2-6.1c0-3,2.5-5.5,5.5-5.5S-1110.7,442.9-1110.7,445.9z"/>
		<path class="st3" d="M-1105.3,460.9c0-0.1,0-0.2,0-0.3l0,0c-0.4-3.5-3.9-5.1-7.7-5.7c-1-0.2-3.1,2.5-3.1,2.5s-2.1-2.6-3.1-2.5
			c-3.8,0.6-7.4,2.4-7.7,5.9c0,0,0,0,0,0.1l-1,15.5c0,1.3,1,2.3,2.3,2.3s2.3-1,2.3-2.3l0.6-8.2l-0.4,8.7c0,0.1,0,0.2,0,0.3
			c0,0.1,0,0.2,0,0.3v15.5c0,1.3,1,2.3,2.3,2.3s2.3-1,2.3-2.3l2-15.4h1.4l2,15.4c0,1.3,1,2.3,2.3,2.3s2.3-1,2.3-2.3v-15.5
			c0-0.1,0-0.2,0-0.3c0-0.1,0-0.2,0-0.3l-1-9l0.9,8.5c0,1.3,0.7,2.3,2,2.3s2.3-1,2.3-2.3L-1105.3,460.9z"/>
	</g>
	<g>
		<g>
			<path class="st6" d="M-224.1-293.8h-56c-0.8,0-1.5-0.7-1.5-1.5s0.7-1.5,1.5-1.5h56c0.8,0,1.5,0.7,1.5,1.5
				S-223.2-293.8-224.1-293.8z"/>
		</g>
		<g>
			<rect x="-235.6" y="-324.7" class="st6" width="3" height="14.3"/>
		</g>
		<g>
			<rect x="-225.6" y="-341.7" class="st6" width="3" height="31.3"/>
		</g>
		<g>
			<path class="st6" d="M-227.4-335.6c-1.6,0-3.2-0.6-4.4-1.8c-2.4-2.4-2.4-6.3,0-8.7c0.6-0.6,1.5-0.6,2.1,0c0.6,0.6,0.6,1.5,0,2.1
				c-1.2,1.2-1.2,3.3,0,4.5c1.2,1.2,3.3,1.2,4.5,0c0.6-0.6,1.5-0.6,2.1,0c0.6,0.6,0.6,1.5,0,2.1
				C-224.2-336.2-225.8-335.6-227.4-335.6z"/>
		</g>
		<g>
			<path class="st2" d="M-275.2-331.8"/>
		</g>
		<g>
			<path class="st2" d="M-245.3-331.8"/>
		</g>
		<g>
			<path class="st6" d="M-264.2-332.3c-0.2,0-0.4,0-0.6-0.1c-0.8-0.3-1.1-1.2-0.8-2c1.1-2.6,3.6-4.3,6.5-4.3c2.8,0,5.3,1.6,6.4,4.2
				c0.3,0.8,0,1.6-0.8,2c-0.8,0.3-1.6,0-2-0.8c-0.6-1.5-2.1-2.4-3.7-2.4c-1.6,0-3.1,1-3.7,2.5C-263-332.7-263.6-332.3-264.2-332.3z"
				/>
		</g>
		<g>
			<path class="st2" d="M-262.2-331.8"/>
		</g>
		<g>
			<path class="st2" d="M-256-331.8"/>
		</g>
		<g>
			<rect x="-274" y="-334.2" class="st6" width="9.5" height="3"/>
		</g>
		<g>
			<rect x="-269.8" y="-334.2" class="st6" width="25.7" height="3"/>
		</g>
		<g>
			<path class="st6" d="M-255.1-335.8c-0.4,0-0.8-0.1-1-0.4c-0.6-0.6-0.6-1.5,0-2.1l4.1-4.2c0.6-0.6,1.5-0.6,2.1,0
				c0.6,0.6,0.6,1.5,0,2.1l-4.1,4.2C-254.3-335.9-254.7-335.8-255.1-335.8z"/>
		</g>
		<g>
			<path class="st6" d="M-229.1-303.8c-3.6,0-6.5-2.9-6.5-6.5c0-0.8,0.7-1.5,1.5-1.5s1.5,0.7,1.5,1.5c0,1.9,1.6,3.5,3.5,3.5
				s3.5-1.6,3.5-3.5c0-0.8,0.7-1.5,1.5-1.5s1.5,0.7,1.5,1.5C-222.6-306.7-225.5-303.8-229.1-303.8z"/>
		</g>
		<g>
			<path class="st6" d="M-234.1-323.2c-0.8,0-1.5-0.7-1.5-1.5c0-3.6-2.9-6.5-6.5-6.5c-0.8,0-1.5-0.7-1.5-1.5s0.7-1.5,1.5-1.5
				c5.2,0,9.5,4.3,9.5,9.5C-232.6-323.8-233.2-323.2-234.1-323.2z"/>
		</g>
		<g>
			<path class="st3" d="M-233.5-349"/>
		</g>
		<g>
			<path class="st6" d="M-224.1-336.1c-0.8,0-1.5-0.7-1.5-1.5v-3.8l-11.4-9c-0.7-0.5-0.8-1.5-0.3-2.1c0.5-0.7,1.5-0.8,2.1-0.3
				l12,9.4c0.4,0.3,0.6,0.7,0.6,1.2v4.5C-222.6-336.8-223.2-336.1-224.1-336.1z"/>
		</g>
		<g>
			<path class="st6" d="M-247.1-293.8h-24c-3,0-5.5-2.5-5.5-5.5v-48c0-3,2.5-5.5,5.5-5.5h24c3,0,5.5,2.5,5.5,5.5v48
				C-241.6-296.2-244-293.8-247.1-293.8z M-271.1-349.8c-1.4,0-2.5,1.1-2.5,2.5v48c0,1.4,1.1,2.5,2.5,2.5h24c1.4,0,2.5-1.1,2.5-2.5
				v-48c0-1.4-1.1-2.5-2.5-2.5H-271.1z"/>
		</g>
	</g>
	<g>
		<line class="st3" x1="-1117.8" y1="-182.2" x2="-1117.8" y2="-180.8"/>
		<line class="st3" x1="-1114.5" y1="-182.2" x2="-1114.5" y2="-180.8"/>
		<path class="st3" d="M-1112.3-186.6c0,1.6-0.9,3.4-2.2,4.3c-0.5,0.4-1.1,0.6-1.7,0.6c-0.6,0-1.1-0.2-1.6-0.5
			c-1.4-0.9-2.3-2.8-2.3-4.4c0-2.2,1.8-3.9,3.9-3.9S-1112.3-188.8-1112.3-186.6z"/>
		<path class="st3" d="M-1108.3-175.5l-0.2-0.4c0-0.1,0-0.1,0-0.2l0,0c-0.3-2.5-2.8-3.7-5.5-4.1c-0.7-0.1-2.2,1.8-2.2,1.8
			s-1.5-1.9-2.2-1.8c-2.7,0.5-5.3,1.7-5.5,4.2c0,0,0,0,0,0.1l-0.2,0.4"/>
		<path class="st3" d="M-1098.1-151.5h-36c-1.1,0-2-0.9-2-2v-19c0-1.1,0.9-2,2-2h36c1.1,0,2,0.9,2,2v19
			C-1096.1-152.4-1097-151.5-1098.1-151.5z"/>
		<path class="st3" d="M-1098.1-195.5h-36c-1.1,0-2-0.9-2-2v-7.8c0-1.1,0.9-2,2-2h36c1.1,0,2,0.9,2,2v7.8
			C-1096.1-196.4-1097-195.5-1098.1-195.5z"/>
		<line class="st3" x1="-1132.2" y1="-174.5" x2="-1132.2" y2="-194.7"/>
		<line class="st3" x1="-1100.2" y1="-174.5" x2="-1100.2" y2="-194.7"/>
		<path class="st6" d="M-1114.9-164.3h-1.9c-0.6-1.7-2.2-2.9-4-2.9c-2.4,0-4.3,1.9-4.3,4.3c0,2.4,1.9,4.3,4.3,4.3
			c1.7,0,3.2-1,3.9-2.5h8.6c0.1,0,0.2-0.1,0.3-0.1l1.4-1.4c0.1-0.1,0.1-0.2,0.1-0.3c0,0,0,0,0,0c0-0.1-0.1-0.3-0.2-0.4l-2.5-1.7
			c-0.1-0.1-0.3-0.1-0.4-0.1c-0.1,0-0.2,0.1-0.3,0.3l-0.2,0.4l-1.2-0.6c-0.2-0.1-0.4-0.1-0.5,0l-1,0.8c0,0,0,0,0,0l-0.8,0.7
			l-0.9-0.7C-1114.7-164.3-1114.8-164.3-1114.9-164.3z M-1121-162.9c0,0.7-0.4,1.2-0.7,1.2c-0.3,0-0.7-0.5-0.7-1.2s0.4-1.2,0.7-1.2
			C-1121.4-164.1-1121-163.6-1121-162.9z"/>
	</g>
	<g>
		<line class="st3" x1="-541.8" y1="250.4" x2="-541.8" y2="251.8"/>
		<line class="st3" x1="-538.5" y1="250.4" x2="-538.5" y2="251.8"/>
		<path class="st3" d="M-536.2,246c0,1.6-0.9,3.4-2.2,4.3c-0.5,0.4-1.1,0.6-1.7,0.6c-0.6,0-1.1-0.2-1.6-0.5
			c-1.4-0.9-2.3-2.8-2.3-4.4c0-2.2,1.8-3.9,3.9-3.9C-538,242-536.2,243.8-536.2,246z"/>
		<path class="st3" d="M-532.2,257.2l-0.2-0.4c0-0.1,0-0.1,0-0.2l0,0c-0.3-2.5-2.8-3.7-5.5-4.1c-0.7-0.1-2.2,1.8-2.2,1.8
			s-1.5-1.9-2.2-1.8c-2.7,0.5-5.3,1.7-5.5,4.2c0,0,0,0,0,0.1l-0.2,0.4"/>
		<path class="st3" d="M-522.1,281.1h-36c-1.1,0-2-0.9-2-2v-19c0-1.1,0.9-2,2-2h36c1.1,0,2,0.9,2,2v19
			C-520.1,280.2-521,281.1-522.1,281.1z"/>
		<path class="st3" d="M-522.1,237.1h-36c-1.1,0-2-0.9-2-2v-7.8c0-1.1,0.9-2,2-2h36c1.1,0,2,0.9,2,2v7.8
			C-520.1,236.2-521,237.1-522.1,237.1z"/>
		<line class="st3" x1="-556.2" y1="258.1" x2="-556.2" y2="238"/>
		<line class="st3" x1="-524.2" y1="258.1" x2="-524.2" y2="238"/>
		<path class="st6" d="M-538.8,268.3h-1.9c-0.6-1.7-2.2-2.9-4-2.9c-2.4,0-4.3,1.9-4.3,4.3s1.9,4.3,4.3,4.3c1.7,0,3.2-1,3.9-2.5h8.6
			c0.1,0,0.2-0.1,0.3-0.1l1.4-1.4c0.1-0.1,0.1-0.2,0.1-0.3c0,0,0,0,0,0c0-0.1-0.1-0.3-0.2-0.4l-2.5-1.7c-0.1-0.1-0.3-0.1-0.4-0.1
			c-0.1,0-0.2,0.1-0.3,0.3l-0.2,0.4l-1.2-0.6c-0.2-0.1-0.4-0.1-0.5,0l-1,0.8c0,0,0,0,0,0l-0.8,0.7l-0.9-0.7
			C-538.6,268.3-538.7,268.3-538.8,268.3z M-545,269.7c0,0.7-0.4,1.2-0.7,1.2c-0.3,0-0.7-0.5-0.7-1.2c0-0.7,0.4-1.2,0.7-1.2
			C-545.3,268.5-545,269-545,269.7z"/>
	</g>
	<g>
		<circle class="st3" cx="-252.1" cy="-683.9" r="28"/>
		<g>
			<line class="st8" x1="-264.8" y1="-683.9" x2="-256.3" y2="-675.4"/>
			<line class="st8" x1="-239.3" y1="-692.4" x2="-256.3" y2="-675.4"/>
		</g>
	</g>
	<g>
		<g>
			<circle class="st3" cx="-1116.1" cy="-683.9" r="28"/>
		</g>
		<line class="st8" x1="-1130.2" y1="-683.7" x2="-1102.2" y2="-683.7"/>
		<line class="st8" x1="-1116.2" y1="-697.7" x2="-1116.2" y2="-669.7"/>
	</g>
	<g>
		<g>
			
				<ellipse transform="matrix(0.7071 -0.7071 0.7071 0.7071 241.0503 -785.881)" class="st3" cx="-828.1" cy="-683.9" rx="28" ry="28"/>
		</g>
		<line class="st8" x1="-837.9" y1="-673.8" x2="-818.1" y2="-693.6"/>
		<line class="st8" x1="-837.9" y1="-693.6" x2="-818.1" y2="-673.8"/>
	</g>
	<g>
		<g>
			<circle class="st3" cx="-540.1" cy="-683.9" r="28"/>
		</g>
		<line class="st8" x1="-554.2" y1="-683.7" x2="-526.2" y2="-683.7"/>
	</g>
	<g>
		<path class="st2" d="M-827-519l11.1,6c2.2,1.2,4.1,1.5,5.2,0.7c1-0.7,1.4-2.5,1-4.9l-2.2-13.3c-0.1-0.7,0.1-1.5,0.6-2l9.1-9.2
			c1.7-1.7,2.5-3.5,2-4.8c-0.4-1.3-2.1-2.3-4.6-2.7l-12.2-1.8c-0.7-0.1-1.4-0.6-1.7-1.3l-5.7-12c-1-2.2-2.4-3.5-3.6-3.5
			c-1.2,0-2.6,1.3-3.6,3.5l-5.7,12c-0.3,0.7-1,1.2-1.7,1.3l-12.2,1.8c-2.5,0.4-4.2,1.4-4.6,2.7c-0.4,1.3,0.3,3.1,2,4.8l9.1,9.2
			c0.5,0.5,0.8,1.3,0.6,2l-2.2,13.4c-0.4,2.4,0,4.2,1,4.9c1.1,0.8,3,0.5,5.2-0.7l11.1-6C-828.6-519.4-827.7-519.4-827-519z"/>
	</g>
	<g>
		<path class="st3" d="M51.3-701l4,0c1,0,1.8-0.8,1.8-1.8l0-4"/>
		<path class="st3" d="M21-666.3l-4,0c-1,0-1.8,0.8-1.8,1.8l0,4"/>
		<path class="st3" d="M60.9-693.9c5.5,13.8-1.2,29.4-15,34.9c-10.3,4.1-21.6,1.4-29-6"/>
		<path class="st3" d="M11-674c-5.5-13.8,1.2-29.4,15-34.9c10.3-4.1,21.6-1.4,29,6"/>
	</g>
	<g>
		<g>
			<line class="st8" x1="-128" y1="-683.9" x2="-114.7" y2="-670.6"/>
			<line class="st8" x1="-88" y1="-697.2" x2="-114.7" y2="-670.6"/>
		</g>
	</g>
	<g>
		<line class="st8" x1="-415.8" y1="-683.9" x2="-376.3" y2="-683.9"/>
	</g>
	<g>
		<line class="st8" x1="-991.9" y1="-683.9" x2="-952.4" y2="-683.9"/>
		<line class="st8" x1="-972.1" y1="-703.7" x2="-972.1" y2="-664.2"/>
	</g>
	<g>
		<line class="st8" x1="-698.1" y1="-697.9" x2="-670.1" y2="-670"/>
		<line class="st8" x1="-670.1" y1="-697.9" x2="-698.1" y2="-670"/>
	</g>
	<text transform="matrix(1 0 0 1 -845.7549 -979.2696)" style="font-family:'ProximaNovaT-Thin'; font-size:80px;">RC Icons - Core Set</text>
	
		<text transform="matrix(1 0 0 1 -1151.4614 -748.2832)" class="st11" style="font-family:'ProximaNova-Semibold'; font-size:22px;">STANDARD UI ACTION ICONS</text>
	
		<text transform="matrix(1 0 0 1 -1151.4614 -387.2742)" class="st11" style="font-family:'ProximaNova-Semibold'; font-size:22px;">CORE TRAVEL &amp; VEHICLE ICONS</text>
	<text transform="matrix(1 0 0 1 -1151.4614 -25.7927)" class="st11" style="font-family:'ProximaNova-Semibold'; font-size:22px;">ACCOUNT/CONTACT</text>
	<text transform="matrix(1 0 0 1 -1151.4614 186.6968)" class="st11" style="font-family:'ProximaNova-Semibold'; font-size:22px;">LOCATION</text>
	<text transform="matrix(1 0 0 1 -1151.4614 401.686)" class="st11" style="font-family:'ProximaNova-Semibold'; font-size:22px;">PEOPLE &amp; MOVEMENT</text>
	<text transform="matrix(1 0 0 1 -746.5325 -948.2676)" class="st11" style="font-family:'ProximaNova-Bold'; font-size:24px;">The official icon set for Rentalcars.com</text>
	<g>
		<g>
			<path class="st9" d="M-418.1-1089.5c5.7,0,10.3-4.6,10.3-10.3c0-5.7-4.6-10.3-10.3-10.3c-5.7,0-10.3,4.6-10.3,10.3
				C-428.3-1094.1-423.7-1089.5-418.1-1089.5L-418.1-1089.5L-418.1-1089.5L-418.1-1089.5z M-418.1-1094.5c2.9,0,5.2-2.3,5.2-5.2
				c0-2.9-2.3-5.2-5.2-5.2c-2.9,0-5.2,2.3-5.2,5.2C-423.3-1096.9-421-1094.5-418.1-1094.5L-418.1-1094.5L-418.1-1094.5
				L-418.1-1094.5z M-418.1-1094.5"/>
		</g>
		<g>
			<path class="st9" d="M-453.1-1089.5c1.9,0,3.4-1.5,3.4-3.4s-1.5-3.4-3.4-3.4c-1.9,0-3.4,1.5-3.4,3.4S-455-1089.5-453.1-1089.5
				L-453.1-1089.5z M-454-1089.5"/>
		</g>
		<g>
			<path class="st9" d="M-381-1103.6c-0.5-3.6-3.7-6.4-7.5-6.4c-1.9,0-3.7,0.7-5,1.9c-1.3-1.2-3.1-1.9-5-1.9v0c0,0,0,0,0,0
				c-0.3,0-0.5,0-0.8,0c-0.1,0-0.1,0-0.2,0c-0.2,0-0.4,0.1-0.6,0.1c-0.1,0-0.1,0-0.2,0c-0.2,0-0.4,0.1-0.6,0.1c0,0-0.1,0-0.1,0
				c-0.2,0.1-0.4,0.1-0.6,0.2c0,0,0,0-0.1,0c-0.2,0.1-0.4,0.2-0.6,0.3c0,0,0,0,0,0c-0.5,0.3-1,0.6-1.4,1l0,0c-1.4,1.3-2.3,3-2.5,5
				l0,0.1v0.5v8.1v0.3v4.6h5v-7.9v-5.6c0-1.3,1.1-2.4,2.4-2.4h0v0h0.2c1.3,0,2.4,1.1,2.4,2.4v3.8v9.7h0v0h5v-7.9v-5.6
				c0-1.3,1.1-2.4,2.4-2.4h0.2c1.3,0,2.4,1.1,2.4,2.4v3.8v9.7h5v-13.5C-380.9-1103.2-381-1103.4-381-1103.6z"/>
		</g>
		<g>
			<path class="st10" d="M-433.7-1096.8c-0.1,0.2-0.3,0.4-0.5,0.6c-0.9,1-2.2,1.6-3.7,1.6c-2.8,0-5.1-2.3-5.1-5.1s2.3-5.1,5.1-5.1
				c1.6,0,3,0.7,3.9,1.8c0.2,0.2,0.3,0.4,0.5,0.7l4.3-2.8c-0.3-0.5-0.7-1.1-1.2-1.5c-1.9-2-4.5-3.3-7.5-3.3
				c-5.7,0-10.2,4.6-10.2,10.2s4.6,10.2,10.2,10.2c2.9,0,5.5-1.2,7.3-3.1c0.4-0.4,0.8-0.9,1.1-1.3L-433.7-1096.8z"/>
		</g>
		<path class="st11" d="M-591.9-1096.8c-0.7,0.3-1.4,0.5-2.1,0.5c-2.9,0-5.2-2.3-5.2-5.2v-8.4h8.6v-6.8h-8.6v-6.8h-6.8v22
			c0,6.6,5.4,12,12,12c2.2,0,4.2-0.6,5.9-1.6L-591.9-1096.8z"/>
		<g>
			<path class="st11" d="M-575.1-1116.8c-7.5,0-13.6,6.1-13.6,13.6s6.1,13.6,13.6,13.6c2.5,0,4.8-0.7,6.8-1.8v1.8h6.8v-13.3
				c0-0.1,0-0.2,0-0.3C-561.5-1110.7-567.6-1116.8-575.1-1116.8z M-575.1-1096.3c-3.8,0-6.8-3.1-6.8-6.8c0-3.8,3.1-6.8,6.8-6.8
				s6.8,3.1,6.8,6.8C-568.3-1099.4-571.3-1096.3-575.1-1096.3z"/>
		</g>
		<g>
			<path class="st11" d="M-510.4-1116.8c-7.5,0-13.6,6.1-13.6,13.6s6.1,13.6,13.6,13.6c2.5,0,4.8-0.7,6.8-1.8v1.8h6.8v-13.3
				c0-0.1,0-0.2,0-0.3C-496.7-1110.7-502.8-1116.8-510.4-1116.8z M-510.4-1096.3c-3.8,0-6.8-3.1-6.8-6.8s3.1-6.8,6.8-6.8
				c3.8,0,6.8,3.1,6.8,6.8S-506.6-1096.3-510.4-1096.3z"/>
		</g>
		<g>
			<polygon class="st12" points="-559.3,-1089.5 -552.5,-1089.5 -552.5,-1127 -559.3,-1127 -559.3,-1089.8 			"/>
		</g>
		<g>
			<g>
				<path class="st11" d="M-608.2-1089.5h-6.8v-15.3c0-2.9-2.3-5.2-5.2-5.2c-2.9,0-5.2,2.3-5.2,5.2v15.3h-6.8v-15.3
					c0-6.6,5.4-12,12-12c6.6,0,12,5.4,12,12V-1089.5z"/>
			</g>
		</g>
		<g>
			<path class="st11" d="M-531.5-1098.8c-1.2,1.5-3.1,2.4-5.2,2.4c-3.7,0-6.8-3-6.8-6.8c0-3.7,3-6.8,6.8-6.8c2.1,0,3.9,0.9,5.2,2.4
				c0.2,0.3,0.4,0.6,0.6,0.9l5.7-3.8c-0.5-0.7-1-1.4-1.5-2c-2.5-2.7-6.1-4.4-10-4.4c-7.5,0-13.6,6.1-13.6,13.6
				c0,7.5,6.1,13.6,13.6,13.6c4,0,7.5-1.7,10-4.4c0.6-0.6,1.1-1.3,1.5-2l-5.7-3.8C-531.1-1099.4-531.3-1099.1-531.5-1098.8z"/>
		</g>
		<path class="st11" d="M-659.7-1089.5l-3.7-6.7l0,0l-4.1-7.4c3.7-2.7,6.2-7.1,6.2-12.1c0-8.2-6.7-14.9-15-14.9
			c-8.3,0-15,6.7-15,14.9v11.5v3.4v11.2h6.8v-11.2h8.1c0.8,0,1.7-0.1,2.5-0.2l6.3,11.4L-659.7-1089.5z M-684.4-1107.5v-8.1
			c0-4.5,3.6-8.1,8.1-8.1c4.5,0,8.1,3.6,8.1,8.1s-3.6,8.1-8.1,8.1H-684.4z"/>
		<path class="st12" d="M-467.1-1105.8L-467.1-1105.8c0,0-2.1-0.3-3-0.9c-0.1-0.1-0.2-0.2-0.3-0.3c0,0,0-0.1-0.1-0.1
			c-0.4-0.5-0.7-1.1-0.7-1.7l0-0.3c0,0.1,0,0.1,0,0.1c0-0.1,0-0.1,0-0.2l0,0.1c0-0.2,0.1-0.4,0.3-0.7c0.3-0.5,0.9-0.9,1.6-1.1
			c0.4-0.1,0.8-0.2,1.3-0.1c1.8,0,3.6,0.7,4.8,1.2l2.9-5.2c-1.9-0.8-6.1-2.4-9.6-1.7l0,0c-4.4,0.5-7.6,3.6-7.9,7.4
			c-0.2,3.1,1.5,5.9,4.3,7.5c0,0,0,0,0,0c0.1,0.1,0.4,0.2,0.7,0.3c0.1,0,0.1,0.1,0.2,0.1c0.8,0.4,2,0.8,3,0.9c1.2,0.1,1.8,0.3,2,0.3
			c1.3,0.4,2.1,1.4,2,2.5l0,0.3c0-0.1,0-0.1,0-0.1c0,0.1,0,0.1,0,0.2l0-0.1c0,0.2-0.1,0.4-0.3,0.7c-0.3,0.5-0.9,0.9-1.6,1.1
			c-0.4,0.1-0.8,0.2-1.3,0.1c-3.1-0.1-6.2-1.8-6.2-1.8l-3.4,4.9l0.8,0.5c0,0,5.9,3.1,10.6,2.1l0,0c4.4-0.5,7.6-3.6,7.9-7.4
			C-458.7-1101.4-462.1-1105.1-467.1-1105.8z"/>
		<g>
			<path class="st11" d="M-477.8-1115.8c-1.5-0.6-3-1-4.7-1c-6.6,0-12,5.4-12,12v15.2h6.8v-15.2c0-2.9,2.3-5.2,5.2-5.2
				c0.7,0,1.4,0.1,2,0.4"/>
		</g>
		<g>
			<path class="st12" d="M-643.1-1098.1c-0.1,0.1-0.2,0.2-0.2,0.2h0c-1.3,1.1-3,1.8-4.8,1.8c-3.1,0-5.7-1.9-6.9-4.5h10.4h3.3h6.6
				c0.1-0.8,0.2-1.6,0.2-2.5c0-7.5-6.1-13.6-13.6-13.6c-7.5,0-13.6,6.1-13.6,13.6s6.1,13.6,13.6,13.6c5.7,0,10.5-3.5,12.6-8.4h0
				c0-0.1,0-0.1,0.1-0.2H-643.1z M-648.1-1110.5c3,0,5.6,1.9,6.6,4.5h-13.2C-653.7-1108.6-651.1-1110.5-648.1-1110.5z"/>
		</g>
	</g>
	<line class="st13" x1="-1151.1" y1="-862.4" x2="68.9" y2="-862.4"/>
	<text transform="matrix(1 0 0 1 758.2705 -979.2696)" style="font-family:'ProximaNovaT-Thin'; font-size:80px;">RC Icons - Additionals</text>
	<text transform="matrix(1 0 0 1 505.0845 -748.2832)" class="st11" style="font-family:'ProximaNova-Semibold'; font-size:22px;">ADDITIONAL CAR ANGLES/POSITIONS</text>
	<text transform="matrix(1 0 0 1 505.0845 -530.3198)" class="st11" style="font-family:'ProximaNova-Semibold'; font-size:22px;">MISCELLANEOUS</text>
	<text transform="matrix(1 0 0 1 908.0129 -948.2676)" class="st11" style="font-family:'ProximaNova-Bold'; font-size:24px;">The official icon set for Rentalcars.com</text>
	<g>
		<g>
			<path class="st9" d="M1236.5-1089.5c5.7,0,10.3-4.6,10.3-10.3c0-5.7-4.6-10.3-10.3-10.3s-10.3,4.6-10.3,10.3
				C1226.2-1094.1,1230.8-1089.5,1236.5-1089.5L1236.5-1089.5L1236.5-1089.5L1236.5-1089.5z M1236.5-1094.5c2.9,0,5.2-2.3,5.2-5.2
				c0-2.9-2.3-5.2-5.2-5.2s-5.2,2.3-5.2,5.2C1231.2-1096.9,1233.6-1094.5,1236.5-1094.5L1236.5-1094.5L1236.5-1094.5L1236.5-1094.5z
				 M1236.5-1094.5"/>
		</g>
		<g>
			<path class="st9" d="M1201.4-1089.5c1.9,0,3.4-1.5,3.4-3.4s-1.5-3.4-3.4-3.4s-3.4,1.5-3.4,3.4S1199.5-1089.5,1201.4-1089.5
				L1201.4-1089.5z M1200.5-1089.5"/>
		</g>
		<g>
			<path class="st9" d="M1273.5-1103.6c-0.5-3.6-3.7-6.4-7.5-6.4c-1.9,0-3.7,0.7-5,1.9c-1.3-1.2-3.1-1.9-5-1.9v0c0,0,0,0,0,0
				c-0.3,0-0.5,0-0.8,0c-0.1,0-0.1,0-0.2,0c-0.2,0-0.4,0.1-0.6,0.1c-0.1,0-0.1,0-0.2,0c-0.2,0-0.4,0.1-0.6,0.1c0,0-0.1,0-0.1,0
				c-0.2,0.1-0.4,0.1-0.6,0.2c0,0,0,0-0.1,0c-0.2,0.1-0.4,0.2-0.6,0.3c0,0,0,0,0,0c-0.5,0.3-1,0.6-1.4,1l0,0c-1.4,1.3-2.3,3-2.5,5
				l0,0.1v0.5v8.1v0.3v4.6h5v-7.9v-5.6c0-1.3,1.1-2.4,2.4-2.4h0v0h0.2c1.3,0,2.4,1.1,2.4,2.4v3.8v9.7h0v0h5v-7.9v-5.6
				c0-1.3,1.1-2.4,2.4-2.4h0.2c1.3,0,2.4,1.1,2.4,2.4v3.8v9.7h5v-13.5C1273.6-1103.2,1273.6-1103.4,1273.5-1103.6z"/>
		</g>
		<g>
			<path class="st10" d="M1220.8-1096.8c-0.1,0.2-0.3,0.4-0.5,0.6c-0.9,1-2.2,1.6-3.7,1.6c-2.8,0-5.1-2.3-5.1-5.1s2.3-5.1,5.1-5.1
				c1.6,0,3,0.7,3.9,1.8c0.2,0.2,0.3,0.4,0.5,0.7l4.3-2.8c-0.3-0.5-0.7-1.1-1.2-1.5c-1.9-2-4.5-3.3-7.5-3.3
				c-5.7,0-10.2,4.6-10.2,10.2s4.6,10.2,10.2,10.2c2.9,0,5.5-1.2,7.3-3.1c0.4-0.4,0.8-0.9,1.1-1.3L1220.8-1096.8z"/>
		</g>
		<path class="st11" d="M1062.6-1096.8c-0.7,0.3-1.4,0.5-2.1,0.5c-2.9,0-5.2-2.3-5.2-5.2v-8.4h8.6v-6.8h-8.6v-6.8h-6.8v22
			c0,6.6,5.4,12,12,12c2.2,0,4.2-0.6,5.9-1.6L1062.6-1096.8z"/>
		<g>
			<path class="st11" d="M1079.5-1116.8c-7.5,0-13.6,6.1-13.6,13.6s6.1,13.6,13.6,13.6c2.5,0,4.8-0.7,6.8-1.8v1.8h6.8v-13.3
				c0-0.1,0-0.2,0-0.3C1093.1-1110.7,1087-1116.8,1079.5-1116.8z M1079.5-1096.3c-3.8,0-6.8-3.1-6.8-6.8c0-3.8,3.1-6.8,6.8-6.8
				c3.8,0,6.8,3.1,6.8,6.8C1086.3-1099.4,1083.2-1096.3,1079.5-1096.3z"/>
		</g>
		<g>
			<path class="st11" d="M1144.2-1116.8c-7.5,0-13.6,6.1-13.6,13.6s6.1,13.6,13.6,13.6c2.5,0,4.8-0.7,6.8-1.8v1.8h6.8v-13.3
				c0-0.1,0-0.2,0-0.3C1157.8-1110.7,1151.7-1116.8,1144.2-1116.8z M1144.2-1096.3c-3.8,0-6.8-3.1-6.8-6.8s3.1-6.8,6.8-6.8
				c3.8,0,6.8,3.1,6.8,6.8S1147.9-1096.3,1144.2-1096.3z"/>
		</g>
		<g>
			<polygon class="st12" points="1095.2,-1089.5 1102.1,-1089.5 1102.1,-1127 1095.2,-1127 1095.2,-1089.8 			"/>
		</g>
		<g>
			<g>
				<path class="st11" d="M1046.4-1089.5h-6.8v-15.3c0-2.9-2.3-5.2-5.2-5.2c-2.9,0-5.2,2.3-5.2,5.2v15.3h-6.8v-15.3
					c0-6.6,5.4-12,12-12c6.6,0,12,5.4,12,12V-1089.5z"/>
			</g>
		</g>
		<g>
			<path class="st11" d="M1123-1098.8c-1.2,1.5-3.1,2.4-5.2,2.4c-3.7,0-6.8-3-6.8-6.8c0-3.7,3-6.8,6.8-6.8c2.1,0,3.9,0.9,5.2,2.4
				c0.2,0.3,0.4,0.6,0.6,0.9l5.7-3.8c-0.5-0.7-1-1.4-1.5-2c-2.5-2.7-6.1-4.4-10-4.4c-7.5,0-13.6,6.1-13.6,13.6
				c0,7.5,6.1,13.6,13.6,13.6c4,0,7.5-1.7,10-4.4c0.6-0.6,1.1-1.3,1.5-2l-5.7-3.8C1123.5-1099.4,1123.3-1099.1,1123-1098.8z"/>
		</g>
		<path class="st11" d="M994.8-1089.5l-3.7-6.7l0,0l-4.1-7.4c3.7-2.7,6.2-7.1,6.2-12.1c0-8.2-6.7-14.9-15-14.9
			c-8.3,0-15,6.7-15,14.9v11.5v3.4v11.2h6.8v-11.2h8.1c0.8,0,1.7-0.1,2.5-0.2l6.3,11.4L994.8-1089.5z M970.1-1107.5v-8.1
			c0-4.5,3.6-8.1,8.1-8.1c4.5,0,8.1,3.6,8.1,8.1s-3.6,8.1-8.1,8.1H970.1z"/>
		<path class="st12" d="M1187.4-1105.8L1187.4-1105.8c0,0-2.1-0.3-3-0.9c-0.1-0.1-0.2-0.2-0.3-0.3c0,0,0-0.1-0.1-0.1
			c-0.4-0.5-0.7-1.1-0.7-1.7l0-0.3c0,0.1,0,0.1,0,0.1c0-0.1,0-0.1,0-0.2l0,0.1c0-0.2,0.1-0.4,0.3-0.7c0.3-0.5,0.9-0.9,1.6-1.1
			c0.4-0.1,0.8-0.2,1.3-0.1c1.8,0,3.6,0.7,4.8,1.2l2.9-5.2c-1.9-0.8-6.1-2.4-9.6-1.7l0,0c-4.4,0.5-7.6,3.6-7.9,7.4
			c-0.2,3.1,1.5,5.9,4.3,7.5c0,0,0,0,0,0c0.1,0.1,0.4,0.2,0.7,0.3c0.1,0,0.1,0.1,0.2,0.1c0.8,0.4,2,0.8,3,0.9c1.2,0.1,1.8,0.3,2,0.3
			c1.3,0.4,2.1,1.4,2,2.5l0,0.3c0-0.1,0-0.1,0-0.1c0,0.1,0,0.1,0,0.2l0-0.1c0,0.2-0.1,0.4-0.3,0.7c-0.3,0.5-0.9,0.9-1.6,1.1
			c-0.4,0.1-0.8,0.2-1.3,0.1c-3.1-0.1-6.2-1.8-6.2-1.8l-3.4,4.9l0.8,0.5c0,0,5.9,3.1,10.6,2.1l0,0c4.4-0.5,7.6-3.6,7.9-7.4
			C1195.9-1101.4,1192.5-1105.1,1187.4-1105.8z"/>
		<g>
			<path class="st11" d="M1176.7-1115.8c-1.5-0.6-3-1-4.7-1c-6.6,0-12,5.4-12,12v15.2h6.8v-15.2c0-2.9,2.3-5.2,5.2-5.2
				c0.7,0,1.4,0.1,2,0.4"/>
		</g>
		<g>
			<path class="st12" d="M1011.5-1098.1c-0.1,0.1-0.2,0.2-0.2,0.2h0c-1.3,1.1-3,1.8-4.8,1.8c-3.1,0-5.7-1.9-6.9-4.5h10.4h3.3h6.6
				c0.1-0.8,0.2-1.6,0.2-2.5c0-7.5-6.1-13.6-13.6-13.6c-7.5,0-13.6,6.1-13.6,13.6s6.1,13.6,13.6,13.6c5.7,0,10.5-3.5,12.6-8.4h0
				c0-0.1,0-0.1,0.1-0.2H1011.5z M1006.4-1110.5c3,0,5.6,1.9,6.6,4.5h-13.2C1000.9-1108.6,1003.4-1110.5,1006.4-1110.5z"/>
		</g>
	</g>
	<line class="st13" x1="503.9" y1="-862.4" x2="1723.9" y2="-862.4"/>
	<g>
		<circle class="st3" cx="1531.1" cy="-669.9" r="5"/>
		<g>
			<path class="st3" d="M1525.1-669.9c0-0.8,0.2-1.6,0.4-2.3h-6.5c-1.1,0-2,0.9-2,2c0,1.1,0.9,2,2,2h6.3
				C1525.1-668.7,1525.1-669.3,1525.1-669.9z"/>
		</g>
		<circle class="st3" cx="1564.1" cy="-669.9" r="5"/>
		<path class="st3" d="M1531.1-697.8v11.1c0,2.2-1.8,4-4,4h-7.5"/>
		<g>
			<path class="st3" d="M1576-672.2h-6.4c0.3,0.7,0.4,1.5,0.4,2.3c0,0.6-0.1,1.2-0.3,1.8h6.2c1.1,0,2-0.9,2-2
				C1578-671.3,1577.1-672.2,1576-672.2z"/>
		</g>
		<path class="st3" d="M1558.3-668.2c-0.2-0.6-0.3-1.1-0.3-1.8c0-0.8,0.2-1.6,0.4-2.3h-21.9c0.3,0.7,0.4,1.5,0.4,2.3
			c0,0.6-0.1,1.2-0.3,1.8H1558.3z"/>
		<path class="st3" d="M1536.6-672.2h3.1v-25.7h-16.2c-2.2,0-4,1.8-4,4v21.7h5.9c-0.3,0.6-0.4,1.3-0.4,2h1c0.1-2.6,2.3-4.8,5-4.8
			c2.7,0,4.8,2.1,5,4.8h1C1537-670.9,1536.9-671.6,1536.6-672.2z"/>
		<path class="st3" d="M1571.6-702.9h-27.8c-2.2,0-4,1.8-4,4v26.7h18.8c-0.3,0.6-0.4,1.3-0.4,2h1c0.1-2.6,2.3-4.8,5-4.8
			c2.7,0,4.8,2.1,5,4.8h1c0-0.7-0.2-1.4-0.4-2h5.9v-26.7C1575.6-701.1,1573.8-702.9,1571.6-702.9z"/>
	</g>
	<g>
		<path class="st3" d="M1087.5-679.2v-1.6c0-3,2.2-5.5,5.1-5.9l7.9-1.1l7.6-8.6c0.8-0.9,1.8-1.3,3-1.3h18.9c1.5,0,2.9,0.9,3.6,2.2
			l3.8,7.7l4.7,1.4c0.8,0.3,1.4,1,1.4,1.9v5.4"/>
		<circle class="st3" cx="1099" cy="-676" r="6"/>
		<g>
			<path class="st3" d="M1093-676c0-0.8,0.2-1.6,0.4-2.3h-6.5c-1.1,0-2,0.9-2,2c0,1.1,0.9,2,2,2h6.3
				C1093.1-674.8,1093-675.4,1093-676z"/>
		</g>
		<circle class="st3" cx="1132" cy="-676" r="6"/>
		<g>
			<path class="st3" d="M1126.3-674.2c-0.2-0.6-0.3-1.1-0.3-1.8c0-0.8,0.2-1.6,0.4-2.3h-21.9c0.3,0.7,0.4,1.5,0.4,2.3
				c0,0.6-0.1,1.2-0.3,1.8H1126.3z"/>
			<path class="st3" d="M1144-678.2h-6.4c0.3,0.7,0.4,1.5,0.4,2.3c0,0.6-0.1,1.2-0.3,1.8h6.2c1.1,0,2-0.9,2-2
				C1146-677.3,1145.1-678.2,1144-678.2z"/>
		</g>
		<line class="st3" x1="1120.8" y1="-687" x2="1120.8" y2="-697"/>
		<polyline class="st3" points="1100.5,-687.9 1103.5,-686.4 1133.8,-686.4 1137.4,-687.9 		"/>
	</g>
	<g>
		<path class="st3" d="M799.5-678.2v-1.6c0-3,2.2-5.5,5.1-5.9l7.9-1.1l7.6-10.3c0.8-1,1.9-1.6,3.2-1.6h26c1.8,0,3.4,1.3,3.9,3
			l2.2,8.9l0.1,1.8v6.9"/>
		<circle class="st3" cx="811" cy="-675" r="6"/>
		<g>
			<path class="st3" d="M805-675c0-0.8,0.2-1.6,0.4-2.3h-6.5c-1.1,0-2,0.9-2,2c0,1.1,0.9,2,2,2h6.3C805.1-673.8,805-674.4,805-675z"
				/>
		</g>
		<circle class="st3" cx="844" cy="-675" r="6"/>
		<g>
			<path class="st3" d="M838.2-673.2c-0.2-0.6-0.3-1.1-0.3-1.8c0-0.8,0.2-1.6,0.4-2.3h-21.9c0.3,0.7,0.4,1.5,0.4,2.3
				c0,0.6-0.1,1.2-0.3,1.8H838.2z"/>
			<path class="st3" d="M855.9-677.2h-6.4c0.3,0.7,0.4,1.5,0.4,2.3c0,0.6-0.1,1.2-0.3,1.8h6.2c1.1,0,2-0.9,2-2
				C857.9-676.3,857-677.2,855.9-677.2z"/>
		</g>
		<line class="st3" x1="827.8" y1="-686" x2="827.8" y2="-698"/>
		<line class="st3" x1="843.8" y1="-686" x2="843.8" y2="-698"/>
		<polyline class="st3" points="812.5,-686.9 815.4,-685.4 845.8,-685.4 855.4,-686.9 		"/>
	</g>
	<g>
		<path class="st3" d="M511.5-678.2v-2.7c0-2.5,1.5-4.7,3.9-5.6l1.1-0.4l2.9-9.2c0.5-1.7,2.1-2.8,3.8-2.8h38.1c1.8,0,3.4,1.3,3.9,3
			l2.2,8.9l0.1,1.8v6.9"/>
		<circle class="st3" cx="523" cy="-675" r="6"/>
		<g>
			<path class="st3" d="M517-675c0-0.8,0.2-1.6,0.4-2.3h-6.5c-1.1,0-2,0.9-2,2c0,1.1,0.9,2,2,2h6.3C517-673.8,517-674.4,517-675z"/>
		</g>
		<circle class="st3" cx="556" cy="-675" r="6"/>
		<g>
			<path class="st3" d="M550.2-673.2c-0.2-0.6-0.3-1.1-0.3-1.8c0-0.8,0.2-1.6,0.4-2.3h-21.9c0.3,0.7,0.4,1.5,0.4,2.3
				c0,0.6-0.1,1.2-0.3,1.8H550.2z"/>
			<path class="st3" d="M567.9-677.2h-6.4c0.3,0.7,0.4,1.5,0.4,2.3c0,0.6-0.1,1.2-0.3,1.8h6.2c1.1,0,2-0.9,2-2
				C569.9-676.3,569-677.2,567.9-677.2z"/>
		</g>
		<line class="st3" x1="531.8" y1="-686" x2="531.8" y2="-698"/>
		<line class="st3" x1="547.8" y1="-686" x2="547.8" y2="-698"/>
		<polyline class="st3" points="517.5,-686.9 520.4,-685.4 557.8,-685.4 567.4,-686.9 		"/>
	</g>
	<g>
		<path class="st3" d="M655.5-679.7v-1.2c0-3.2,2.4-5.8,5.6-6l7.4-0.5l7.6-8.6c0.8-0.9,1.8-1.3,3-1.3h26.5c1.7,0,3.3,1.1,3.8,2.8
			l2,6.2l0.1,2.8v5.9"/>
		<circle class="st3" cx="667" cy="-676.5" r="6"/>
		<g>
			<path class="st3" d="M661-676.5c0-0.8,0.2-1.6,0.4-2.3h-6.5c-1.1,0-2,0.9-2,2c0,1.1,0.9,2,2,2h6.3
				C661.1-675.3,661-675.9,661-676.5z"/>
		</g>
		<circle class="st3" cx="700" cy="-676.5" r="6"/>
		<g>
			<path class="st3" d="M694.2-674.7c-0.2-0.6-0.3-1.1-0.3-1.8c0-0.8,0.2-1.6,0.4-2.3h-21.9c0.3,0.7,0.4,1.5,0.4,2.3
				c0,0.6-0.1,1.2-0.3,1.8H694.2z"/>
			<path class="st3" d="M711.9-678.7h-6.4c0.3,0.7,0.4,1.5,0.4,2.3c0,0.6-0.1,1.2-0.3,1.8h6.2c1.1,0,2-0.9,2-2
				C713.9-677.8,713-678.7,711.9-678.7z"/>
		</g>
		<line class="st3" x1="683.8" y1="-688.5" x2="683.8" y2="-696.5"/>
		<line class="st3" x1="699.8" y1="-688.5" x2="699.8" y2="-696.5"/>
		<polyline class="st3" points="668.5,-687.4 671.4,-686.9 705.8,-686.9 711.4,-687.4 		"/>
	</g>
	<g>
		<path class="st3" d="M1231.5-675.2v-6.6c0-2.5,1.6-4.8,4-5.6l4-1.5l3.4-9c0.9-2.3,3.1-3.9,5.6-3.9h29.8c2.5,0,4.8,1.6,5.7,4
			l3.5,9.9l0.1,5.8v6.9"/>
		<circle class="st3" cx="1243" cy="-672" r="6"/>
		<g>
			<path class="st3" d="M1237-672c0-0.8,0.2-1.6,0.4-2.3h-6.5c-1.1,0-2,0.9-2,2c0,1.1,0.9,2,2,2h6.3
				C1237.1-670.8,1237-671.4,1237-672z"/>
		</g>
		<circle class="st3" cx="1276" cy="-672" r="6"/>
		<g>
			<path class="st3" d="M1270.3-670.2c-0.2-0.6-0.3-1.1-0.3-1.8c0-0.8,0.2-1.6,0.4-2.3h-21.9c0.3,0.7,0.4,1.5,0.4,2.3
				c0,0.6-0.1,1.2-0.3,1.8H1270.3z"/>
			<path class="st3" d="M1288-674.2h-6.4c0.3,0.7,0.4,1.5,0.4,2.3c0,0.6-0.1,1.2-0.3,1.8h6.2c1.1,0,2-0.9,2-2
				C1290-673.3,1289.1-674.2,1288-674.2z"/>
		</g>
		<line class="st3" x1="1254.8" y1="-687" x2="1254.8" y2="-700.7"/>
		<polyline class="st3" points="1239.5,-688.9 1243.4,-686.4 1282.4,-686.4 1287.4,-687.9 		"/>
	</g>
	<g>
		<path class="st3" d="M1375.5-678.2v-2.3c0-2.7,1.8-5,4.3-5.8l5.7-1.6l3.8-8.5c0.6-1.4,2.1-2.4,3.7-2.4h27.8c1.6,0,3.1,1,3.7,2.5
			l2.9,7.4l3.4,3.2c0.4,0.4,0.6,0.9,0.6,1.5v6"/>
		<circle class="st3" cx="1387" cy="-675" r="6"/>
		<g>
			<path class="st3" d="M1381-675c0-0.8,0.2-1.6,0.4-2.3h-6.5c-1.1,0-2,0.9-2,2c0,1.1,0.9,2,2,2h6.3
				C1381.1-673.8,1381-674.4,1381-675z"/>
		</g>
		<circle class="st3" cx="1420" cy="-675" r="6"/>
		<g>
			<path class="st3" d="M1414.3-673.2c-0.2-0.6-0.3-1.1-0.3-1.8c0-0.8,0.2-1.6,0.4-2.3h-21.9c0.3,0.7,0.4,1.5,0.4,2.3
				c0,0.6-0.1,1.2-0.3,1.8H1414.3z"/>
			<path class="st3" d="M1432-677.2h-6.4c0.3,0.7,0.4,1.5,0.4,2.3c0,0.6-0.1,1.2-0.3,1.8h6.2c1.1,0,2-0.9,2-2
				C1434-676.3,1433.1-677.2,1432-677.2z"/>
		</g>
		<line class="st3" x1="1402.9" y1="-686" x2="1402.9" y2="-697.9"/>
		<polyline class="st3" points="1385.5,-687.9 1388,-685.4 1425.5,-685.4 1427.9,-688.5 		"/>
	</g>
	<g>
		<path class="st3" d="M943.5-676.2v-6.6c0-3,2.2-5.5,5.2-5.9l8.8-1.2l6.6-9.3c0.8-1,2-1.7,3.3-1.7h5.4c2.1,0,3.8,1.6,4,3.7l0.6,7.3
			l20.2,0.7c1.1,0,1.9,0.9,1.9,2v11"/>
		<circle class="st3" cx="955" cy="-673" r="6"/>
		<g>
			<path class="st3" d="M949-673c0-0.8,0.2-1.6,0.4-2.3h-6.5c-1.1,0-2,0.9-2,2c0,1.1,0.9,2,2,2h6.3C949.1-671.8,949-672.4,949-673z"
				/>
		</g>
		<circle class="st3" cx="988" cy="-673" r="6"/>
		<g>
			<path class="st3" d="M982.3-671.2c-0.2-0.6-0.3-1.1-0.3-1.8c0-0.8,0.2-1.6,0.4-2.3h-21.9c0.3,0.7,0.4,1.5,0.4,2.3
				c0,0.6-0.1,1.2-0.3,1.8H982.3z"/>
			<path class="st3" d="M999.9-675.2h-6.4c0.3,0.7,0.4,1.5,0.4,2.3c0,0.6-0.1,1.2-0.3,1.8h6.2c1.1,0,2-0.9,2-2
				C1001.9-674.3,1001-675.2,999.9-675.2z"/>
		</g>
		<polyline class="st3" points="957.5,-689.9 960.1,-687.4 974.1,-687.4 977.4,-689.9 		"/>
	</g>
	<g>
		
			<ellipse transform="matrix(0.7071 -0.7071 0.7071 0.7071 183.7548 -647.5736)" class="st2" cx="-689.8" cy="-545.6" rx="21.8" ry="21.8"/>
		<line class="st8" x1="-673.2" y1="-529" x2="-656.6" y2="-512.4"/>
	</g>
	<g>
		<path class="st2" d="M-382.1,63.8h-28c-3.3,0-6-2.7-6-6V14.2c0-3.3,2.7-6,6-6h28c3.3,0,6,2.7,6,6v43.6
			C-376.1,61.1-378.8,63.8-382.1,63.8z"/>
		<line class="st7" x1="-404.5" y1="15.8" x2="-388.3" y2="15.8"/>
		<circle class="st6" cx="-396.2" cy="56.3" r="3"/>
	</g>
	<g>
		<line class="st3" x1="-828.1" y1="-207.7" x2="-828.1" y2="-151.7"/>
		<line class="st3" x1="-856.1" y1="-179.7" x2="-800.1" y2="-179.7"/>
		<line class="st3" x1="-828.1" y1="-199.7" x2="-819.8" y2="-207.9"/>
		<line class="st3" x1="-828.1" y1="-199.7" x2="-836.1" y2="-207.7"/>
		<line class="st3" x1="-808.1" y1="-179.9" x2="-799.8" y2="-171.7"/>
		<line class="st3" x1="-808.1" y1="-179.9" x2="-800" y2="-187.9"/>
		<line class="st3" x1="-827.8" y1="-159.9" x2="-836.1" y2="-151.7"/>
		<line class="st3" x1="-827.8" y1="-159.9" x2="-819.8" y2="-151.9"/>
		<line class="st3" x1="-847.8" y1="-179.7" x2="-856.1" y2="-187.9"/>
		<line class="st3" x1="-847.8" y1="-179.7" x2="-855.8" y2="-171.7"/>
		<line class="st3" x1="-808.3" y1="-199.6" x2="-847.9" y2="-160"/>
		<line class="st3" x1="-847.9" y1="-199.6" x2="-808.3" y2="-160"/>
		<line class="st3" x1="-814" y1="-193.9" x2="-802.3" y2="-193.9"/>
		<line class="st3" x1="-814" y1="-193.9" x2="-814" y2="-205.3"/>
		<line class="st3" x1="-813.8" y1="-165.8" x2="-813.8" y2="-154.2"/>
		<line class="st3" x1="-813.8" y1="-165.8" x2="-802.5" y2="-165.8"/>
		<line class="st3" x1="-841.9" y1="-165.7" x2="-853.6" y2="-165.7"/>
		<line class="st3" x1="-841.9" y1="-165.7" x2="-841.9" y2="-154.3"/>
		<line class="st3" x1="-842.1" y1="-193.8" x2="-842.1" y2="-205.4"/>
		<line class="st3" x1="-842.1" y1="-193.8" x2="-853.4" y2="-193.8"/>
	</g>
	<g>
		<line class="st3" x1="-712.1" y1="-207.4" x2="-712.1" y2="-151.4"/>
		<line class="st3" x1="-684.1" y1="-207.4" x2="-684.1" y2="-151.4"/>
		<line class="st3" x1="-656.1" y1="-207.4" x2="-656.1" y2="-178.8"/>
		<line class="st3" x1="-656.1" y1="-178.8" x2="-712.1" y2="-178.8"/>
		<circle class="st6" cx="-684.1" cy="-178.8" r="9"/>
	</g>
	<g>
		<g>
			<line class="st3" x1="-264.9" y1="36.9" x2="-264.9" y2="39.5"/>
			<line class="st3" x1="-259.8" y1="36.9" x2="-259.8" y2="39.5"/>
			<path class="st3" d="M-274.4,48c0-4.2,4.1-8,8.5-8.7c1.2-0.2,3.4,2.7,3.4,2.7s2.3-2.9,3.4-2.7c4.4,0.7,8.5,4.4,8.5,8.7H-274.4z"
				/>
			<path class="st3" d="M-256.4,30.1c0,2.4-1.4,5.2-3.4,6.6c-0.8,0.6-1.7,0.9-2.6,0.9c-0.9,0-1.7-0.3-2.5-0.8
				c-2.1-1.4-3.6-4.3-3.6-6.7c0-3.3,2.7-6.1,6.1-6.1C-259.1,24-256.4,26.8-256.4,30.1z"/>
		</g>
		<path class="st3" d="M-229.9,55.8h-44.4c-3.3,0-6-2.7-6-6V22.2c0-3.3,2.7-6,6-6h44.4c3.3,0,6,2.7,6,6v27.6
			C-223.9,53.1-226.6,55.8-229.9,55.8z"/>
		<line class="st3" x1="-245.4" y1="25.4" x2="-236.4" y2="25.4"/>
		<line class="st3" x1="-245.4" y1="35.4" x2="-230.4" y2="35.4"/>
		<line class="st3" x1="-245.4" y1="45.3" x2="-230.4" y2="45.3"/>
	</g>
	<g>
		<path class="st2" d="M561.4-444.2h-44c-3.3,0-6-2.7-6-6v-28c0-3.3,2.7-6,6-6h44c3.3,0,6,2.7,6,6v28
			C567.4-446.9,564.7-444.2,561.4-444.2z"/>
		<circle class="st2" cx="547.1" cy="-464.2" r="12.3"/>
		<circle class="st2" cx="521.4" cy="-473.4" r="3"/>
		<line class="st7" x1="519.4" y1="-451.2" x2="519.4" y2="-464.2"/>
		<path class="st7" d="M559.4-485.2v-3.3c0-1.6-1.3-3-3-3h-18.6c-1.7,0-3,1.4-3,3v3.3"/>
		<path class="st7" d="M528.4-485.2v-0.3c0-1.6-1.4-3-3-3h-2.6c-1.6,0-3,1.4-3,3v0.3"/>
	</g>
	<g>
		<path class="st2" d="M-382.1-513.9h-28c-3.3,0-6-2.7-6-6v-23.8c0-3.3,2.7-6,6-6h28c3.3,0,6,2.7,6,6v23.8
			C-376.1-516.6-378.8-513.9-382.1-513.9z"/>
		<circle class="st3" cx="-396.2" cy="-537.3" r="3"/>
		<line class="st3" x1="-396.2" y1="-534.3" x2="-396.2" y2="-525.4"/>
		<path class="st2" d="M-408.3-549.7v-8.2c0-4.4,3.6-8,8-8h8c4.4,0,8,3.6,8,8l0,0v8.4"/>
	</g>
	<g>
		<path class="st2" d="M-526.1-431.9h-28c-3.3,0-6-2.7-6-6v-23.8c0-3.3,2.7-6,6-6h28c3.3,0,6,2.7,6,6v23.8
			C-520.1-434.6-522.8-431.9-526.1-431.9z"/>
		<path class="st2" d="M-528.3-467.7h-24v-12.2c0-4.4,3.6-8,8-8h8c4.4,0,8,3.6,8,8l0,0v3.4"/>
		<circle class="st3" cx="-540.2" cy="-455.2" r="3"/>
		<line class="st3" x1="-540.2" y1="-452.2" x2="-540.2" y2="-443.4"/>
	</g>
	<path class="st7" d="M-969.5,463.1l2.7,2l5.2,3.5c1.3,1.1,1.4,3,0.3,4.2c-0.6,0.7-1.4,1-2.3,1c-0.7,0-1.4-0.2-2-0.7l-5.2-3.6"/>
	<path class="st3" d="M-965.6,446.1c0,2.2-1.3,4.7-3.1,6c-0.7,0.5-1.5,0.8-2.4,0.8c-0.8,0-1.6-0.3-2.3-0.7c-1.9-1.2-3.2-3.9-3.2-6.1
		c0-3,2.5-5.5,5.5-5.5S-965.6,443.1-965.6,446.1z"/>
	<g>
		<path class="st3" d="M-974.1,483.5l-0.1,0.6l-1.4,8.4c-0.3,1.4-1.5,2.4-2.9,2.4c-0.2,0-0.4,0-0.6-0.1c-1.6-0.3-2.7-1.9-2.4-3.5
			l2.5-13l0.5-2.6"/>
	</g>
	<g>
		<path class="st7" d="M-978.6,475.8l0.6,0.9l10.1,16.8c0.6,0.7,1.4,1,2.2,1c0.7,0,1.4-0.2,1.9-0.7c1.3-1.1,1.3-3.2,0.2-4.4
			l-8.6-15.2l0.1-0.4l2.9-15c0.3-1.8-1.6-3.2-3-3.6c0,0-3.3-0.7-4.7,0.7l-0.4,0.4l-5.7,5.4c-0.4,0.4-0.6,0.9-0.6,1.4
			c-0.1,0.5-0.1,1,0,1.5l1.3,7.7c0.4,1.6,2.1,2.5,3.7,2.1c0.2-0.1,0.4-0.1,0.5-0.2c1.3-0.6,1.9-2.1,1.6-3.5l-1-6l2.8-2.6"/>
	</g>
	<g>
		<circle class="st6" cx="-130" cy="-539.9" r="6"/>
		<circle class="st6" cx="-108" cy="-539.9" r="6"/>
		<circle class="st6" cx="-86" cy="-539.9" r="6"/>
	</g>
	<g>
		<circle class="st6" cx="-266.4" cy="-539.1" r="3"/>
		<circle class="st6" cx="-252.4" cy="-539.1" r="3"/>
		<circle class="st6" cx="-237.4" cy="-539.1" r="3"/>
		<circle class="st2" cx="-252.1" cy="-539.9" r="28"/>
	</g>
	<g>
		<line class="st3" x1="-509.6" y1="-151.4" x2="-570.6" y2="-151.4"/>
		<line class="st3" x1="-540.4" y1="-162.2" x2="-540.4" y2="-207.4"/>
		<polyline class="st3" points="-555.9,-174.9 -540.4,-159.4 -525,-174.9 		"/>
	</g>
	<g>
		<line class="st3" x1="-426.6" y1="-207.4" x2="-365.6" y2="-207.4"/>
		<line class="st3" x1="-395.7" y1="-196.6" x2="-395.7" y2="-151.4"/>
		<polyline class="st3" points="-380.2,-183.9 -395.7,-199.4 -411.2,-183.9 		"/>
	</g>
	<g>
		<circle class="st2" cx="-252.1" cy="-179.4" r="6"/>
		<circle class="st2" cx="-252.1" cy="-179.4" r="28"/>
		<line class="st14" x1="-252.1" y1="-151.4" x2="-252.1" y2="-174.4"/>
		<line class="st14" x1="-257.5" y1="-179.4" x2="-280.1" y2="-179.4"/>
		<line class="st14" x1="-224.1" y1="-179.4" x2="-246.1" y2="-179.4"/>
	</g>
	<g>
		<path class="st3" d="M999.3-474.3v29.7c0,3.3-2.7,6-6,6h-44c-3.3,0-6-2.7-6-6v-44c0-3.3,2.7-6,6-6h29.7"/>
		<g>
			<path class="st3" d="M962.5-468.8l26.1-26.1c2.7-2.7,7.1-2.7,9.8,0l0,0c2.7,2.7,2.7,7.1,0,9.8l-26.1,26.1"/>
			<path class="st3" d="M972.3-459.1l-6.9,0.9c-2,0-3.7-1.6-3.7-3.7l0.8-7"/>
			<line class="st3" x1="967.3" y1="-471.8" x2="975.9" y2="-463.2"/>
		</g>
	</g>
	<g>
		<path class="st15" d="M810.5-447.9h-4.6c-3.3,0-6-2.7-6-6v-28c0-3.3,2.7-6,6-6h44c3.3,0,6,2.7,6,6v28c0,3.3-2.7,6-6,6h-5.1"/>
		<path class="st15" d="M847.9-488.3v-1.6c0-3.3-2.7-6-6-6h-28c-3.3,0-6,2.7-6,6v1.6"/>
		<circle class="st15" cx="844.7" cy="-477.1" r="3"/>
		<line class="st15" x1="807.9" y1="-463.6" x2="847.7" y2="-463.6"/>
		<path class="st15" d="M844-462.7v16.8c0,3.3-2.7,6-6,6h-20.5c-3.3,0-6-2.7-6-6v-16.8"/>
		<line class="st15" x1="819.6" y1="-457.7" x2="835.6" y2="-457.7"/>
		<line class="st15" x1="819.6" y1="-452.7" x2="827.6" y2="-452.7"/>
	</g>
	<g>
		<circle class="st16" cx="1115.9" cy="-467.9" r="28.1"/>
		<path class="st16" d="M1124.2-451.6c0,7.6-2.8,11.5-10.4,11.5c-3.9,0-1.1-7.6-3.6-10.2c-2.4-2.5-8-3.3-8-7c0-3.5,0.8-6.7,2.5-9.1
			c1.9-2.9,10.4-2.4,14.6-2.4c3.7,0,6.2,3.8,8.7,6.2C1130.6-460.2,1124.2-455.5,1124.2-451.6z"/>
		<path class="st17" d="M1111.7-495.6c0,0-3.1,3.4-3.3,4.9c-0.1,1.5,2,3.1,2.8,3c0.9-0.2,2.2-1.2,2.4-2.7c0.2-1.4-1.6-4.9-1.6-4.9"
			/>
		<path class="st17" d="M1123.8-494.6c0,0,1.8,4.9,1.9,6.4c0.1,1.5-7.5,1.6-8.4,1.4c-0.9-0.2,3.1-6.6,3-8.1"/>
		<path class="st17" d="M1142.5-473.9l-8.7,7.7c0,0-4.7-4.7-6.8-6c-1.4-1-3.2-3-7.7-3.3c-4.4-0.5-4.9,1.7-8.2,1
			c-3.3-0.7-4.2-3.2-1.7-5.7c2.4-2.4,6.1-2.2,6.1-2.2l7.5,1.9c0,0,4.7,0,5.9-2.1c1.2-2.1,5.4-6.1,5.4-6.1"/>
	</g>
	<g>
		<g>
			<path class="st18" d="M1285.6-482.9h-51c-0.8,0-1.5-0.7-1.5-1.5s0.7-1.5,1.5-1.5h51c0.8,0,1.5,0.7,1.5,1.5
				S1286.5-482.9,1285.6-482.9z"/>
		</g>
		<g>
			<path class="st18" d="M1272.8-466.4h-38.2c-0.8,0-1.5-0.7-1.5-1.5s0.7-1.5,1.5-1.5h38.2c0.8,0,1.5,0.7,1.5,1.5
				S1273.6-466.4,1272.8-466.4z"/>
		</g>
		<g>
			<path class="st18" d="M1285.6-449.9h-51c-0.8,0-1.5-0.7-1.5-1.5s0.7-1.5,1.5-1.5h51c0.8,0,1.5,0.7,1.5,1.5
				S1286.5-449.9,1285.6-449.9z"/>
		</g>
	</g>
	<g>
		<path class="st18" d="M-384.5,239.3l-25.3,13.8c-0.5,0.3-0.9,0.9-0.8,1.5s0.5,1.1,1.1,1.3l8.2,1.9l2.2,8.5c0.2,0.6,0.7,1,1.3,1.1
			c0.1,0,0.1,0,0.2,0c0.5,0,1.1-0.3,1.3-0.8l13.8-25.3c0.3-0.6,0.2-1.3-0.3-1.8C-383.2,239-383.9,238.9-384.5,239.3z M-397.1,261.8
			l-1.5-5.7c-0.1-0.5-0.6-1-1.1-1.1l-5.2-1.2l17.4-9.5L-397.1,261.8z"/>
		<path class="st18" d="M-374.4,223.7h-44c-4.1,0-7.5,3.4-7.5,7.5v44c0,4.1,3.4,7.5,7.5,7.5h44c4.1,0,7.5-3.4,7.5-7.5v-44
			C-366.9,227.1-370.3,223.7-374.4,223.7z M-369.9,275.2c0,2.5-2,4.5-4.5,4.5h-44c-2.5,0-4.5-2-4.5-4.5v-44c0-2.5,2-4.5,4.5-4.5h44
			c2.5,0,4.5,2,4.5,4.5V275.2z"/>
	</g>
	<g>
		<path class="st3" d="M1419.6-480h-31.5c-2.3,0-4.3-1.9-4.3-4.3l0,0c0-2.3,1.9-4.3,4.3-4.3h31.5c2.3,0,4.3,1.9,4.3,4.3l0,0
			C1423.9-482,1421.9-480,1419.6-480z"/>
		<path class="st3" d="M1387.5-479.3v33.1c0,3.3,2.7,6,6,6h20.7c3.3,0,6-2.7,6-6v-33.1"/>
		<g>
			<line class="st3" x1="1395.9" y1="-471" x2="1395.9" y2="-450.7"/>
			<line class="st3" x1="1403.9" y1="-471" x2="1403.9" y2="-450.7"/>
			<line class="st3" x1="1411.9" y1="-471" x2="1411.9" y2="-450.7"/>
		</g>
		<path class="st3" d="M1411.9-489.6c0-3.3-2.7-6-6-6h-4c-3.3,0-6,2.7-6,6"/>
	</g>
	<g>
		<g>
			<g>
				<ellipse transform="matrix(0.5 -0.866 0.866 0.5 1169.2104 1089.3568)" class="st19" cx="1528" cy="-467.9" rx="8.5" ry="8.5"/>
				
					<ellipse transform="matrix(0.5 -0.866 0.866 0.5 1169.2104 1133.4099)" class="st19" cx="1566.2" cy="-445.9" rx="8.5" ry="8.5"/>
				<line class="st19" x1="1535.4" y1="-463.7" x2="1558.8" y2="-450.1"/>
			</g>
			<g>
				<ellipse transform="matrix(0.866 -0.5 0.5 0.866 454.7836 717.447)" class="st19" cx="1566.2" cy="-489.9" rx="8.5" ry="8.5"/>
				<ellipse transform="matrix(0.866 -0.5 0.5 0.866 438.659 701.3224)" class="st19" cx="1528" cy="-467.9" rx="8.5" ry="8.5"/>
				<line class="st19" x1="1558.8" y1="-485.7" x2="1535.4" y2="-472.1"/>
			</g>
		</g>
	</g>
	<path class="st6" d="M1722.2-482c-1.1-1.2-3-1.4-4.2-0.3l-25.7,22.7l-26.3-23c-1.2-1.1-3.1-1-4.2,0.3c-1.1,1.2-1,3.1,0.3,4.2
		l28.3,24.7c0.6,0.5,1.3,0.7,2,0.7c0.7,0,1.4-0.3,2-0.8l27.7-24.5C1723.2-478.9,1723.3-480.8,1722.2-482z"/>
	<path class="st6" d="M1722-385.8l-28.3-24.7c-0.6-0.5-1.3-0.7-2-0.7c-0.7,0-1.4,0.3-2,0.8L1662-386c-1.2,1.1-1.4,3-0.3,4.2
		c1.1,1.2,3,1.4,4.2,0.3l25.7-22.7l26.3,23c1.2,1.1,3.1,1,4.2-0.3C1723.3-382.8,1723.2-384.7,1722-385.8z"/>
	<path class="st6" d="M1706.6-326.2l-24.5-27.7c-1.1-1.2-3-1.4-4.2-0.3c-1.2,1.1-1.4,3-0.3,4.2l22.7,25.7l-23,26.3
		c-1.1,1.2-1,3.1,0.3,4.2c1.2,1.1,3.1,1,4.2-0.3l24.7-28.3c0.5-0.6,0.7-1.3,0.7-2C1707.3-324.9,1707.1-325.6,1706.6-326.2z"/>
	<path class="st6" d="M1683.6-251.6l23-26.3c1.1-1.2,1-3.1-0.3-4.2c-1.2-1.1-3.1-1-4.2,0.3l-24.7,28.3c-0.5,0.6-0.7,1.3-0.7,2
		c0,0.7,0.3,1.4,0.8,2l24.5,27.7c1.1,1.2,3,1.4,4.2,0.3c1.2-1.1,1.4-3,0.3-4.2L1683.6-251.6z"/>
	<path class="st2" d="M554.4-301.7h-28c-3.3,0-6-2.7-6-6l2-19.5c0-3.3,2.7-6,6-6h24c3.3,0,6,2.7,6,6l2,19.5
		C560.4-304.4,557.7-301.7,554.4-301.7z"/>
	<circle class="st2" cx="540.3" cy="-317.4" r="9.6"/>
	<circle class="st6" cx="540.3" cy="-317.4" r="3"/>
	<line class="st3" x1="528.4" y1="-333.2" x2="528.4" y2="-337.2"/>
	<line class="st3" x1="552.3" y1="-333.2" x2="552.3" y2="-337.2"/>
	<path class="st2" d="M566-341.2c-0.2-0.2-0.4-0.3-0.7-0.4c-6.9-2.9-15.6-4.5-24.5-4.5c-9.4,0-18.5,1.8-25.5,4.9
		c-0.8,0.3-1.3,1-1.6,1.7c-0.6,0.8-0.9,1.8-0.9,2.9c0,2.8,2.3,5.1,5.1,5.1c2.8,0,5.1-2.3,5.1-5.1c0-0.3,0-0.7-0.1-1
		c5.4-1.6,11.6-2.5,18-2.5c6.2,0,12.3,0.8,17.5,2.4c0,0.3-0.1,0.5-0.1,0.8c0,2.8,2.3,5.1,5.1,5.1c2.8,0,5.1-2.3,5.1-5.1
		C568.3-338.7,567.4-340.3,566-341.2z"/>
	<g>
		<path class="st18" d="M674.5-342.1c0.4,0,0.8-0.1,1.1-0.4l6.9-6.9v36.4c0,0.8,0.7,1.5,1.5,1.5s1.5-0.7,1.5-1.5v-36.4l6.9,6.9
			c0.6,0.6,1.5,0.6,2.1,0s0.6-1.5,0-2.1l-9.5-9.5c-0.3-0.3-0.7-0.4-1.1-0.4s-0.8,0.2-1.1,0.4l-9.5,9.5c-0.6,0.6-0.6,1.5,0,2.1
			C673.7-342.3,674.1-342.1,674.5-342.1z"/>
		<path class="st18" d="M702-337.3h-10.3c-0.8,0-1.5,0.7-1.5,1.5s0.7,1.5,1.5,1.5H702c2.5,0,4.5,2,4.5,4.5v29c0,2.5-2,4.5-4.5,4.5
			h-36c-2.5,0-4.5-2-4.5-4.5v-29c0-2.5,2-4.5,4.5-4.5h9.9c0.8,0,1.5-0.7,1.5-1.5s-0.7-1.5-1.5-1.5H666c-4.1,0-7.5,3.4-7.5,7.5v29
			c0,4.1,3.4,7.5,7.5,7.5h36c4.1,0,7.5-3.4,7.5-7.5v-29C709.5-333.9,706.1-337.3,702-337.3z"/>
	</g>
	<g>
		<path class="st3" d="M823.7-328.3"/>
		<g>
			<path class="st3" d="M843.5-318.9c-2.1-3.6-5.8-5.3-10-5.8c-2.5-0.3-1.4-3.5-1.4-3.5"/>
			<path class="st3" d="M823.7-328.2c0,0,1.1,3.2-1.4,3.5c-4.4,0.5-8.2,2.2-10.2,6.1"/>
		</g>
		<path class="st3" d="M823.7-328.3c-3.5-2.3-5.9-7.1-5.9-11.2c0-5.6,4.5-10.1,10.1-10.1c5.6,0,10.1,4.5,10.1,10.1
			c0,4.1-2.4,8.9-5.9,11.2"/>
		<path class="st3" d="M846.9-298.3H809c-0.5,0-1-0.4-1-1V-317c0-0.6,0.5-1,1-1h37.9c0.5,0,1,0.4,1,1v17.8
			C847.9-298.7,847.4-298.3,846.9-298.3z"/>
		<path class="st20" d="M807.6-304h0.6c0.7,0,1.3-0.6,1.3-1.3v-5c0-0.7-0.6-1.3-1.3-1.3h-0.6c-0.7,0-1.3,0.6-1.3,1.3v5
			C806.4-304.6,806.9-304,807.6-304z"/>
		<path class="st21" d="M847.6-304h0.6c0.7,0,1.3-0.6,1.3-1.3v-5c0-0.7-0.6-1.3-1.3-1.3h-0.6c-0.7,0-1.3,0.6-1.3,1.3v5
			C846.3-304.6,846.8-304,847.6-304z"/>
	</g>
	<path class="st22" d="M64-541.4H11.6l12.9-12.9c0.6-0.6,0.6-1.5,0-2.1s-1.5-0.6-2.1,0L6.9-541c-0.3,0.3-0.4,0.7-0.4,1.1
		s0.2,0.8,0.4,1.1l15.5,15.5c0.3,0.3,0.7,0.4,1.1,0.4s0.8-0.1,1.1-0.4c0.6-0.6,0.6-1.5,0-2.1l-12.9-12.9H64c0.8,0,1.5-0.7,1.5-1.5
		S64.8-541.4,64-541.4z"/>
	<path class="st22" d="M124.5-553.5L109-569c-0.6-0.6-1.6-0.6-2.1,0l-15.5,15.5c-0.6,0.6-0.6,1.5,0,2.1s1.5,0.6,2.1,0l12.9-12.9
		v52.4c0,0.8,0.7,1.5,1.5,1.5s1.5-0.7,1.5-1.5v-52.4l12.9,12.9c0.3,0.3,0.7,0.4,1.1,0.4s0.8-0.1,1.1-0.4
		C125.1-552,125.1-552.9,124.5-553.5z"/>
	<path class="st22" d="M124.5-456.4c-0.6-0.6-1.5-0.6-2.1,0l-12.9,12.9v-52.4c0-0.8-0.7-1.5-1.5-1.5s-1.5,0.7-1.5,1.5v52.4
		l-12.9-12.9c-0.6-0.6-1.5-0.6-2.1,0s-0.6,1.5,0,2.1l15.5,15.5c0.3,0.3,0.7,0.4,1.1,0.4s0.8-0.2,1.1-0.4l15.5-15.5
		C125.1-454.9,125.1-455.8,124.5-456.4z"/>
	<path class="st22" d="M65-469l-15.5-15.5c-0.6-0.6-1.5-0.6-2.1,0s-0.6,1.5,0,2.1l12.9,12.9H8c-0.8,0-1.5,0.7-1.5,1.5
		s0.7,1.5,1.5,1.5h52.4l-12.9,12.9c-0.6,0.6-0.6,1.5,0,2.1c0.3,0.3,0.7,0.4,1.1,0.4s0.8-0.1,1.1-0.4L65-466.8
		c0.3-0.3,0.4-0.7,0.4-1.1S65.3-468.7,65-469z"/>
	<path class="st6" d="M1001.3-324.1c0-7.5-2.9-14.9-8.6-20.6c-5.6-5.6-12.9-8.6-20.8-8.6c-7.9,0-15.2,3.1-20.8,8.6
		c-5.7,5.7-8.5,13.1-8.6,20.6c0,0.1,0,0.1,0,0.2s0,0.1,0,0.2c0,7.5,2.9,14.9,8.6,20.6c5.7,5.7,13.1,8.5,20.6,8.6c0.1,0,0.1,0,0.2,0
		s0.1,0,0.2,0c0,0,0.1,0,0.1,0c0,0,0.1,0,0.1,0c0,0,0.1,0,0.1,0c7.3-0.1,14.7-3,20.2-8.6c5.7-5.7,8.5-13.1,8.6-20.6
		c0-0.1,0-0.1,0-0.2C1001.3-324,1001.3-324.1,1001.3-324.1z M968.6-350.1c-2.9,3.4-5.2,7.2-6.8,11.2c-2.7-1.1-5.3-2.7-7.5-4.7
		C958.4-347.3,963.4-349.5,968.6-350.1z M952.2-341.5c2.6,2.4,5.5,4.2,8.6,5.4c-1.1,3.5-1.7,7-1.9,10.6h-13.4
		C945.9-331.2,948.1-336.9,952.2-341.5z M945.5-322.4h13.4c0.1,3.6,0.7,7.2,1.8,10.6c-3.1,1.3-6,3.1-8.6,5.4
		C948.1-311,945.9-316.7,945.5-322.4z M954.3-304.3c2.2-2,4.7-3.6,7.4-4.7c1.5,4,3.7,7.7,6.6,11.2
		C963.2-298.5,958.3-300.7,954.3-304.3z M970.4-299.9c-2.5-3.1-4.5-6.5-5.9-10c1.9-0.5,3.9-0.9,5.9-1V-299.9z M970.4-314
		c-2.3,0.1-4.6,0.5-6.8,1.2c-0.9-3.1-1.5-6.4-1.6-9.6h8.4V-314z M970.4-325.4h-8.4c0.1-3.3,0.7-6.5,1.7-9.6c2.2,0.6,4.5,1,6.7,1.1
		V-325.4z M970.4-336.9c-1.9-0.1-3.9-0.4-5.7-1c1.4-3.4,3.3-6.7,5.7-9.7V-336.9z M989.5-343.6c-2.2,1.9-4.6,3.5-7.2,4.6
		c-1.6-4-3.9-7.7-6.7-11C980.6-349.3,985.5-347.2,989.5-343.6z M973.4-348.1c2.6,3.1,4.6,6.4,6.1,10.1c-2,0.6-4.1,1-6.1,1.1V-348.1z
		 M973.4-333.9c2.4-0.1,4.8-0.5,7.1-1.3c1,3.1,1.6,6.4,1.7,9.7h-8.9V-333.9z M973.4-322.4h8.9c-0.1,3.3-0.7,6.6-1.6,9.8
		c-2.3-0.7-4.8-1.2-7.2-1.3V-322.4z M973.4-311c2.1,0.1,4.2,0.5,6.2,1.1c-1.5,3.8-3.6,7.3-6.2,10.4V-311z M976-297.9
		c2.7-3.3,4.9-7,6.5-10.9c2.6,1.1,4.9,2.6,7.1,4.5C985.6-300.8,980.9-298.6,976-297.9z M991.6-306.4c-2.4-2.2-5.2-4-8.2-5.2
		c1.1-3.5,1.7-7.1,1.8-10.8h13C997.9-316.7,995.7-311,991.6-306.4z M985.2-325.4c-0.1-3.7-0.8-7.3-1.9-10.8c3-1.3,5.8-3,8.3-5.3
		c4.1,4.6,6.3,10.3,6.6,16H985.2z"/>
	<g>
		<path class="st18" d="M713.9-447.9l-25.8-45.7c-0.8-1.4-2.3-2.2-3.9-2.2c0,0,0,0,0,0c-1.6,0-3.1,0.8-3.9,2.2c0,0,0,0,0,0
			l-25.8,45.7c-0.8,1.4-0.8,3.1,0,4.5c0.8,1.4,2.3,2.3,3.9,2.3H710c1.6,0,3.1-0.8,3.9-2.3C714.8-444.8,714.8-446.5,713.9-447.9z
			 M711.3-444.9c-0.1,0.2-0.5,0.8-1.3,0.8h-51.6c-0.8,0-1.2-0.5-1.3-0.8s-0.4-0.8,0-1.5l25.8-45.7c0.4-0.7,1-0.7,1.3-0.7
			s0.9,0.1,1.3,0.7l25.8,45.7C711.7-445.8,711.5-445.2,711.3-444.9z"/>
		<path class="st18" d="M684.3-455.4c-1.2,0-2,0.3-2.6,0.9c-0.6,0.6-0.9,1.4-0.9,2.6c0,1.1,0.3,1.9,0.9,2.5s1.5,0.9,2.6,0.9
			c1.1,0,2-0.3,2.6-0.9s0.9-1.4,0.9-2.5c0-1.1-0.3-1.9-0.9-2.5C686.3-455.1,685.4-455.4,684.3-455.4z"/>
		<polygon class="st18" points="681.8,-458.8 686.8,-458.8 687.8,-478.5 680.8,-478.5 		"/>
	</g>
	<g>
		<path class="st18" d="M1116.3-353.4c-16.3,0-29.5,13.2-29.5,29.5s13.2,29.5,29.5,29.5s29.5-13.2,29.5-29.5
			S1132.6-353.4,1116.3-353.4z M1116.3-297.4c-14.6,0-26.5-11.9-26.5-26.5s11.9-26.5,26.5-26.5s26.5,11.9,26.5,26.5
			S1130.9-297.4,1116.3-297.4z"/>
		<path class="st18" d="M1132.8-311.4c-4.9-3.3-10.6-5-16.5-5c-6.1,0-11.9,1.8-16.9,5.3c-0.7,0.5-0.8,1.4-0.4,2.1
			c0.3,0.4,0.8,0.6,1.2,0.6c0.3,0,0.6-0.1,0.9-0.3c4.5-3.1,9.7-4.8,15.2-4.8c5.3,0,10.4,1.6,14.8,4.5c0.7,0.5,1.6,0.3,2.1-0.4
			S1133.5-310.9,1132.8-311.4z"/>
		<path class="st18" d="M1106.8-328.6c2.5,0,4.5-2,4.5-4.5s-2-4.5-4.5-4.5s-4.5,2-4.5,4.5S1104.4-328.6,1106.8-328.6z M1106.8-334.6
			c0.8,0,1.5,0.7,1.5,1.5s-0.7,1.5-1.5,1.5s-1.5-0.7-1.5-1.5S1106-334.6,1106.8-334.6z"/>
		<path class="st18" d="M1125.8-328.6c2.5,0,4.5-2,4.5-4.5s-2-4.5-4.5-4.5s-4.5,2-4.5,4.5S1123.4-328.6,1125.8-328.6z M1125.8-334.6
			c0.8,0,1.5,0.7,1.5,1.5s-0.7,1.5-1.5,1.5s-1.5-0.7-1.5-1.5S1125-334.6,1125.8-334.6z"/>
	</g>
	<g>
		<path class="st18" d="M1260.1-353.4c-16.3,0-29.5,13.2-29.5,29.5s13.2,29.5,29.5,29.5s29.5-13.2,29.5-29.5
			S1276.4-353.4,1260.1-353.4z M1260.1-297.4c-14.6,0-26.5-11.9-26.5-26.5s11.9-26.5,26.5-26.5s26.5,11.9,26.5,26.5
			S1274.7-297.4,1260.1-297.4z"/>
		<path class="st18" d="M1246.1-333.1c0,2.5,2,4.5,4.5,4.5s4.5-2,4.5-4.5c0-1.4-0.6-2.6-1.6-3.4l1.4,0.4c0.1,0,0.3,0,0.4,0
			c0.7,0,1.3-0.4,1.5-1.1c0.2-0.8-0.3-1.6-1.1-1.8l-7.6-2c-0.8-0.2-1.6,0.3-1.8,1.1s0.3,1.6,1.1,1.8l2.5,0.7
			C1247.7-337.1,1246.1-335.3,1246.1-333.1z M1250.6-334.6c0.8,0,1.5,0.7,1.5,1.5s-0.7,1.5-1.5,1.5s-1.5-0.7-1.5-1.5
			S1249.8-334.6,1250.6-334.6z"/>
		<path class="st18" d="M1275.6-316.4l-31.7,5c-0.8,0.1-1.4,0.9-1.2,1.7c0.1,0.7,0.8,1.3,1.5,1.3c0.1,0,0.2,0,0.2,0l31.7-5
			c0.8-0.1,1.4-0.9,1.2-1.7S1276.4-316.5,1275.6-316.4z"/>
		<path class="st18" d="M1264.6-336.1c0.1,0,0.3,0,0.4,0l1.9-0.5c-1.1,0.8-1.8,2.1-1.8,3.6c0,2.5,2,4.5,4.5,4.5s4.5-2,4.5-4.5
			c0-2.3-1.7-4.2-3.9-4.4l2.4-0.6c0.8-0.2,1.3-1,1.1-1.8s-1-1.3-1.8-1.1l-7.6,2c-0.8,0.2-1.3,1-1.1,1.8
			C1263.4-336.6,1264-336.1,1264.6-336.1z M1269.6-334.6c0.8,0,1.5,0.7,1.5,1.5s-0.7,1.5-1.5,1.5s-1.5-0.7-1.5-1.5
			S1268.8-334.6,1269.6-334.6z"/>
	</g>
	<g>
		<path class="st18" d="M1418.3-351.1h-11.9c-0.2,0-0.4-0.1-0.5-0.1c0.5-1.3,1.7-2.2,3.2-2.2c0.8,0,1.5-0.7,1.5-1.5
			s-0.7-1.5-1.5-1.5c-2.7,0-5,1.7-6,4.1c-0.1-0.1-0.1-0.3-0.1-0.4c0-0.8-0.7-1.5-1.5-1.5s-1.5,0.7-1.5,1.5c0,0.6,0.1,1.1,0.3,1.6
			h-10c-4.1,0-7.5,3.4-7.5,7.5v44c0,4.1,3.4,7.5,7.5,7.5h28c4.1,0,7.5-3.4,7.5-7.5v-44C1425.8-347.7,1422.4-351.1,1418.3-351.1z
			 M1418.3-348.1c2.4,0,4.4,2,4.5,4.4l-4.5,4.7c-0.6-3.7-2.6-6.9-5.4-9.1H1418.3z M1416.9-328.9c1,2.7,1.5,5.8,1.5,8.9
			c0,10.9-6.4,19.8-14.2,19.8c-3.7,0-7.1-2-9.6-5.3L1416.9-328.9z M1391.5-310.9c-1-2.7-1.6-5.8-1.6-9.1c0-2.9,0.5-5.7,1.3-8.3
			c2.4,3.6,6.2,6.1,10.6,6.6L1391.5-310.9z M1401.1-348.1h5c5.3,1.1,9.4,5.9,9.4,11.6c0,0.2,0,0.3,0,0.5l-10.7,11.3
			c-0.4,0-0.7,0.1-1.1,0.1c-6.5,0-11.8-5.3-11.8-11.8C1391.8-342.2,1395.8-346.9,1401.1-348.1z M1385.8-343.6c0-2.5,2-4.5,4.5-4.5
			h4.1c-3.4,2.7-5.6,6.9-5.6,11.6c0,1.6,0.2,3.1,0.7,4.5c0,0.1-0.1,0.1-0.1,0.2c-1.5,3.4-2.4,7.2-2.4,11.2h-1.2V-343.6z
			 M1385.8-317.7h1.3c0.3,3.3,1.1,6.4,2.3,9.1l-3.5,3.7V-317.7z M1422.8-299.6c0,2.5-2,4.5-4.5,4.5h-28c-1.5,0-2.9-0.8-3.7-2
			l5.9-6.2c3.1,3.8,7.2,6.1,11.7,6.1c8.9,0,16.2-9,17.1-20.4h1.5V-299.6z M1422.8-320.7h-1.4c-0.1-3.5-0.8-7-2-10.1
			c-0.1-0.2-0.2-0.3-0.3-0.4l3.7-3.8V-320.7z"/>
		<ellipse class="st18" cx="1403.6" cy="-331.2" rx="3.2" ry="2.5"/>
	</g>
	<g>
		<path class="st18" d="M697.3-199.4l-0.1-1.2c0-4.5-3.4-7.5-8.6-7.5H681c0,0,0,0,0,0c0-2.3-1.9-4.2-4.2-4.2c-0.8,0-1.5,0.7-1.5,1.5
			s0.7,1.5,1.5,1.5c0.7,0,1.2,0.6,1.2,1.2c0,0,0,0,0,0.1c-4.7,0.4-7.8,3.3-7.8,7.5l0.1,1.2c-3.3,0.7-5.7,3.6-5.7,7.1v38.5
			c0,4.2,3.1,7.7,6.9,7.7h24.5c4,0,7.6-3.7,7.6-7.7v-38.5C703.5-195.8,700.7-198.8,697.3-199.4z M700.5-192.3v20.2h-3v-5.2
			c0-3.4-2.6-6.1-6.1-6.7c3.6-2.4,6.1-6.5,6.1-11.2c0,0,0,0,0,0l-0.1-1.1C699.2-195.7,700.5-194.1,700.5-192.3z M691.2-170.1h-0.4
			c-3.5,0-6.3,2.8-6.3,6.3v3.7h-1v-3.7c0-3.5-2.8-6.3-6.3-6.3h-0.4c-1.2,0-2.3,0.3-3.3,0.9v-8.1c0-2.3,1.5-3.8,3.9-3.8h12.5
			c2.2,0,4.6,1.4,4.6,3.8v8.1C693.5-169.8,692.4-170.1,691.2-170.1z M694.5-163.8v4.4c0,1.8-1.5,3.3-3.3,3.3h-0.4
			c-1.8,0-3.3-1.5-3.3-3.3v-4.4c0-1.8,1.5-3.3,3.3-3.3h0.4C693-167.1,694.5-165.6,694.5-163.8z M673.5-163.8c0-1.8,1.5-3.3,3.3-3.3
			h0.4c1.8,0,3.3,1.5,3.3,3.3v4.4c0,1.8-1.5,3.3-3.3,3.3h-0.4c-1.8,0-3.3-1.5-3.3-3.3V-163.8z M679.1-205.1h9.6
			c1.6,0,5.5,0.4,5.5,4.5l0.2,5.5c0,5.8-4.7,10.4-10.5,10.4c-5.8,0-10.5-4.7-10.5-10.5l-0.2-5.4
			C673.1-203.9,676.3-205.1,679.1-205.1z M670.3-196.3l0,1.1c0,4.6,2.4,8.7,5.9,11.1c-3.4,0.5-5.9,3.1-5.9,6.7v5.2h-3v-20.2
			C667.5-194.2,668.7-195.8,670.3-196.3z M695.9-149.1h-24.5c-2.4,0-3.9-2.4-3.9-4.7v-15.3h3v5c0,0,0,0.1,0,0.1c0,0.1,0,0.1,0,0.2
			v4.4c0,3.5,2.8,6.3,6.3,6.3h0.4c2.7,0,5-1.7,5.9-4.1c0.1,0,0.3,0.1,0.4,0.1h1c0.1,0,0.3,0,0.4-0.1c0.9,2.4,3.2,4.1,5.9,4.1h0.4
			c3.5,0,6.3-2.8,6.3-6.3v-4.4c0-0.1,0-0.1,0-0.2c0,0,0-0.1,0-0.1v-5h3v15.3C700.5-151.4,698.2-149.1,695.9-149.1z"/>
		<path class="st18" d="M683.8-187.8c0.6,0.3,1.2,0.4,1.8,0.4c1.6,0,3.2-0.9,4-2.6c0.4-0.7,0.1-1.6-0.7-2c-0.7-0.4-1.6-0.1-2,0.7
			c-0.4,0.7-1.2,1.1-1.9,0.8c-0.7-0.4-1.6-0.1-2,0.7C682.8-189,683.1-188.1,683.8-187.8z"/>
	</g>
	<g>
		<path class="st18" d="M554.3-158.6v-4.5c0,0,0-0.1,0-0.1c0,0,0,0,0-0.1v-13.3c0-1.3-0.4-2.5-1.1-3.5l0.7-0.6
			c0.6-0.5,0.7-1.5,0.2-2.1c-0.5-0.6-1.5-0.7-2.1-0.2l-1,0.8c-0.7-0.5-1.6-0.8-2.5-1c2.9-2.2,4.9-5.5,5.2-9.5
			c0.3-0.3,0.6-0.7,0.6-1.2v-6c0-0.5-0.2-0.9-0.5-1.1c-0.6-6.6-6.5-12.1-13.2-12.1c-6.6,0-12.5,5.3-13.3,11.7h-3
			c-0.8,0-1.5,0.7-1.5,1.5s0.7,1.5,1.5,1.5h3v3.9c-0.1,0.2-0.1,0.4-0.1,0.6c0,4.5,2,8.3,5.3,10.7c-3.1,0.7-5.2,3.2-5.2,6.5v13.3
			c0,0,0,0,0,0.1c0,0,0,0.1,0,0.1v0.8c-0.3,0-0.5,0.1-0.7,0.3l-0.5,0.4c-0.6,0.5-0.7,1.5-0.2,2.1c0.3,0.4,0.7,0.5,1.2,0.5
			c0.1,0,0.2,0,0.3-0.1v0.2c-3.3,0.1-6,2.8-6,6.2v0.6c0,3.6,2.6,6.6,5.9,6.6h25.6c3.4,0,6.5-3.2,6.5-6.6v-0.6
			C559.3-155.5,557.2-158,554.3-158.6z M551.3-176.7v8.2c-0.9-0.6-2-0.9-3.2-0.9h-0.6c-3.4,0-6.2,2.8-6.2,6.2v3.8h-1v-3.8
			c0-1.8-0.8-3.5-2.1-4.6l12.7-10.4C551.2-177.8,551.3-177.2,551.3-176.7z M551.3-163.2v4.6c0,1.8-1.4,3.2-3.2,3.2h-0.6
			c-1.8,0-3.2-1.4-3.2-3.2v-4.6c0-1.8,1.4-3.2,3.2-3.2h0.6C549.9-166.4,551.3-164.9,551.3-163.2z M530.3-163.2
			c0-1.8,1.4-3.2,3.2-3.2h0.6c1.8,0,3.2,1.4,3.2,3.2v4.6c0,1.8-1.4,3.2-3.2,3.2h-0.6c-1.8,0-3.2-1.4-3.2-3.2V-163.2z M540.6-210.1
			c4.9,0,9.3,3.9,10.1,8.7h-20.4C531.2-206.1,535.7-210.1,540.6-210.1z M530.3-193.3c0.1-0.2,0.1-0.3,0.1-0.5v-4.5h21v3.4
			c-0.3,0.3-0.5,0.7-0.5,1.1c0,5.9-4.3,10.2-10.3,10.2C534.8-183.6,530.5-187.7,530.3-193.3z M534.1-180.4h12.7
			c0.6,0,1.1,0.1,1.6,0.3L536-169.8c-0.2,0.2-0.3,0.3-0.4,0.6c-0.5-0.1-0.9-0.2-1.4-0.2h-0.6c-1.2,0-2.3,0.3-3.2,0.9v-8.2
			C530.3-178.9,531.8-180.4,534.1-180.4z M556.3-152c0,1.8-1.8,3.6-3.5,3.6h-25.6c-1.7,0-2.9-1.9-2.9-3.6v-0.6
			c0-1.8,1.4-3.2,3.1-3.2c0.2,0,0.3,0,0.5-0.1c1,2.1,3.1,3.5,5.6,3.5h0.6c2.6,0,4.9-1.7,5.8-4h1.8c0.9,2.3,3.1,4,5.8,4h0.6
			c2.4,0,4.5-1.4,5.5-3.4c1.5,0.3,2.7,1.6,2.7,3.1V-152z"/>
		<path class="st18" d="M539.6-187.1c0.6,0.3,1.2,0.4,1.8,0.4c0.5,0,1-0.1,1.5-0.3c1.1-0.4,2-1.2,2.5-2.3c0.4-0.7,0.1-1.6-0.7-2
			c-0.7-0.4-1.6-0.1-2,0.7c-0.2,0.4-0.5,0.6-0.8,0.8c-0.3,0.1-0.7,0.1-0.9,0c-0.7-0.4-1.6-0.1-2,0.7S538.9-187.4,539.6-187.1z"/>
	</g>
	<g>
		<path class="st18" d="M827.8-208.8c-16.3,0-29.6,13.3-29.6,29.6s13.3,29.6,29.6,29.6s29.6-13.3,29.6-29.6S844.1-208.8,827.8-208.8
			z M827.8-152.6c-14.7,0-26.6-11.9-26.6-26.6s11.9-26.6,26.6-26.6s26.6,11.9,26.6,26.6S842.5-152.6,827.8-152.6z"/>
		<path class="st18" d="M849.8-180.7H832c-0.5-1.3-1.5-2.3-2.7-2.7v-10.8c0-0.8-0.7-1.5-1.5-1.5s-1.5,0.7-1.5,1.5v10.8
			c-1.7,0.6-3,2.3-3,4.2c0,2.5,2,4.5,4.5,4.5c2,0,3.6-1.3,4.2-3h17.8c0.8,0,1.5-0.7,1.5-1.5S850.6-180.7,849.8-180.7z M827.8-177.7
			c-0.8,0-1.5-0.7-1.5-1.5s0.7-1.5,1.5-1.5s1.5,0.7,1.5,1.5S828.6-177.7,827.8-177.7z"/>
	</g>
	<g>
		<path class="st18" d="M972.2-209.2c-16.3,0-29.5,13.2-29.5,29.5s13.2,29.5,29.5,29.5s29.5-13.2,29.5-29.5S988.5-209.2,972.2-209.2
			z M972.2-153.2c-14.6,0-26.5-11.9-26.5-26.5s11.9-26.5,26.5-26.5s26.5,11.9,26.5,26.5S986.8-153.2,972.2-153.2z"/>
		<path class="st18" d="M987.2-178.4h-30c-0.8,0-1.5,0.7-1.5,1.5c0,9.1,7.4,16.5,16.5,16.5s16.5-7.4,16.5-16.5
			C988.7-177.7,988-178.4,987.2-178.4z M972.2-163.4c-6.9,0-12.7-5.3-13.4-12h26.8C984.9-168.7,979.1-163.4,972.2-163.4z"/>
		<path class="st18" d="M959.2-188.8c0-0.8,0.7-1.5,1.5-1.5s1.5,0.7,1.5,1.5v1.9h3v-1.9c0-2.5-2-4.5-4.5-4.5s-4.5,2-4.5,4.5v1.9h3
			V-188.8z"/>
		<path class="st18" d="M982.2-188.8c0-0.8,0.7-1.5,1.5-1.5s1.5,0.7,1.5,1.5v1.9h3v-1.9c0-2.5-2-4.5-4.5-4.5s-4.5,2-4.5,4.5v1.9h3
			V-188.8z"/>
	</g>
	<g>
		<path class="st18" d="M1116.2-209.2c-16.3,0-29.5,13.2-29.5,29.5s13.2,29.5,29.5,29.5s29.5-13.2,29.5-29.5
			S1132.5-209.2,1116.2-209.2z M1116.2-153.2c-14.6,0-26.5-11.9-26.5-26.5s11.9-26.5,26.5-26.5s26.5,11.9,26.5,26.5
			S1130.8-153.2,1116.2-153.2z"/>
		<path class="st18" d="M1103.2-188.8c0-0.8,0.7-1.5,1.5-1.5s1.5,0.7,1.5,1.5v1.9h3v-1.9c0-2.5-2-4.5-4.5-4.5s-4.5,2-4.5,4.5v1.9h3
			V-188.8z"/>
		<path class="st18" d="M1126.2-188.8c0-0.8,0.7-1.5,1.5-1.5s1.5,0.7,1.5,1.5v1.9h3v-1.9c0-2.5-2-4.5-4.5-4.5s-4.5,2-4.5,4.5v1.9h3
			V-188.8z"/>
		<path class="st18" d="M1131.6-173.4c-4.4,4.9-9.6,7.5-14.9,7.5c-5.2,0-10.2-2.5-14.6-7.1c-0.6-0.6-1.5-0.6-2.1-0.1
			c-0.6,0.6-0.6,1.5-0.1,2.1c4.9,5.3,10.7,8,16.8,8c6.2,0,12.2-2.9,17.2-8.5c0.6-0.6,0.5-1.6-0.1-2.1
			C1133.1-174,1132.2-174,1131.6-173.4z"/>
	</g>
	<g>
		<path class="st18" d="M1279.9-186.1c-0.8,0-1.5,0.7-1.5,1.5v24.6c0,2.5-2,4.5-4.5,4.5h-28c-2.5,0-4.5-2-4.5-4.5v-24.6
			c0-0.8-0.7-1.5-1.5-1.5s-1.5,0.7-1.5,1.5v24.6c0,4.1,3.4,7.5,7.5,7.5h28c4.1,0,7.5-3.4,7.5-7.5v-24.6
			C1281.4-185.4,1280.7-186.1,1279.9-186.1z"/>
		<path class="st18" d="M1288.8-187.8l-26.3-18.2c-1.5-1.1-3.6-1.1-5.1,0l-26.3,18.2c-0.7,0.5-0.8,1.4-0.4,2.1
			c0.3,0.4,0.8,0.6,1.2,0.6c0.3,0,0.6-0.1,0.9-0.3l26.3-18.2c0.5-0.4,1.2-0.4,1.7,0l26.3,18.2c0.7,0.5,1.6,0.3,2.1-0.4
			C1289.6-186.4,1289.4-187.3,1288.8-187.8z"/>
		<path class="st18" d="M1266.6-157.8c0.8,0,1.5-0.7,1.5-1.5v-13.9c0-2.5-2-4.5-4.5-4.5h-6.4c-2.5,0-4.5,2-4.5,4.5v13.9
			c0,0.8,0.7,1.5,1.5,1.5s1.5-0.7,1.5-1.5v-13.9c0-0.8,0.7-1.5,1.5-1.5h6.4c0.8,0,1.5,0.7,1.5,1.5v13.9
			C1265.1-158.5,1265.7-157.8,1266.6-157.8z"/>
	</g>
	<path class="st18" d="M1436.2-194.8l0-0.5c0-9.5-7.5-17.3-16.8-17.3c-6.9,0-12.9,3.7-15.2,5.3c-2.3-1.6-8.3-5.3-15.2-5.3
		c-9.2,0-16.8,7.7-16.8,17.2l0,0.5c0,0.6,0,1.4,0,1.9c0,17.9,29.8,43,31,44c0.3,0.2,0.6,0.3,1,0.3s0.7-0.1,1-0.3
		c1.3-1.1,31-26.1,31-44C1436.2-193.4,1436.2-194.2,1436.2-194.8z M1404.2-152c-5.1-4.5-29-26.1-29-40.9c0-0.5,0-1.3,0-1.8
		c0-0.3,0-0.5,0-0.5c0-7.9,6.2-14.3,13.8-14.3c7.4,0,14.2,5.3,14.3,5.3c0.5,0.4,1.3,0.4,1.9,0c0.1-0.1,6.8-5.3,14.3-5.3
		c7.6,0,13.8,6.4,13.8,14.3c0,0.1,0,0.3,0,0.5c0,0.5,0,1.4,0,1.8C1433.2-178.1,1409.3-156.4,1404.2-152z"/>
	<g>
		<path class="st18" d="M1548.1-209.5c-16.3,0-29.5,13.2-29.5,29.5s13.2,29.5,29.5,29.5s29.5-13.2,29.5-29.5
			S1564.4-209.5,1548.1-209.5z M1548.1-153.5c-14.6,0-26.5-11.9-26.5-26.5s11.9-26.5,26.5-26.5s26.5,11.9,26.5,26.5
			S1562.7-153.5,1548.1-153.5z"/>
		<path class="st18" d="M1538.6-184.7c2.5,0,4.5-2,4.5-4.5s-2-4.5-4.5-4.5s-4.5,2-4.5,4.5S1536.1-184.7,1538.6-184.7z M1538.6-190.7
			c0.8,0,1.5,0.7,1.5,1.5s-0.7,1.5-1.5,1.5s-1.5-0.7-1.5-1.5S1537.8-190.7,1538.6-190.7z"/>
		<path class="st18" d="M1557.6-184.7c2.5,0,4.5-2,4.5-4.5s-2-4.5-4.5-4.5s-4.5,2-4.5,4.5S1555.1-184.7,1557.6-184.7z M1557.6-190.7
			c0.8,0,1.5,0.7,1.5,1.5s-0.7,1.5-1.5,1.5s-1.5-0.7-1.5-1.5S1556.8-190.7,1557.6-190.7z"/>
		<path class="st18" d="M1563.8-172h-31.7c-0.8,0-1.5,0.7-1.5,1.5s0.7,1.5,1.5,1.5h31.7c0.8,0,1.5-0.7,1.5-1.5
			S1564.6-172,1563.8-172z"/>
	</g>
	<g>
		<path class="st18" d="M-526.1-549.2h-2.3h-22.5v-10.7c0-3.6,2.9-6.5,6.5-6.5h8c3.6,0,6.5,2.9,6.5,6.5v3.4h3v-3.4
			c0-5.2-4.3-9.5-9.5-9.5h-8c-5.2,0-9.5,4.3-9.5,9.5v10.7h-0.3c-4.1,0-7.5,3.4-7.5,7.5v23.8c0,4.1,3.4,7.5,7.5,7.5h28
			c4.1,0,7.5-3.4,7.5-7.5v-23.8C-518.6-545.8-522-549.2-526.1-549.2z M-521.6-517.9c0,2.5-2,4.5-4.5,4.5h-28c-2.5,0-4.5-2-4.5-4.5
			v-23.8c0-2.5,2-4.5,4.5-4.5h0.3h25.5h2.3c2.5,0,4.5,2,4.5,4.5V-517.9z"/>
		<path class="st18" d="M-540.2-539.7c-2.5,0-4.5,2-4.5,4.5c0,2,1.3,3.6,3,4.2v7.7c0,0.8,0.7,1.5,1.5,1.5s1.5-0.7,1.5-1.5v-7.7
			c1.7-0.6,3-2.3,3-4.2C-535.7-537.7-537.7-539.7-540.2-539.7z M-540.2-533.7c-0.8,0-1.5-0.7-1.5-1.5s0.7-1.5,1.5-1.5
			s1.5,0.7,1.5,1.5S-539.4-533.7-540.2-533.7z"/>
	</g>
	<g>
		<path class="st18" d="M556.1-65.5h-32c-4.1,0-7.5,3.4-7.5,7.5v44c0,4.1,3.4,7.5,7.5,7.5h32c4.1,0,7.5-3.4,7.5-7.5v-44
			C563.6-62.1,560.2-65.5,556.1-65.5z M560.6-14c0,2.5-2,4.5-4.5,4.5h-32c-2.5,0-4.5-2-4.5-4.5v-44c0-2.5,2-4.5,4.5-4.5h32
			c2.5,0,4.5,2,4.5,4.5V-14z"/>
		<path class="st18" d="M525.7-54.5h8.4c0.8,0,1.5-0.7,1.5-1.5s-0.7-1.5-1.5-1.5h-8.4c-0.8,0-1.5,0.7-1.5,1.5S524.9-54.5,525.7-54.5
			z"/>
		<path class="st18" d="M555.1-57.5h-8.4c-0.8,0-1.5,0.7-1.5,1.5s0.7,1.5,1.5,1.5h8.4c0.8,0,1.5-0.7,1.5-1.5S555.9-57.5,555.1-57.5z
			"/>
		<path class="st18" d="M555.1-46.5h-29.4c-0.8,0-1.5,0.7-1.5,1.5s0.7,1.5,1.5,1.5h29.4c0.8,0,1.5-0.7,1.5-1.5
			S555.9-46.5,555.1-46.5z"/>
		<path class="st18" d="M555.1-39.5h-29.4c-0.8,0-1.5,0.7-1.5,1.5s0.7,1.5,1.5,1.5h29.4c0.8,0,1.5-0.7,1.5-1.5
			S555.9-39.5,555.1-39.5z"/>
		<path class="st18" d="M555.1-32.5h-29.4c-0.8,0-1.5,0.7-1.5,1.5s0.7,1.5,1.5,1.5h29.4c0.8,0,1.5-0.7,1.5-1.5
			S555.9-32.5,555.1-32.5z"/>
		<path class="st18" d="M555.1-25.5h-29.4c-0.8,0-1.5,0.7-1.5,1.5s0.7,1.5,1.5,1.5h29.4c0.8,0,1.5-0.7,1.5-1.5
			S555.9-25.5,555.1-25.5z"/>
		<path class="st18" d="M555.1-18.5h-29.4c-0.8,0-1.5,0.7-1.5,1.5s0.7,1.5,1.5,1.5h29.4c0.8,0,1.5-0.7,1.5-1.5
			S555.9-18.5,555.1-18.5z"/>
	</g>
	<g>
		<path class="st18" d="M709.8-40.9v-8.8c0-4.1-3.4-7.5-7.5-7.5h-40.1c-4.1,0-7.5,3.4-7.5,7.5v28c0,4.1,3.4,7.5,7.5,7.5h40.1
			c4.1,0,7.5-3.4,7.5-7.5v-9.1c1.9-0.9,3.2-2.8,3.2-5.1C713-38.1,711.7-40,709.8-40.9z M706.8-21.8c0,2.5-2,4.5-4.5,4.5h-40.1
			c-2.5,0-4.5-2-4.5-4.5v-28c0-2.5,2-4.5,4.5-4.5h40.1c2.5,0,4.5,2,4.5,4.5v8.3h-14.2c-3.1,0-5.6,2.5-5.6,5.6c0,3.1,2.5,5.6,5.6,5.6
			h14.2V-21.8z M707.4-33.3h-14.8c-1.4,0-2.6-1.2-2.6-2.6c0-1.4,1.2-2.6,2.6-2.6h14.8c1.4,0,2.6,1.2,2.6,2.6
			C710-34.5,708.8-33.3,707.4-33.3z"/>
		<path class="st18" d="M693.3-37.5h-0.8c-0.6,0-1.1,0.5-1.1,1.1v0.8c0,0.6,0.5,1.1,1.1,1.1h0.8c0.6,0,1.1-0.5,1.1-1.1v-0.8
			C694.4-37,693.9-37.5,693.3-37.5z"/>
	</g>
	<path class="st2" d="M859.4-18.5h-44.2c-3.3,0-6-2.7-6-6v-28c0-3.3,2.7-6,6-6h44.2c3.3,0,6,2.7,6,6v28
		C865.4-21.2,862.7-18.5,859.4-18.5z"/>
	<line class="st2" x1="809.2" y1="-47" x2="865" y2="-47"/>
	<line class="st3" x1="816.4" y1="-36.5" x2="839.6" y2="-36.5"/>
	<g>
		<path class="st23" d="M861.4-18.5h-48c-2.2,0-4-1.8-4-4v-32c0-2.2,1.8-4,4-4h48c2.2,0,4,1.8,4,4v32
			C865.4-20.3,863.6-18.5,861.4-18.5z"/>
		<path class="st23" d="M857.4-62.5v48c0,2.2-1.8,4-4,4h-32c-2.2,0-4-1.8-4-4v-48c0-2.2,1.8-4,4-4h32
			C855.6-66.5,857.4-64.7,857.4-62.5z"/>
		<path class="st23" d="M865.4-62.5v48c0,2.2-1.8,4-4,4h-48c-2.2,0-4-1.8-4-4v-48c0-2.2,1.8-4,4-4h48
			C863.6-66.5,865.4-64.7,865.4-62.5z"/>
		<circle class="st23" cx="837.4" cy="-38.5" r="28"/>
		<circle class="st23" cx="837.4" cy="-38.5" r="20"/>
	</g>
	<path class="st2" d="M987.4-18.5h-44.2c-3.3,0-6-2.7-6-6v-28c0-3.3,2.7-6,6-6h44.2c3.3,0,6,2.7,6,6v28
		C993.4-21.2,990.7-18.5,987.4-18.5z"/>
	<line class="st2" x1="937.2" y1="-37" x2="993" y2="-37"/>
	<line class="st3" x1="944.4" y1="-26.5" x2="974.2" y2="-26.5"/>
	<g>
		<path class="st23" d="M989.4-18.5h-48c-2.2,0-4-1.8-4-4v-32c0-2.2,1.8-4,4-4h48c2.2,0,4,1.8,4,4v32
			C993.4-20.3,991.6-18.5,989.4-18.5z"/>
		<path class="st23" d="M985.4-62.5v48c0,2.2-1.8,4-4,4h-32c-2.2,0-4-1.8-4-4v-48c0-2.2,1.8-4,4-4h32
			C983.6-66.5,985.4-64.7,985.4-62.5z"/>
		<path class="st23" d="M993.4-62.5v48c0,2.2-1.8,4-4,4h-48c-2.2,0-4-1.8-4-4v-48c0-2.2,1.8-4,4-4h48
			C991.6-66.5,993.4-64.7,993.4-62.5z"/>
		<circle class="st23" cx="965.4" cy="-38.5" r="28"/>
		<circle class="st23" cx="965.4" cy="-38.5" r="20"/>
	</g>
	<path class="st2" d="M983.7-45.6H977c-1.5,0-2.7-1.2-2.7-2.7v0c0-1.5,1.2-2.7,2.7-2.7h6.7c1.5,0,2.7,1.2,2.7,2.7v0
		C986.4-46.8,985.2-45.6,983.7-45.6z"/>
	<path class="st18" d="M-727.9-757.4h-26.5v-26.5c0-0.8-0.7-1.5-1.5-1.5s-1.5,0.7-1.5,1.5v26.5h-26.5c-0.8,0-1.5,0.7-1.5,1.5
		s0.7,1.5,1.5,1.5h26.5v26.5c0,0.8,0.7,1.5,1.5,1.5s1.5-0.7,1.5-1.5v-26.5h26.5c0.8,0,1.5-0.7,1.5-1.5S-727.1-757.4-727.9-757.4z"/>
	<g>
		<path class="st2" d="M-128.1-164.7v4c0,0.6-0.4,1-1,1h-6c-0.6,0-1-0.4-1-1v-12"/>
		<path class="st2" d="M-80.1-172.7v12c0,0.6-0.4,1-1,1h-6c-0.6,0-1-0.4-1-1v-4"/>
		<path class="st3" d="M-136.1-177.3v11.6c0,1.1,0.9,2,2,2h52c1.1,0,2-0.9,2-2v-11.6c0-0.4-0.1-0.7-0.2-1.1l-3.1-8.7l-3.2-12.4
			c-0.4-1.4-1.5-2.4-2.8-2.8c-3.3-0.9-11.1-2.4-18.8-2.4s-15.5,1.5-18.8,2.4c-1.4,0.4-2.4,1.4-2.8,2.8l-3.2,12.4l-3.1,8.7
			C-136-178.1-136.1-177.7-136.1-177.3z"/>
		<path class="st3" d="M-82.6-189.8c2.3-0.7,4.4-0.6,5,1.4c0.7,2.1-0.9,3.4-3.2,4.1"/>
		<path class="st3" d="M-133.5-189.8c-2.3-0.7-4.4-0.6-5,1.4c-0.7,2.1,0.9,3.4,3.2,4.1"/>
		<path class="st3" d="M-123.1-173.3h-6c-0.6,0-1-0.4-1-1v-3c0-0.6,0.4-1,1-1l6,1c0.6,0,1,0.4,1,1v2
			C-122.1-173.7-122.5-173.3-123.1-173.3z"/>
		<path class="st3" d="M-93.1-173.3h6c0.6,0,1-0.4,1-1v-3c0-0.6-0.4-1-1-1l-6,1c-0.6,0-1,0.4-1,1v2
			C-94.1-173.7-93.6-173.3-93.1-173.3z"/>
		<line class="st2" x1="-132.8" y1="-186.7" x2="-82.9" y2="-186.7"/>
	</g>
	<path class="st3" d="M-295.6,225.1v48.5c0,5,4,9,9,9h38.5c5.2,0,9.5-4.3,9.5-9.5v-38.8c0-4.8-3.9-8.8-8.8-8.8h-20.3v31.5"/>
	<polygon class="st6" points="-278.2,252.5 -267.4,263.2 -256.6,252.4 	"/>
	<path class="st24" d="M-80.5,39.8v17.8c0,4.7-3.9,8.6-8.6,8.6h-38.3c-4.7,0-8.6-3.9-8.6-8.6V19.3c0-4.7,3.9-8.6,8.6-8.6h24.9"/>
	<path class="st24" d="M-87,10.6l-29.6,29.6l-1.8,10.6c-0.2,1.5,1,2.8,2.5,2.7l8.6-0.8l29.4-29.4c2.4-2.4,3.1-6.1,1.5-9.2
		c-0.6-1.1-1.3-2.1-2.3-2.9c-0.5-0.4-0.9-0.7-1.3-1C-82.1,8.5-85.1,8.7-87,10.6z"/>
	<path class="st24" d="M-115.2,41.3c0,0,3.2,0.9,5.7,2.9s3.6,7,3.6,7"/>
	<circle class="st25" cx="36.7" cy="21.3" r="16.8"/>
	<path class="st25" d="M36.1,68.1h24.3c1.2,0,2.2-1,2.2-2.2V55.7c0-3-3-6.4-5.5-8.6c-1.7-1.5-3.9-2.1-6.1-1.6
		c-3.7,0.9-10,2.1-14.9,2.1h0.5c-5,0-11.2-1.2-15-2.1c-2.2-0.5-4.5,0.1-6.2,1.6c-2.4,2.2-5.5,5.6-5.5,8.6V66c0,1.2,1,2.2,2.2,2.2
		h24.5H36.1z"/>
</g>
</svg>
